<svg width="50" height="62" viewBox="0 0 50 62" fill="none" xmlns="http://www.w3.org/2000/svg">
<g filter="url(#filter0_d_1078_54)">
<path d="M21.9295 55C16.8584 55 12.5733 53.8608 9.07421 51.5823C5.62585 49.3038 3.26778 46.0127 2 41.7089L10.8998 39.6582C11.8633 41.8861 13.2832 43.5316 15.1596 44.5949C17.0866 45.6582 19.3686 46.1899 22.0056 46.1899C25.6568 46.1899 28.4459 45.3038 30.3729 43.5316C32.2999 41.7089 33.2635 39.2785 33.2635 36.2405C33.2635 33.3038 32.376 31.0253 30.6011 29.4051C28.8262 27.7848 26.3667 26.9747 23.2226 26.9747C18.7093 26.9747 14.9821 28.4177 12.0408 31.3038L4.43414 29.1772L7.55288 1H39.5009V9.65823H14.9314L13.4861 22.5696C15.261 21.4051 17.0359 20.5443 18.8108 19.9873C20.6364 19.4304 22.6902 19.1519 24.9722 19.1519C27.812 19.1519 30.3222 19.557 32.5028 20.3671C34.7341 21.1266 36.6357 22.2405 38.2078 23.7089C39.7798 25.1266 40.9715 26.8987 41.7829 29.0253C42.5943 31.1013 43 33.4304 43 36.0127C43 38.8481 42.4929 41.4304 41.4787 43.7595C40.5152 46.0886 39.0952 48.0886 37.2189 49.7595C35.3933 51.4304 33.1874 52.7215 30.6011 53.6329C28.0148 54.5443 25.1243 55 21.9295 55Z" fill="white"/>
<path d="M8.79857 51.9995L8.80137 52.0013C12.3976 54.343 16.7825 55.5 21.9295 55.5C25.1718 55.5 28.1196 55.0375 30.7673 54.1045C33.409 53.1736 35.6741 51.8505 37.554 50.1306C39.4844 48.4109 40.9471 46.3507 41.9389 43.9551C42.9823 41.5571 43.5 38.9072 43.5 36.0127C43.5 33.3786 43.0862 30.987 42.2493 28.845C41.4125 26.6526 40.179 24.8142 38.5459 23.3405C36.9195 21.8223 34.958 20.6755 32.6704 19.896C30.4249 19.0628 27.8559 18.6519 24.9722 18.6519C22.6501 18.6519 20.5459 18.9352 18.6649 19.5091L18.6649 19.5091L18.6611 19.5103C17.1344 19.9893 15.6135 20.6853 14.0983 21.5947L15.3785 10.1582H39.5009H40.0009V9.65823V1V0.5H39.5009H7.55288H7.10516L7.05591 0.944994L3.93717 29.1222L3.89044 29.5444L4.29952 29.6588L11.9062 31.7853L12.1846 31.8632L12.391 31.6607C15.2294 28.8755 18.8266 27.4747 23.2226 27.4747C26.2814 27.4747 28.6067 28.2615 30.264 29.7743C31.9126 31.2793 32.7635 33.4106 32.7635 36.2405C32.7635 39.1615 31.8425 41.4519 30.0319 43.166C28.2282 44.8232 25.5794 45.6899 22.0056 45.6899C19.4375 45.6899 17.2427 45.1727 15.4035 44.1585C13.6349 43.1554 12.2843 41.5999 11.3587 39.4598L11.1934 39.0775L10.7875 39.171L1.88774 41.2216L1.37035 41.3408L1.52038 41.8501C2.81842 46.2567 5.24312 49.6502 8.79857 51.9995Z" stroke="#FE5A13"/>
</g>
<defs>
<filter id="filter0_d_1078_54" x="0.740723" y="0" width="49.2593" height="62" filterUnits="userSpaceOnUse" color-interpolation-filters="sRGB">
<feFlood flood-opacity="0" result="BackgroundImageFix"/>
<feBlend mode="normal" in2="BackgroundImageFix" result="effect1_dropShadow_1078_54"/>
<feBlend mode="normal" in="SourceGraphic" in2="effect1_dropShadow_1078_54" result="shape"/>
</filter>
</defs>
</svg>
