<svg width="100" height="20" viewBox="0 0 100 20" fill="none" xmlns="http://www.w3.org/2000/svg">
<path d="M10 0L12.3511 6.76393L19.5106 6.90983L13.8042 11.2361L15.8779 18.0902L10 14L4.12215 18.0902L6.19577 11.2361L0.489435 6.90983L7.64886 6.76393L10 0Z" fill="#FE5A13"/>
<path d="M30 0L32.3511 6.76393L39.5106 6.90983L33.8042 11.2361L35.8779 18.0902L30 14L24.1221 18.0902L26.1958 11.2361L20.4894 6.90983L27.6489 6.76393L30 0Z" fill="#FE5A13"/>
<path d="M50 0L52.3511 6.76393L59.5106 6.90983L53.8042 11.2361L55.8779 18.0902L50 14L44.1221 18.0902L46.1958 11.2361L40.4894 6.90983L47.6489 6.76393L50 0Z" fill="#FE5A13"/>
<path d="M70 0L72.3511 6.76393L79.5106 6.90983L73.8042 11.2361L75.8779 18.0902L70 14L64.1221 18.0902L66.1958 11.2361L60.4894 6.90983L67.6489 6.76393L70 0Z" fill="#FE5A13"/>
<path d="M90 0L92.3511 6.76393L99.5106 6.90983L93.8042 11.2361L95.8779 18.0902L90 14L84.1221 18.0902L86.1958 11.2361L80.4894 6.90983L87.6489 6.76393L90 0Z" fill="#FE5A13"/>
</svg>
