<svg width="40" height="23" viewBox="0 0 40 23" fill="none" xmlns="http://www.w3.org/2000/svg">
<rect x="0.5" y="0.5" width="39" height="22" rx="6.5" stroke="#E1E1E1"/>
<path d="M4.74397 6.00068L3 9.99758H4.13542L4.45721 9.19721H6.32791L6.64801 9.99758H7.80847L6.06609 6.00068H4.74397ZM5.38921 6.93085L5.95941 8.32948H4.81735L5.38921 6.93085ZM7.92849 9.9969V6L9.54196 6.0059L10.4804 8.58287L11.3964 6H12.997V9.9969H11.9833V7.05182L10.9088 9.9969H10.0197L8.9422 7.05182V9.9969H7.92849ZM13.6906 9.9969V6H16.9985V6.89404H14.715V7.57771H16.9451V8.41919H14.715V9.12917H16.9985V9.9969H13.6906ZM17.5854 6.00068V9.99758H18.5991V8.57762H19.0259L20.2413 9.99758H21.4802L20.1463 8.52502C20.6937 8.47949 21.2584 8.01638 21.2584 7.29736C21.2584 6.45629 20.5887 6.00068 19.8412 6.00068H17.5854ZM18.5991 6.89472H19.7578C20.0358 6.89472 20.238 7.10905 20.238 7.31543C20.238 7.58095 19.976 7.73617 19.7729 7.73617H18.5991V6.89472ZM22.7073 9.9969H21.6722V6H22.7073V9.9969ZM25.1615 9.9969H24.9381C23.8571 9.9969 23.2008 9.1574 23.2008 8.01488C23.2008 6.84411 23.8498 6 25.2149 6H26.3353V6.94663H25.1739C24.6198 6.94663 24.2278 7.37293 24.2278 8.02473C24.2278 8.79879 24.676 9.12389 25.3216 9.12389H25.5883L25.1615 9.9969ZM27.3673 6.00068L25.6234 9.99758H26.7588L27.0805 9.19721H28.9512L29.2714 9.99758H30.4318L28.6895 6.00068H27.3673ZM28.0126 6.93085L28.5828 8.32948H27.4407L28.0126 6.93085ZM30.5502 9.9969V6H31.839L33.4846 8.51122V6H34.4983V9.9969H33.2512L31.5639 7.41997V9.9969H30.5502ZM10.3827 16.9915V12.9946H13.6906V13.8886H11.4071V14.5723H13.6372V15.4138H11.4071V16.1237H13.6906V16.9915H10.3827ZM26.5914 16.9915V12.9946H29.8993V13.8886H27.6158V14.5723H29.8352V15.4138H27.6157V16.1237H29.8992V16.9915H26.5914ZM13.819 16.9915L15.4296 15.0177L13.7806 12.9946H15.0578L16.0398 14.2452L17.0252 12.9946H18.2523L16.6251 14.993L18.2386 16.9915H16.9617L16.0082 15.7605L15.0778 16.9915H13.819ZM18.359 12.9953V16.9922H19.3994V15.73H20.4665C21.3693 15.73 22.0537 15.2578 22.0537 14.3396C22.0537 13.579 21.517 12.9953 20.5982 12.9953H18.359ZM19.3994 13.8992H20.5231C20.8148 13.8992 21.0233 14.0754 21.0233 14.3593C21.0233 14.6261 20.8159 14.8195 20.5198 14.8195H19.3994V13.8992ZM22.4939 12.9946V16.9915H23.5076V15.5715H23.9344L25.1498 16.9915H26.3886L25.0548 15.519C25.6022 15.4734 26.1669 15.0103 26.1669 14.2913C26.1669 13.4502 25.4972 12.9946 24.7497 12.9946H22.4939ZM23.5076 13.8886H24.6663C24.9443 13.8886 25.1465 14.1029 25.1465 14.3094C25.1465 14.5749 24.8845 14.7301 24.6813 14.7301H23.5076V13.8886ZM30.3688 16.9915V16.1237H32.3975C32.6977 16.1237 32.8277 15.9638 32.8277 15.7885C32.8277 15.6204 32.6981 15.4506 32.3975 15.4506H31.4807C30.6839 15.4506 30.2401 14.972 30.2401 14.2535C30.2401 13.6126 30.6465 12.9946 31.8307 12.9946H33.8047L33.3779 13.8939H31.6706C31.3442 13.8939 31.2438 14.0627 31.2438 14.2239C31.2438 14.3896 31.3679 14.5723 31.6172 14.5723H32.5776C33.4659 14.5723 33.8514 15.069 33.8514 15.7194C33.8514 16.4187 33.4218 16.9915 32.5292 16.9915H30.3688ZM34.0893 16.9915V16.1237H36.118C36.4183 16.1237 36.5482 15.9638 36.5482 15.7885C36.5482 15.6204 36.4187 15.4506 36.118 15.4506H35.2013C34.4044 15.4506 33.9606 14.972 33.9606 14.2535C33.9606 13.6126 34.367 12.9946 35.5512 12.9946H37.5253L37.0984 13.8939H35.3911C35.0648 13.8939 34.9643 14.0627 34.9643 14.2239C34.9643 14.3896 35.0884 14.5723 35.3378 14.5723H36.2981C37.1865 14.5723 37.5719 15.069 37.5719 15.7194C37.5719 16.4187 37.1424 16.9915 36.2498 16.9915H34.0893Z" fill="#016FD0"/>
</svg>
