<svg width="40" height="23" viewBox="0 0 40 23" fill="none" xmlns="http://www.w3.org/2000/svg">
<rect x="0.5" y="0.5" width="39" height="22" rx="6.5" stroke="#E1E1E1"/>
<path d="M9.66428 7.5471C9.30096 7.95243 8.71965 8.27212 8.13833 8.22645C8.06566 7.6784 8.35027 7.0961 8.68331 6.73644C9.04664 6.3197 9.68245 6.02284 10.1972 6C10.2577 6.57088 10.0216 7.13035 9.66428 7.5471ZM10.1911 8.33492C9.3494 8.28925 8.62881 8.78592 8.22916 8.78592C7.82345 8.78592 7.21186 8.35775 6.54576 8.36917C5.67984 8.38059 4.87448 8.84301 4.43244 9.57945C3.52413 11.0523 4.19628 13.2331 5.07431 14.432C5.50424 15.0257 6.01895 15.6765 6.69715 15.6537C7.33902 15.6308 7.59334 15.2598 8.36843 15.2598C9.14958 15.2598 9.37363 15.6537 10.0518 15.6422C10.7543 15.6308 11.1963 15.0485 11.6262 14.4548C12.1167 13.7812 12.3165 13.1246 12.3287 13.0904C12.3165 13.079 10.9722 12.5937 10.9601 11.1323C10.948 9.91056 12.0198 9.32826 12.0683 9.29401C11.4627 8.4491 10.5181 8.35775 10.1911 8.33492ZM15.0536 6.67935V15.5794H16.519V12.5366H18.5475C20.4005 12.5366 21.7024 11.3378 21.7024 9.60228C21.7024 7.86679 20.4247 6.67935 18.596 6.67935H15.0536ZM16.519 7.84396H18.2084C19.4801 7.84396 20.2067 8.48335 20.2067 9.60799C20.2067 10.7326 19.4801 11.3777 18.2024 11.3777H16.519V7.84396ZM24.3789 15.648C25.2993 15.648 26.1531 15.2084 26.5406 14.5119H26.5709V15.5794H27.9273V11.1494C27.9273 9.86489 26.8373 9.03711 25.16 9.03711C23.6038 9.03711 22.4532 9.87631 22.4109 11.0295H23.7309C23.8399 10.4814 24.3789 10.1218 25.1176 10.1218C26.0138 10.1218 26.5164 10.5157 26.5164 11.2407V11.7317L24.6877 11.8344C22.9861 11.9315 22.0657 12.588 22.0657 13.7298C22.0657 14.883 23.0164 15.648 24.3789 15.648ZM24.7725 14.5918C23.9913 14.5918 23.4948 14.2379 23.4948 13.6955C23.4948 13.1361 23.9732 12.8107 24.8875 12.7593L26.5164 12.6622V13.1646C26.5164 13.9981 25.7655 14.5918 24.7725 14.5918ZM29.7379 18C31.1669 18 31.8391 17.4862 32.4265 15.9277L35 9.12274H33.5104L31.7846 14.3806H31.7543L30.0285 9.12274H28.4965L30.9792 15.6023L30.846 15.9962C30.622 16.6641 30.2586 16.921 29.6107 16.921C29.4957 16.921 29.2716 16.9096 29.1808 16.8982V17.9657C29.2656 17.9886 29.6289 18 29.7379 18Z" fill="black"/>
</svg>
