<svg width="51" height="50" viewBox="0 0 51 50" fill="none" xmlns="http://www.w3.org/2000/svg">
<rect x="1" y="0.5" width="49" height="49" rx="9.5" fill="#FFD0BB"/>
<g clip-path="url(#clip0_942_7515)">
<path d="M31.6972 10.606C36.3887 10.606 40.2057 14.6284 40.2057 19.574V30.4258C40.2057 35.3714 36.3887 39.3938 31.6972 39.3938C31.156 39.3938 30.7168 38.9308 30.7168 38.3603C30.7168 37.7898 31.156 37.3268 31.6972 37.3268C35.3077 37.3268 38.2449 34.2318 38.2449 30.4258V21.765H33.4162C31.8305 21.7664 30.5377 23.1279 30.5364 24.8008C30.5377 26.4737 31.8305 27.8351 33.4162 27.8365H35.4227C35.9639 27.8365 36.4031 28.2995 36.4031 28.87C36.4031 29.4405 35.9639 29.9035 35.4227 29.9035H33.4162C30.7482 29.9021 28.577 27.6133 28.5756 24.8008C28.577 21.9883 30.7482 19.6994 33.4162 19.698H38.2449V19.574C38.2449 15.768 35.3077 12.673 31.6972 12.673H19.3011C16.3913 12.673 13.9495 14.6959 13.0985 17.467H26.0214C26.5626 17.467 27.0018 17.93 27.0018 18.5005C27.0018 19.0724 26.5626 19.534 26.0214 19.534H12.7587L12.7547 19.574V30.4258C12.7547 34.2318 15.6907 37.3268 19.3011 37.3268H25.5377C26.0789 37.3268 26.5181 37.7898 26.5181 38.3603C26.5181 38.9308 26.0789 39.3938 25.5377 39.3938H19.3011C14.6096 39.3938 10.7939 35.3714 10.7939 30.4258V19.574C10.7939 14.6284 14.6096 10.606 19.3011 10.606H31.6972ZM34.0745 23.6741C34.6156 23.6741 35.0549 24.1371 35.0549 24.7076C35.0549 25.2781 34.6156 25.7411 34.0745 25.7411H33.6287C33.0875 25.7411 32.6483 25.2781 32.6483 24.7076C32.6483 24.1371 33.0875 23.6741 33.6287 23.6741H34.0745Z" fill="#FE5A13"/>
</g>
<rect x="1" y="0.5" width="49" height="49" rx="9.5" stroke="#FE5A13"/>
<defs>
<clipPath id="clip0_942_7515">
<rect width="30" height="30" fill="white" transform="translate(10.5 10)"/>
</clipPath>
</defs>
</svg>
