<svg width="51" height="50" viewBox="0 0 51 50" fill="none" xmlns="http://www.w3.org/2000/svg">
<rect x="1" y="0.5" width="49" height="49" rx="9.5" fill="#D2FF71"/>
<path d="M31.1906 18.0436C31.3744 17.9499 31.5514 17.8434 31.7203 17.7249C33.0891 16.7639 33.5109 14.9968 32.6578 13.7874C31.8047 12.578 30.0047 12.3811 28.6359 13.3514C27.2672 14.3218 26.5641 16.0374 25.8 18.0389L31.1906 18.0436ZM14.5781 24.278H36.4266V35.3874C36.4266 35.8847 36.229 36.3616 35.8774 36.7132C35.5258 37.0648 35.0488 37.2624 34.5516 37.2624H16.4531C15.9558 37.2624 15.4789 37.0648 15.1273 36.7132C14.7757 36.3616 14.5781 35.8847 14.5781 35.3874V24.278Z" stroke="#85C316" stroke-width="2" stroke-linecap="round" stroke-linejoin="round"/>
<path d="M28.2422 24.2781H22.7578V37.2625H28.2422V24.2781Z" stroke="#85C316" stroke-width="2" stroke-linecap="round" stroke-linejoin="round"/>
<path d="M19.8092 18.0436C19.6263 17.9509 19.4508 17.8444 19.2842 17.7249C17.9154 16.7639 17.4889 14.9968 18.3467 13.7874C19.2045 12.578 20.9998 12.3811 22.3732 13.3514C23.7467 14.3218 24.4404 16.0374 25.2092 18.0389L19.8092 18.0436Z" stroke="#85C316" stroke-width="2" stroke-linecap="round" stroke-linejoin="round"/>
<path d="M36.0469 18.0437H14.9531C14.1765 18.0437 13.5469 18.6733 13.5469 19.45V22.8718C13.5469 23.6485 14.1765 24.2781 14.9531 24.2781H36.0469C36.8235 24.2781 37.4531 23.6485 37.4531 22.8718V19.45C37.4531 18.6733 36.8235 18.0437 36.0469 18.0437Z" stroke="#85C316" stroke-width="2" stroke-linecap="round" stroke-linejoin="round"/>
<path d="M28.7436 18.0437H22.2607V24.2781H28.7436V18.0437Z" stroke="#85C316" stroke-width="2" stroke-linecap="round" stroke-linejoin="round"/>
<rect x="1" y="0.5" width="49" height="49" rx="9.5" stroke="#85C316"/>
</svg>
