<svg width="28" height="28" viewBox="0 0 28 28" fill="none" xmlns="http://www.w3.org/2000/svg">
<g id="ph:calendar-light">
<path id="Vector" d="M22.75 3.71875H19.9062V2.625C19.9062 2.45095 19.8371 2.28403 19.714 2.16096C19.591 2.03789 19.424 1.96875 19.25 1.96875C19.076 1.96875 18.909 2.03789 18.786 2.16096C18.6629 2.28403 18.5938 2.45095 18.5938 2.625V3.71875H9.40625V2.625C9.40625 2.45095 9.33711 2.28403 9.21404 2.16096C9.09097 2.03789 8.92405 1.96875 8.75 1.96875C8.57595 1.96875 8.40903 2.03789 8.28596 2.16096C8.16289 2.28403 8.09375 2.45095 8.09375 2.625V3.71875H5.25C4.84389 3.71875 4.45441 3.88008 4.16724 4.16724C3.88008 4.45441 3.71875 4.84389 3.71875 5.25V22.75C3.71875 23.1561 3.88008 23.5456 4.16724 23.8328C4.45441 24.1199 4.84389 24.2812 5.25 24.2812H22.75C23.1561 24.2812 23.5456 24.1199 23.8328 23.8328C24.1199 23.5456 24.2812 23.1561 24.2812 22.75V5.25C24.2812 4.84389 24.1199 4.45441 23.8328 4.16724C23.5456 3.88008 23.1561 3.71875 22.75 3.71875ZM5.25 5.03125H8.09375V6.125C8.09375 6.29905 8.16289 6.46597 8.28596 6.58904C8.40903 6.71211 8.57595 6.78125 8.75 6.78125C8.92405 6.78125 9.09097 6.71211 9.21404 6.58904C9.33711 6.46597 9.40625 6.29905 9.40625 6.125V5.03125H18.5938V6.125C18.5938 6.29905 18.6629 6.46597 18.786 6.58904C18.909 6.71211 19.076 6.78125 19.25 6.78125C19.424 6.78125 19.591 6.71211 19.714 6.58904C19.8371 6.46597 19.9062 6.29905 19.9062 6.125V5.03125H22.75C22.808 5.03125 22.8637 5.0543 22.9047 5.09532C22.9457 5.13634 22.9688 5.19198 22.9688 5.25V8.96875H5.03125V5.25C5.03125 5.19198 5.0543 5.13634 5.09532 5.09532C5.13634 5.0543 5.19198 5.03125 5.25 5.03125ZM22.75 22.9688H5.25C5.19198 22.9688 5.13634 22.9457 5.09532 22.9047C5.0543 22.8637 5.03125 22.808 5.03125 22.75V10.2812H22.9688V22.75C22.9688 22.808 22.9457 22.8637 22.9047 22.9047C22.8637 22.9457 22.808 22.9688 22.75 22.9688ZM12.0312 13.125V20.125C12.0312 20.299 11.9621 20.466 11.839 20.589C11.716 20.7121 11.549 20.7812 11.375 20.7812C11.201 20.7812 11.034 20.7121 10.911 20.589C10.7879 20.466 10.7188 20.299 10.7188 20.125V14.187L9.91813 14.5873C9.84099 14.6258 9.75704 14.6488 9.67105 14.6548C9.58505 14.6609 9.49872 14.6499 9.41696 14.6226C9.3352 14.5953 9.25962 14.5521 9.19454 14.4956C9.12946 14.439 9.07615 14.3703 9.03766 14.2931C8.99916 14.216 8.97624 14.132 8.97019 14.046C8.96414 13.9601 8.97509 13.8737 9.00241 13.792C9.02974 13.7102 9.07289 13.6346 9.12942 13.5695C9.18595 13.5045 9.25474 13.4511 9.33187 13.4127L11.0819 12.5377C11.1819 12.4877 11.2931 12.4641 11.4048 12.4692C11.5166 12.4743 11.6252 12.5079 11.7203 12.5667C11.8154 12.6256 11.8939 12.7077 11.9483 12.8054C12.0027 12.9032 12.0313 13.0132 12.0312 13.125ZM18.5467 16.3242L16.1875 19.4688H18.375C18.549 19.4688 18.716 19.5379 18.839 19.661C18.9621 19.784 19.0312 19.951 19.0312 20.125C19.0312 20.299 18.9621 20.466 18.839 20.589C18.716 20.7121 18.549 20.7812 18.375 20.7812H14.875C14.7531 20.7812 14.6337 20.7473 14.53 20.6832C14.4263 20.6192 14.3425 20.5275 14.288 20.4185C14.2335 20.3095 14.2105 20.1874 14.2214 20.0661C14.2323 19.9447 14.2769 19.8287 14.35 19.7312L17.5 15.5312C17.5907 15.4121 17.656 15.2755 17.6917 15.1301C17.7275 14.9846 17.733 14.8334 17.708 14.6857C17.6829 14.5381 17.6277 14.3971 17.546 14.2717C17.4642 14.1462 17.3575 14.0388 17.2325 13.9563C17.1076 13.8737 16.967 13.8177 16.8195 13.7917C16.672 13.7657 16.5207 13.7703 16.3751 13.8051C16.2294 13.84 16.0924 13.9044 15.9727 13.9944C15.8529 14.0843 15.753 14.1979 15.6789 14.3281C15.6398 14.4097 15.5842 14.4823 15.5156 14.5414C15.4471 14.6005 15.367 14.6448 15.2806 14.6714C15.1941 14.6981 15.103 14.7066 15.0131 14.6964C14.9232 14.6862 14.8364 14.6575 14.7581 14.6121C14.6798 14.5667 14.6117 14.5056 14.5582 14.4326C14.5046 14.3597 14.4667 14.2764 14.4469 14.1881C14.4271 14.0999 14.4257 14.0084 14.4429 13.9196C14.4601 13.8307 14.4955 13.7464 14.5469 13.6719C14.7118 13.3887 14.9328 13.1423 15.1964 12.9476C15.4599 12.7529 15.7605 12.6141 16.0796 12.5396C16.3987 12.4652 16.7296 12.4568 17.0521 12.5148C17.3746 12.5728 17.6819 12.696 17.955 12.877C18.2282 13.058 18.4615 13.2928 18.6407 13.5672C18.8199 13.8415 18.9412 14.1496 18.9971 14.4724C19.053 14.7953 19.0424 15.1262 18.9659 15.4448C18.8894 15.7634 18.7486 16.063 18.5522 16.3253L18.5467 16.3242Z" fill="#646464"/>
</g>
</svg>
