<svg width="28" height="28" viewBox="0 0 28 28" fill="none" xmlns="http://www.w3.org/2000/svg">
<g id="cil:heart">
<path id="Vector" d="M24.7813 4.32075C24.1309 3.67043 23.3588 3.15464 22.5091 2.80285C21.6593 2.45105 20.7486 2.27016 19.8289 2.27051C18.9092 2.27085 17.9986 2.45243 17.1491 2.80486C16.2996 3.15729 15.5279 3.67366 14.8781 4.32447L14.0298 5.18306L13.1886 4.32633L13.1831 4.32086C12.5331 3.67085 11.7614 3.15523 10.9122 2.80344C10.0629 2.45165 9.15263 2.27059 8.23337 2.27059C7.31411 2.27059 6.40385 2.45165 5.55457 2.80344C4.70529 3.15523 3.93361 3.67085 3.2836 4.32086L2.90571 4.69875C1.59296 6.01151 0.855469 7.79198 0.855469 9.64849C0.855469 11.505 1.59296 13.2855 2.90571 14.5982L12.8792 24.5716L14.0055 25.7517L14.0324 25.7248L14.0615 25.7539L15.1168 24.6405L25.1592 14.5981C26.4699 13.2843 27.2061 11.5042 27.2061 9.64833C27.2061 7.79247 26.4699 6.01238 25.1592 4.69859L24.7813 4.32075ZM23.9215 13.3607L14.0324 23.25L4.14307 13.3607C3.15851 12.3761 2.6054 11.0407 2.6054 9.64835C2.6054 8.25597 3.15851 6.92062 4.14307 5.93606L4.52102 5.55817C5.5051 4.57409 6.83965 4.02101 8.23134 4.02049C9.62304 4.01997 10.958 4.57204 11.9428 5.55538L14.026 7.67654L16.1191 5.55817C16.6067 5.07065 17.1854 4.68394 17.8224 4.4201C18.4593 4.15626 19.142 4.02046 19.8315 4.02046C20.5209 4.02046 21.2036 4.15626 21.8406 4.4201C22.4775 4.68394 23.0563 5.07065 23.5438 5.55817L23.9217 5.936C24.9048 6.92138 25.4568 8.25647 25.4568 9.64837C25.4567 11.0403 24.9046 12.3753 23.9215 13.3607Z" fill="white"/>
</g>
</svg>
