<svg width="29" height="28" viewBox="0 0 29 28" fill="none" xmlns="http://www.w3.org/2000/svg">
<g id="clarity:lock-line">
<g id="Group 200">
<path id="Vector" d="M14.5437 15.7266C14.1848 15.7293 13.8371 15.8521 13.5561 16.0755C13.2751 16.2988 13.0771 16.6098 12.9934 16.9589C12.9098 17.3079 12.9455 17.675 13.0948 18.0014C13.244 18.3278 13.4983 18.5948 13.8171 18.7599V20.6666H15.1504V18.8199C15.4946 18.6788 15.7792 18.4227 15.9556 18.0952C16.1321 17.7677 16.1894 17.3891 16.1178 17.024C16.0462 16.659 15.8501 16.3301 15.5631 16.0935C15.276 15.8568 14.9157 15.7272 14.5437 15.7266Z" fill="#646464"/>
<path id="Vector_2" d="M19.8171 11.9999V9.14658C19.8457 7.70117 19.3006 6.30327 18.3011 5.25877C17.3016 4.21427 15.929 3.60822 14.4837 3.57324C13.0385 3.60822 11.6659 4.21427 10.6664 5.25877C9.66684 6.30327 9.12176 7.70117 9.15039 9.14658V11.9999H7.15039V23.3332C7.15039 23.6869 7.29087 24.026 7.54091 24.2761C7.79096 24.5261 8.1301 24.6666 8.48372 24.6666H20.4837C20.8373 24.6666 21.1765 24.5261 21.4265 24.2761C21.6766 24.026 21.8171 23.6869 21.8171 23.3332V11.9999H19.8171ZM10.4837 9.14658C10.455 8.05473 10.8596 6.9959 11.6091 6.20143C12.3586 5.40695 13.3921 4.94143 14.4837 4.90658C15.5754 4.94143 16.6089 5.40695 17.3584 6.20143C18.1079 6.9959 18.5125 8.05473 18.4837 9.14658V11.9999H10.4837V9.14658ZM8.48372 23.3332V13.3332H20.4837V23.3332H8.48372Z" fill="#646464"/>
</g>
</g>
</svg>
