<svg width="20" height="21" viewBox="0 0 20 21" fill="none" xmlns="http://www.w3.org/2000/svg">
<g id="Check">
<path id="Vector" d="M9.07282 14.9977L15.9255 8.14498C16.0669 8.00362 16.1376 7.8362 16.1376 7.64275C16.1376 7.4493 16.0669 7.28189 15.9255 7.14052L14.7871 6.00213C14.6457 5.86076 14.4783 5.79007 14.2849 5.79007C14.0914 5.79007 13.924 5.86076 13.7826 6.00213L8.57059 11.2142L6.21568 8.85927C6.07431 8.7179 5.9069 8.64722 5.71345 8.64722C5.52 8.64722 5.35259 8.7179 5.21122 8.85927L4.07282 9.99766C3.93145 10.139 3.86077 10.3064 3.86077 10.4999C3.86077 10.6933 3.93145 10.8608 4.07282 11.0021L8.06836 14.9977C8.20973 15.139 8.37714 15.2097 8.57059 15.2097C8.76404 15.2097 8.93145 15.139 9.07282 14.9977ZM18.5706 5.14275V15.857C18.5706 16.7425 18.2562 17.4995 17.6275 18.1282C16.9988 18.757 16.2417 19.0713 15.3563 19.0713H4.64202C3.7566 19.0713 2.99953 18.757 2.37081 18.1282C1.74209 17.4995 1.42773 16.7425 1.42773 15.857V5.14275C1.42773 4.25734 1.74209 3.50027 2.37081 2.87155C2.99953 2.24283 3.7566 1.92847 4.64202 1.92847H15.3563C16.2417 1.92847 16.9988 2.24283 17.6275 2.87155C18.2562 3.50027 18.5706 4.25734 18.5706 5.14275Z" fill="#85C316"/>
</g>
</svg>
