<svg width="19" height="23" viewBox="0 0 19 23" fill="none" xmlns="http://www.w3.org/2000/svg">
<path id="Vector" d="M16.15 13.3333C16.9059 13.3333 17.6308 13.6231 18.1653 14.1388C18.6997 14.6545 19 15.354 19 16.0833V16.7388C19 20.0177 15.0005 22.5 9.5 22.5C3.9995 22.5 0 20.1469 0 16.7388V16.0833C0 15.354 0.300267 14.6545 0.834746 14.1388C1.36922 13.6231 2.09413 13.3333 2.85 13.3333H16.15ZM16.15 14.7083H2.85C2.49591 14.7083 2.1545 14.8355 1.8923 15.0651C1.63009 15.2948 1.46588 15.6104 1.43165 15.9504L1.425 16.0833V16.7388C1.425 19.1899 4.64455 21.125 9.5 21.125C14.1797 21.125 17.4373 19.1954 17.5703 16.8863L17.575 16.7388V16.0833C17.575 15.7417 17.4432 15.4122 17.2052 15.1592C16.9672 14.9062 16.6402 14.7478 16.2878 14.7148L16.15 14.7083ZM9.5 0.5C10.2485 0.5 10.9897 0.642262 11.6813 0.918662C12.3729 1.19506 13.0012 1.60019 13.5305 2.11091C14.0598 2.62163 14.4797 3.22795 14.7661 3.89524C15.0526 4.56253 15.2 5.27773 15.2 6C15.2 6.72227 15.0526 7.43747 14.7661 8.10476C14.4797 8.77205 14.0598 9.37836 13.5305 9.88909C13.0012 10.3998 12.3729 10.8049 11.6813 11.0813C10.9897 11.3577 10.2485 11.5 9.5 11.5C7.98827 11.5 6.53845 10.9205 5.46949 9.88909C4.40053 8.85764 3.8 7.45869 3.8 6C3.8 4.54131 4.40053 3.14236 5.46949 2.11091C6.53845 1.07946 7.98827 0.5 9.5 0.5ZM9.5 1.875C8.3662 1.875 7.27884 2.3096 6.47712 3.08318C5.6754 3.85677 5.225 4.90598 5.225 6C5.225 7.09402 5.6754 8.14323 6.47712 8.91681C7.27884 9.6904 8.3662 10.125 9.5 10.125C10.6338 10.125 11.7212 9.6904 12.5229 8.91681C13.3246 8.14323 13.775 7.09402 13.775 6C13.775 4.90598 13.3246 3.85677 12.5229 3.08318C11.7212 2.3096 10.6338 1.875 9.5 1.875Z" fill="#FE5A13"/>
</svg>
