<svg width="397" height="401" viewBox="0 0 397 401" fill="none" xmlns="http://www.w3.org/2000/svg">
<path fill-rule="evenodd" clip-rule="evenodd" d="M29.1245 14.8993C57.2399 -4.95591 106.309 -4.46996 131.496 15.9161C151.117 31.7958 160.404 51.577 159.311 75.1726L158.353 95.8506L258.085 162.18C312.939 198.659 359.042 227.939 360.536 227.241C362.033 226.545 365.677 216.948 368.639 205.913C376.528 176.495 402.692 137.666 428.67 116.811C451.958 98.1187 487.097 84.5335 512.811 84.2836C522.573 84.1884 539.854 87.3731 551.216 91.3594C570.633 98.1737 572.263 98.1323 578.34 90.6966C582.515 85.5947 584.61 78.4908 584.253 70.6725C583.514 54.6284 589.994 50.2976 602.404 58.5366C621.093 70.9448 638.875 116.659 635.749 144.262C634.797 152.66 636.814 156.044 649.044 166.589C667.078 182.144 673.517 193.627 671.951 207.453C670.321 221.841 663.566 230.912 643.3 245.933C628.052 257.231 624.735 258.225 609.347 256.108L592.29 253.765L577.969 275.336C570.09 287.202 560.367 300.213 556.363 304.249C549.796 310.864 549.732 312.27 555.703 318.521C568.764 332.194 570.09 334.487 572.756 348.024C576.771 368.412 561.482 388.252 541.197 388.977C537.2 389.12 529.183 392.118 523.384 395.636C511.25 402.999 496.791 401.747 475.385 391.484C467.209 387.568 452.823 384.006 443.413 383.571C427.785 382.854 423.829 381.141 397.747 363.825C372.074 346.78 368.158 343.076 358.936 327.132L348.68 309.399L233.312 233.835L117.944 158.272L101.349 171.959C51.9157 212.721 5.34354 188.083 12.9844 125.217C14.1496 115.636 13.2612 106.575 11.0094 105.08C8.75752 103.585 4.89755 93.9478 2.43496 83.6636C-4.34547 55.3548 4.64522 32.1872 29.1245 14.8993ZM7.69609 63.3218C6.21185 75.1361 8.91979 85.0095 18.0951 101.218C23.6012 110.944 24.5381 116.709 21.7217 123.548C13.302 143.996 24.5746 174.805 43.3391 182.638C54.765 187.407 78.2118 180.686 94.3393 168.022C113.96 152.616 144.034 112.478 148.827 95.3071C157.374 64.6754 147.841 37.6612 122.56 20.8761C77.3548 -9.13692 13.8628 14.3259 7.69609 63.3218ZM32.0674 79.4947C34.8686 81.3545 35.007 84.038 32.4394 86.6658C27.4919 91.7216 22.9071 88.1514 25.6379 81.3706C26.7758 78.5413 29.4539 77.7595 32.0674 79.4947ZM53.3088 48.6461C58.7375 47.5222 63.4759 52.8442 60.7301 56.9799C59.2259 59.2455 56.2329 59.9291 54.0763 58.4972C49.5318 55.48 49.0685 49.5264 53.3088 48.6461ZM65.7202 150.026C79.6124 145.662 90.93 132.558 94.3593 116.864C97.0858 104.383 99.8112 100.732 104.214 103.655C107.94 106.129 102.816 123.432 94.7698 135.55C86.7384 147.647 69.0752 161.072 61.4751 160.858C53.6925 160.64 56.7456 152.843 65.7202 150.026ZM240.769 229.928L357.209 307.235L366.543 323.854C390.607 366.701 445.511 387.595 479.632 366.892C488.505 361.507 492.169 361.229 498.535 365.456C502.878 368.339 513.487 373.46 522.111 376.831C560.915 392.01 580.044 359.008 551.875 325.48L540.192 311.578L549.659 300.269C554.865 294.051 565.689 279.076 573.711 266.993C581.733 254.91 590.502 240.375 593.196 234.694C598.032 224.495 598.333 224.426 616.436 229.2C648.811 237.738 667.584 225.705 663.22 199.215C661.558 189.118 658.559 185.366 637.274 166.759C626.751 157.561 625.644 154.943 627.104 142.67C630.006 118.245 614.65 74.9483 599.392 64.5371C593.643 60.6134 588.995 66.6635 591.428 74.9024C593.836 83.0568 586.048 100.435 578.036 104.782C573.773 107.095 567.086 106.256 558.697 102.348C530.668 89.2939 487.1 90.2485 461.755 104.473C453.461 109.127 452.82 110.383 454.237 119.213C456.571 133.764 445.607 148.207 430.041 151.084C423.153 152.358 415.441 152.022 412.904 150.337C409.004 147.748 406.305 150.273 395.376 166.733C382.903 185.519 382.591 186.705 386.327 201.019C390.186 215.816 385.044 231.128 376.296 230.883C374.18 230.824 370.858 233.172 368.91 236.105C365.468 241.29 362.502 239.53 261.11 172.213L156.846 102.989L140.589 127.805L124.329 152.62L240.769 229.928ZM414.293 143.346C415.587 144.206 421.572 144.487 427.591 143.973C440.027 142.912 449.879 131.414 446.925 121.41C444.616 113.597 444.366 113.673 428.322 126.943C412.27 140.219 411.296 141.356 414.293 143.346ZM370.664 224.292C371.589 229.001 381.325 219.076 381.486 213.256C381.815 201.442 377.102 200.418 373.55 211.529C371.711 217.279 370.414 223.022 370.664 224.292ZM412.955 170.946C421.636 169.149 430.785 177.07 428.63 184.518C424.334 199.376 409.119 203.063 402.608 190.827C398.846 183.763 404.619 172.672 412.955 170.946ZM410.298 188.174C415.038 191.321 421.175 188.906 421.361 183.823C421.549 178.682 412.011 177.089 408.919 181.746C407.522 183.85 408.142 186.742 410.298 188.174ZM403.096 224.541C412.379 220.611 422.423 224.114 425.625 232.393C432.723 250.74 405.778 263.012 395.373 246.172C390.751 238.692 394.505 228.179 403.096 224.541ZM486.141 118.116C496.039 116.576 502.74 122.133 502.47 131.659C502.068 145.727 479.148 146.047 475.011 132.04C472.639 124.016 476.108 119.676 486.141 118.116ZM405.858 243.847C414.892 248.441 424.01 242.221 418.886 234.965C415.12 229.632 404.227 230.127 400.458 235.803C398.664 238.505 400.381 241.066 405.858 243.847ZM464.341 161.037C478.095 159.862 486.942 165.581 488.562 176.698C492.332 202.589 457.083 210.761 444.399 186.936C439.157 177.085 450.609 162.207 464.341 161.037ZM485.059 134.937C490.321 138.431 496.625 134.849 495.476 129.014C494.795 125.555 492.641 124.354 488.033 124.868C480.847 125.671 479.247 131.078 485.059 134.937ZM453.441 186.525C457.424 195.434 473.285 196.935 478.616 188.905C486.806 176.569 479.333 165.262 464.511 167.568C454.96 169.052 449.676 178.103 453.441 186.525ZM477.311 383.018C485.663 388.563 508.564 393.298 513.658 390.536C519.689 387.26 519.255 386.698 505.68 380.226C497.783 376.463 488.494 374.323 485.033 375.476C478.451 377.665 474.73 381.304 477.311 383.018ZM604.792 246.084C610.47 249.854 630.038 248.982 629.26 244.995C628.992 243.61 623.314 240.877 616.642 238.917C604.014 235.209 595.849 240.147 604.792 246.084Z" fill="#161616"/>
<path fill-rule="evenodd" clip-rule="evenodd" d="M240.769 229.928L357.209 307.235L366.543 323.854C390.607 366.701 445.511 387.595 479.632 366.892C488.505 361.507 492.169 361.229 498.535 365.456C502.878 368.339 513.487 373.46 522.111 376.831C560.915 392.01 580.044 359.008 551.875 325.48L540.192 311.578L549.659 300.269C554.865 294.051 565.689 279.076 573.711 266.993C581.733 254.91 590.502 240.375 593.196 234.694C598.032 224.495 598.333 224.426 616.436 229.2C648.811 237.738 667.584 225.705 663.22 199.215C661.558 189.118 658.559 185.366 637.274 166.759C626.751 157.561 625.644 154.943 627.104 142.67C630.006 118.245 614.65 74.9483 599.392 64.5371C593.643 60.6134 588.995 66.6635 591.428 74.9024C593.836 83.0568 586.048 100.435 578.036 104.782C573.773 107.095 567.086 106.256 558.697 102.348C530.668 89.2939 487.1 90.2485 461.755 104.473C453.461 109.127 452.82 110.383 454.237 119.213C456.571 133.764 445.607 148.207 430.041 151.084C423.153 152.358 415.441 152.022 412.904 150.337C409.004 147.748 406.305 150.273 395.376 166.733C382.903 185.519 382.591 186.705 386.327 201.019C390.186 215.816 385.044 231.128 376.296 230.883C374.18 230.824 370.858 233.172 368.91 236.105C365.468 241.29 362.502 239.53 261.11 172.213L156.846 102.989L140.589 127.805L124.329 152.62L240.769 229.928ZM428.63 184.518C430.785 177.07 421.636 169.149 412.955 170.946C404.619 172.672 398.846 183.763 402.608 190.827C409.119 203.063 424.334 199.376 428.63 184.518ZM425.625 232.393C422.423 224.114 412.379 220.611 403.096 224.541C394.505 228.179 390.751 238.692 395.373 246.172C405.778 263.012 432.723 250.74 425.625 232.393ZM502.47 131.659C502.74 122.133 496.039 116.576 486.141 118.116C476.108 119.676 472.639 124.016 475.011 132.04C479.148 146.047 502.068 145.727 502.47 131.659ZM488.562 176.698C486.942 165.581 478.095 159.862 464.341 161.037C450.609 162.207 439.157 177.085 444.399 186.936C457.083 210.761 492.332 202.589 488.562 176.698Z" fill="#D2FF71"/>
<path fill-rule="evenodd" clip-rule="evenodd" d="M7.69609 63.3218C6.21185 75.1361 8.91979 85.0095 18.0951 101.218C23.6012 110.944 24.5381 116.709 21.7217 123.548C13.302 143.996 24.5746 174.805 43.3391 182.638C54.765 187.407 78.2118 180.686 94.3393 168.022C113.96 152.616 144.034 112.478 148.827 95.3071C157.374 64.6754 147.841 37.6612 122.56 20.8761C77.3548 -9.13692 13.8628 14.3259 7.69609 63.3218ZM32.4394 86.6658C35.007 84.038 34.8686 81.3545 32.0674 79.4947C29.4539 77.7595 26.7758 78.5413 25.6379 81.3706C22.9071 88.1514 27.4919 91.7216 32.4394 86.6658ZM60.7301 56.9799C63.4759 52.8442 58.7375 47.5222 53.3088 48.6461C49.0685 49.5264 49.5318 55.48 54.0763 58.4972C56.2329 59.9291 59.2259 59.2455 60.7301 56.9799ZM94.3593 116.864C90.93 132.558 79.6124 145.662 65.7202 150.026C56.7456 152.843 53.6925 160.64 61.4751 160.858C69.0752 161.072 86.7384 147.647 94.7698 135.55C102.816 123.432 107.94 106.129 104.214 103.655C99.8112 100.732 97.0858 104.383 94.3593 116.864Z" fill="#D2FF71"/>
<path d="M453.441 186.525C457.424 195.434 473.285 196.935 478.616 188.905C486.806 176.569 479.333 165.262 464.511 167.568C454.96 169.052 449.676 178.103 453.441 186.525Z" fill="#FE5A13"/>
<path d="M414.293 143.346C415.587 144.206 421.572 144.487 427.591 143.973C440.027 142.912 449.879 131.414 446.925 121.41C444.616 113.597 444.366 113.673 428.322 126.943C412.27 140.219 411.296 141.356 414.293 143.346Z" fill="#FE5A13"/>
<path d="M485.059 134.937C490.321 138.431 496.625 134.849 495.476 129.014C494.795 125.555 492.641 124.354 488.033 124.868C480.847 125.671 479.247 131.078 485.059 134.937Z" fill="#FE5A13"/>
<path d="M405.858 243.847C414.892 248.441 424.01 242.221 418.886 234.965C415.12 229.632 404.227 230.127 400.458 235.803C398.664 238.505 400.381 241.066 405.858 243.847Z" fill="#FE5A13"/>
<path d="M410.298 188.174C415.038 191.321 421.175 188.906 421.361 183.823C421.549 178.682 412.011 177.089 408.919 181.746C407.522 183.85 408.142 186.742 410.298 188.174Z" fill="#FE5A13"/>
<path d="M370.664 224.292C371.589 229.001 381.325 219.076 381.486 213.256C381.815 201.442 377.102 200.418 373.55 211.529C371.711 217.279 370.414 223.022 370.664 224.292Z" fill="#FE5A13"/>
<path d="M477.311 383.018C485.663 388.563 508.564 393.298 513.658 390.536C519.689 387.26 519.255 386.698 505.68 380.226C497.783 376.463 488.494 374.323 485.033 375.476C478.451 377.665 474.73 381.304 477.311 383.018Z" fill="#D2FF71"/>
<path d="M604.792 246.084C610.47 249.854 630.038 248.982 629.26 244.995C628.992 243.61 623.314 240.877 616.642 238.917C604.014 235.209 595.849 240.147 604.792 246.084Z" fill="#D2FF71"/>
</svg>
