<svg width="368" height="565" viewBox="0 0 368 565" fill="none" xmlns="http://www.w3.org/2000/svg">
<path fill-rule="evenodd" clip-rule="evenodd" d="M122.604 4.72129C150.657 15.4929 174.027 51.1205 171.359 79.0516C169.281 100.81 159.367 116.983 141.655 127.494L126.134 136.706L126.05 240.411C126.007 297.449 126.975 344.727 128.205 345.471C129.436 346.217 138.186 344.25 147.654 341.101C172.892 332.704 213.818 332.981 241.565 341.731C266.437 349.578 293.319 368.419 305.934 386.847C310.722 393.843 316.759 407.834 319.349 417.939C323.775 435.208 324.593 436.364 332.946 437.187C338.68 437.755 344.866 435.864 350.387 431.862C361.713 423.645 368 426.246 368 439.143C368 458.566 343.307 493.286 321.694 504.25C315.119 507.585 313.63 510.661 311.863 524.533C309.256 544.991 304.006 555.135 293.181 560.627C281.915 566.342 272.044 565.813 251.307 558.388C235.707 552.8 233.379 550.884 227.481 538.77L220.941 525.344H198.308C185.858 525.344 171.682 524.561 166.806 523.606C158.814 522.037 157.759 522.665 156.094 529.965C152.452 545.935 151.423 547.99 142.854 556.396C129.949 569.055 108.108 567.529 97.773 553.244C95.7359 550.429 89.6765 546.082 84.3115 543.583C73.083 538.357 67.0034 527.328 64.1279 506.972C63.0272 499.199 58.6649 487.116 54.4322 480.121C47.3989 468.504 46.7333 464.829 46.7333 437.724C46.7333 411.042 47.5373 406.443 54.6887 392.156L62.644 376.265L61.892 256.858L61.1399 137.452L43.149 132.036C-10.4348 115.9 -15.0103 70.5071 34.4647 45.9113C42.0051 42.1634 48.174 37.1832 48.174 34.8429C48.174 32.5026 53.3258 25.1029 59.6243 18.4013C76.9612 -0.0469603 98.1792 -4.65691 122.604 4.72129ZM76.9814 12.4545C67.6603 17.0418 61.7796 23.7236 54.412 38.1046C49.9921 46.7338 46.2464 50.1708 39.9046 51.4144C20.9427 55.1341 3.95734 78.0199 7.32559 95.3065C9.37708 105.832 25.6075 119.526 42.6275 125.095C63.3326 131.87 107.103 134.34 121.924 129.575C148.363 121.07 163.427 101.256 163.427 74.9814C163.427 28 115.643 -6.56196 76.9814 12.4545ZM76.9872 37.7796C76.9872 40.6908 75.0999 42.0758 71.9449 41.4822C65.871 40.3347 66.2543 35.3177 72.5125 34.0402C75.123 33.506 76.9872 35.0633 76.9872 37.7796ZM109.722 38.3279C113.165 41.7055 111.58 47.6722 107.241 47.6722C104.864 47.6722 102.919 45.8406 102.919 43.5993C102.919 38.8763 107.031 35.6908 109.722 38.3279ZM41.8956 95.8322C51.7901 103.763 66.8046 105.651 79.8915 100.609C90.2988 96.5982 94.2751 96.8158 94.2751 101.392C94.2751 105.264 79.1971 109.854 66.4819 109.854C53.7897 109.854 35.4732 103.543 31.9551 97.9577C28.3506 92.2398 35.5049 90.7079 41.8956 95.8322ZM68.3432 260.366V381.381L60.7538 396.073C41.1868 433.95 52.5161 483.56 84.0896 498.258C92.3013 502.079 94.2751 504.589 94.2751 511.206C94.2751 515.72 95.6754 525.824 97.3897 533.659C105.097 568.919 138.379 566.913 149.176 530.536L153.65 515.451L166.464 516.865C173.508 517.642 189.647 518.278 202.324 518.278C215.002 518.278 229.827 517.642 235.266 516.865C245.031 515.468 245.227 515.652 250.503 530.997C259.939 558.439 277.777 566.217 294.959 550.384C301.508 544.349 302.79 540.389 306.049 516.124C307.66 504.129 309.031 502.077 318.675 497.252C337.864 487.648 361.969 455.836 362.174 439.844C362.252 433.818 355.599 433.362 350.776 439.063C346.001 444.705 329.581 447.41 322.541 443.713C318.796 441.746 316.174 436.52 314.964 428.597C310.918 402.127 289.159 371.158 266.546 359.688C259.147 355.934 257.922 356.073 252.177 361.324C242.709 369.976 226.89 368.984 217.27 359.134C213.011 354.776 209.528 349.052 209.528 346.415C209.528 342.362 206.384 341.624 189.114 341.624C169.402 341.624 168.388 341.966 159.77 351.517C150.861 361.387 137.224 365.01 133.173 358.583C132.193 357.028 128.877 355.756 125.799 355.756C120.36 355.756 120.207 352.774 120.207 247.398V139.037L94.2751 139.196L68.3432 139.351V260.366ZM215.29 344.069C215.29 345.414 217.979 349.866 221.263 353.962C228.049 362.424 241.185 364.024 247.042 357.102C251.615 351.695 251.439 351.551 234.019 346.333C216.59 341.112 215.29 340.954 215.29 344.069ZM135.25 351.364C132.268 354.287 144.202 356.556 148.519 353.885C157.281 348.464 155.748 344.575 145.94 347.333C140.863 348.761 136.054 350.576 135.25 351.364ZM194.545 356.322C200.051 361.723 198.705 372.116 192.24 374.128C179.343 378.145 169.302 368.936 175.064 358.379C178.389 352.283 189.258 351.135 194.545 356.322ZM180.715 362.656C180.715 367.582 185.44 370.853 189.232 368.552C193.067 366.226 189.615 358.583 184.728 358.583C182.521 358.583 180.715 360.414 180.715 362.656ZM150.749 374.877C158.099 379.691 160.404 388.614 155.924 394.889C145.995 408.795 124.03 395.236 131.263 379.665C134.475 372.749 143.946 370.423 150.749 374.877ZM268.402 383.812C274.308 390.214 273.502 397.71 266.434 402.076C255.995 408.524 244.68 392.144 252.88 382.452C257.576 376.898 262.414 377.322 268.402 383.812ZM138.025 386.115C139.048 394.832 147.986 398.43 150.792 391.26C152.855 385.988 147.228 378.368 141.272 378.368C138.437 378.368 137.403 380.833 138.025 386.115ZM226.605 388.642C234.111 398.001 234.223 407.122 226.911 413.614C209.879 428.733 186.886 407.221 198.103 386.661C202.742 378.162 219.114 379.298 226.605 388.642ZM255.629 391.087C255.629 396.556 261.285 399.388 264.979 395.765C267.168 393.617 267.001 391.489 264.399 388.411C260.34 383.611 255.629 385.047 255.629 391.087ZM202.774 392.987C198.213 400.126 204.788 412.286 213.213 412.286C226.156 412.286 230.777 401.48 221.932 391.893C216.232 385.714 207.087 386.237 202.774 392.987ZM71.2245 504.307C71.2245 512.987 78.8485 531.774 83.3232 534.126C88.6248 536.907 88.8236 536.325 86.9738 523.433C85.8962 515.935 82.963 508.21 80.4505 506.265C75.6733 502.566 71.2245 501.624 71.2245 504.307ZM232.578 530.683C232.578 536.585 242.674 550.282 245.201 547.812C246.08 546.955 245.325 541.551 243.527 535.799C240.121 524.914 232.578 521.39 232.578 530.683Z" fill="#161616"/>
<path fill-rule="evenodd" clip-rule="evenodd" d="M68.3432 260.366V381.381L60.7538 396.073C41.1868 433.95 52.5161 483.56 84.0896 498.258C92.3013 502.079 94.2751 504.589 94.2751 511.206C94.2751 515.72 95.6754 525.824 97.3897 533.659C105.097 568.919 138.379 566.913 149.176 530.536L153.65 515.451L166.464 516.865C173.508 517.642 189.647 518.278 202.324 518.278C215.002 518.278 229.827 517.642 235.266 516.865C245.031 515.468 245.227 515.652 250.503 530.997C259.939 558.439 277.777 566.217 294.959 550.384C301.508 544.349 302.79 540.389 306.049 516.124C307.66 504.129 309.031 502.077 318.675 497.252C337.864 487.648 361.969 455.836 362.174 439.844C362.252 433.818 355.599 433.362 350.776 439.063C346.001 444.705 329.581 447.41 322.541 443.713C318.796 441.746 316.174 436.52 314.964 428.597C310.918 402.127 289.159 371.158 266.546 359.688C259.147 355.934 257.922 356.073 252.177 361.324C242.709 369.976 226.89 368.984 217.27 359.134C213.011 354.776 209.528 349.052 209.528 346.415C209.528 342.362 206.384 341.624 189.114 341.624C169.402 341.624 168.388 341.966 159.77 351.517C150.861 361.387 137.224 365.01 133.173 358.583C132.193 357.028 128.877 355.756 125.799 355.756C120.36 355.756 120.207 352.774 120.207 247.398V139.037L94.2751 139.196L68.3432 139.351V260.366ZM192.24 374.128C198.705 372.116 200.051 361.723 194.545 356.322C189.258 351.135 178.389 352.283 175.064 358.379C169.302 368.936 179.343 378.145 192.24 374.128ZM155.924 394.889C160.404 388.614 158.099 379.691 150.749 374.877C143.946 370.423 134.475 372.749 131.263 379.665C124.03 395.236 145.995 408.795 155.924 394.889ZM266.434 402.076C273.502 397.71 274.308 390.214 268.402 383.812C262.414 377.322 257.576 376.898 252.88 382.452C244.68 392.144 255.995 408.524 266.434 402.076ZM226.911 413.614C234.223 407.122 234.111 398.001 226.605 388.642C219.114 379.298 202.742 378.162 198.103 386.661C186.886 407.221 209.879 428.733 226.911 413.614Z" fill="#D2FF71"/>
<path fill-rule="evenodd" clip-rule="evenodd" d="M76.9814 12.4545C67.6603 17.0418 61.7796 23.7236 54.412 38.1046C49.9921 46.7338 46.2464 50.1708 39.9046 51.4144C20.9427 55.1341 3.95734 78.0199 7.32559 95.3065C9.37708 105.832 25.6075 119.526 42.6275 125.095C63.3326 131.87 107.103 134.34 121.924 129.575C148.363 121.07 163.427 101.256 163.427 74.9814C163.427 28 115.643 -6.56196 76.9814 12.4545ZM71.9449 41.4822C75.0999 42.0758 76.9872 40.6908 76.9872 37.7796C76.9872 35.0633 75.123 33.506 72.5125 34.0402C66.2543 35.3177 65.871 40.3347 71.9449 41.4822ZM107.241 47.6722C111.58 47.6722 113.165 41.7055 109.722 38.3279C107.031 35.6908 102.919 38.8763 102.919 43.5993C102.919 45.8406 104.864 47.6722 107.241 47.6722ZM79.8915 100.609C66.8046 105.651 51.7901 103.763 41.8956 95.8322C35.5049 90.7079 28.3506 92.2398 31.9551 97.9577C35.4732 103.543 53.7897 109.854 66.4819 109.854C79.1971 109.854 94.2751 105.264 94.2751 101.392C94.2751 96.8158 90.2988 96.5982 79.8915 100.609Z" fill="#D2FF71"/>
<path d="M202.774 392.987C198.213 400.126 204.788 412.286 213.213 412.286C226.156 412.286 230.777 401.48 221.932 391.893C216.232 385.714 207.087 386.237 202.774 392.987Z" fill="#FE5A13"/>
<path d="M215.29 344.069C215.29 345.414 217.979 349.866 221.263 353.962C228.049 362.424 241.185 364.024 247.042 357.102C251.615 351.695 251.439 351.551 234.019 346.333C216.59 341.112 215.29 340.954 215.29 344.069Z" fill="#FE5A13"/>
<path d="M255.629 391.087C255.629 396.556 261.285 399.388 264.979 395.765C267.168 393.617 267.001 391.489 264.399 388.411C260.34 383.611 255.629 385.047 255.629 391.087Z" fill="#FE5A13"/>
<path d="M138.025 386.115C139.048 394.832 147.986 398.43 150.792 391.26C152.855 385.988 147.228 378.368 141.272 378.368C138.437 378.368 137.403 380.833 138.025 386.115Z" fill="#FE5A13"/>
<path d="M180.715 362.656C180.715 367.582 185.44 370.853 189.232 368.552C193.067 366.226 189.615 358.583 184.728 358.583C182.521 358.583 180.715 360.414 180.715 362.656Z" fill="#FE5A13"/>
<path d="M135.25 351.364C132.268 354.287 144.202 356.556 148.519 353.885C157.281 348.464 155.748 344.575 145.94 347.333C140.863 348.761 136.054 350.576 135.25 351.364Z" fill="#FE5A13"/>
<path d="M71.2245 504.307C71.2245 512.987 78.8485 531.774 83.3232 534.126C88.6248 536.907 88.8236 536.325 86.9738 523.433C85.8962 515.935 82.963 508.21 80.4505 506.265C75.6733 502.566 71.2245 501.624 71.2245 504.307Z" fill="#D2FF71"/>
<path d="M232.578 530.683C232.578 536.585 242.674 550.282 245.201 547.812C246.08 546.955 245.325 541.551 243.527 535.799C240.121 524.914 232.578 521.39 232.578 530.683Z" fill="#D2FF71"/>
</svg>
