<svg width="140" height="217" viewBox="0 0 140 217" fill="none" xmlns="http://www.w3.org/2000/svg">
<g id="telegram-cloud-document-2-5197645344309001032 1 (Traced)">
<path fill-rule="evenodd" clip-rule="evenodd" d="M46.6429 1.81331C57.315 5.95038 66.2059 19.6339 65.1909 30.3614C64.4006 38.718 60.6287 44.9296 53.8906 48.9668L47.9857 52.5047L47.9539 92.335C47.9374 114.242 48.3057 132.4 48.7738 132.685C49.2419 132.972 52.5709 132.216 56.1728 131.007C65.774 127.782 81.3438 127.888 91.8997 131.249C101.362 134.263 111.589 141.499 116.388 148.577C118.21 151.264 120.506 156.637 121.491 160.518C123.175 167.151 123.486 167.595 126.664 167.911C128.846 168.129 131.199 167.403 133.299 165.865C137.608 162.71 140 163.708 140 168.662C140 176.122 130.606 189.457 122.384 193.668C119.882 194.949 119.316 196.13 118.644 201.458C117.652 209.315 115.654 213.211 111.536 215.32C107.25 217.515 103.495 217.312 95.6058 214.461C89.6713 212.314 88.7856 211.578 86.5417 206.926L84.0535 201.769H75.4432C70.7067 201.769 65.3137 201.469 63.459 201.102C60.4182 200.499 60.017 200.74 59.3835 203.544C57.9979 209.678 57.6066 210.467 54.3466 213.695C49.437 218.557 41.1281 217.971 37.1962 212.485C36.4213 211.404 34.1161 209.734 32.075 208.774C27.8033 206.767 25.4904 202.531 24.3965 194.713C23.9777 191.728 22.3182 187.087 20.7079 184.4C18.0322 179.939 17.779 178.527 17.779 168.117C17.779 157.869 18.0848 156.103 20.8055 150.615L23.832 144.512L23.5459 98.6518L23.2598 52.7913L16.4154 50.7113C-3.96977 44.5139 -5.71045 27.0797 13.1116 17.6332C15.9802 16.1937 18.3271 14.281 18.3271 13.3821C18.3271 12.4833 20.287 9.64128 22.6832 7.06742C29.2787 -0.0180361 37.3508 -1.78858 46.6429 1.81331ZM29.2864 4.7834C25.7403 6.54526 23.5031 9.11154 20.7002 14.6349C19.0187 17.9491 17.5938 19.2691 15.1811 19.7468C7.96735 21.1754 1.50551 29.9652 2.78691 36.6044C3.56738 40.6471 9.742 45.9066 16.217 48.0452C24.0939 50.6473 40.7456 51.5961 46.3842 49.7658C56.4425 46.4993 62.1732 38.8896 62.1732 28.7982C62.1732 10.754 43.9946 -2.52026 29.2864 4.7834ZM29.2886 14.51C29.2886 15.6282 28.5706 16.1601 27.3703 15.9321C25.0596 15.4914 25.2054 13.5645 27.5863 13.0738C28.5794 12.8687 29.2886 13.4668 29.2886 14.51ZM41.742 14.7206C43.0519 16.0179 42.449 18.3095 40.7982 18.3095C39.8939 18.3095 39.154 17.6061 39.154 16.7452C39.154 14.9312 40.7182 13.7078 41.742 14.7206ZM15.9386 36.8064C19.7028 39.8524 25.4148 40.5776 30.3935 38.641C34.3528 37.1006 35.8655 37.1841 35.8655 38.9417C35.8655 40.4289 30.1293 42.1918 25.292 42.1918C20.4635 42.1918 13.4952 39.7678 12.1568 37.6227C10.7855 35.4266 13.5073 34.8382 15.9386 36.8064ZM26.0001 99.999V146.477L23.1129 152.12C15.6689 166.668 19.979 185.721 31.9906 191.366C35.1146 192.834 35.8655 193.798 35.8655 196.339C35.8655 198.073 36.3982 201.954 37.0504 204.963C39.9827 218.505 52.6443 217.735 56.7516 203.763L58.4539 197.97L63.3285 198.513C66.0086 198.811 72.1482 199.055 76.9712 199.055C81.7943 199.055 87.434 198.811 89.5035 198.513C93.2184 197.976 93.2929 198.047 95.3 203.94C98.8899 214.48 105.676 217.468 112.213 211.386C114.704 209.069 115.192 207.548 116.432 198.228C117.044 193.621 117.566 192.833 121.235 190.98C128.535 187.291 137.706 175.073 137.784 168.931C137.813 166.617 135.282 166.442 133.447 168.631C131.631 170.798 125.384 171.837 122.706 170.417C121.281 169.662 120.284 167.654 119.823 164.612C118.284 154.445 110.006 142.551 101.403 138.146C98.5885 136.704 98.1226 136.757 95.9369 138.774C92.3349 142.097 86.317 141.716 82.657 137.933C81.0369 136.259 79.7116 134.061 79.7116 133.048C79.7116 131.491 78.5157 131.208 71.9454 131.208C64.4466 131.208 64.0608 131.339 60.7822 135.007C57.3929 138.798 52.2048 140.19 50.6636 137.721C50.2909 137.124 49.0292 136.636 47.8585 136.636C45.789 136.636 45.7309 135.49 45.7309 95.0185V53.4002L35.8655 53.461L26.0001 53.5207V99.999ZM81.9039 132.147C81.9039 132.664 82.9266 134.373 84.1762 135.946C86.7577 139.196 91.755 139.811 93.9835 137.152C95.7231 135.076 95.6562 135.02 89.0289 133.016C82.3983 131.011 81.9039 130.951 81.9039 132.147ZM51.4539 134.949C50.3194 136.071 54.8596 136.943 56.5017 135.917C59.8351 133.835 59.2519 132.341 55.5206 133.401C53.5892 133.949 51.7597 134.646 51.4539 134.949ZM74.0116 136.853C76.1064 138.927 75.5945 142.919 73.1347 143.692C68.2283 145.234 64.4082 141.698 66.6005 137.643C67.8655 135.301 72.0002 134.861 74.0116 136.853ZM68.7501 139.286C68.7501 141.178 70.5478 142.434 71.9903 141.55C73.4493 140.657 72.1361 137.721 70.277 137.721C69.4374 137.721 68.7501 138.425 68.7501 139.286ZM57.3501 143.979C60.1464 145.828 61.0233 149.255 59.3188 151.665C55.5414 157.006 47.1855 151.799 49.9368 145.818C51.159 143.162 54.7621 142.269 57.3501 143.979ZM102.109 147.411C104.356 149.87 104.049 152.749 101.361 154.426C97.3893 156.902 93.0847 150.611 96.2043 146.889C97.9911 144.756 99.8315 144.918 102.109 147.411ZM52.5095 148.296C52.8986 151.644 56.2989 153.025 57.3666 150.271C58.1514 148.247 56.0106 145.32 53.7449 145.32C52.6663 145.32 52.2727 146.267 52.5095 148.296ZM86.2085 149.266C89.064 152.86 89.1067 156.364 86.3247 158.857C79.8453 164.664 71.0981 156.402 75.3654 148.505C77.1302 145.241 83.3585 145.677 86.2085 149.266ZM97.2501 150.205C97.2501 152.306 99.4018 153.393 100.807 152.002C101.64 151.177 101.577 150.359 100.587 149.177C99.0423 147.334 97.2501 147.885 97.2501 150.205ZM77.1422 150.935C75.407 153.677 77.9084 158.347 81.1136 158.347C86.0375 158.347 87.7957 154.197 84.4305 150.515C82.2624 148.141 78.7832 148.342 77.1422 150.935ZM27.0963 193.689C27.0963 197.023 29.9967 204.239 31.699 205.142C33.716 206.21 33.7916 205.987 33.0879 201.035C32.6779 198.155 31.562 195.189 30.6062 194.442C28.7887 193.021 27.0963 192.659 27.0963 193.689ZM88.4808 203.82C88.4808 206.087 92.3217 211.347 93.2831 210.398C93.6174 210.07 93.3302 207.994 92.6462 205.785C91.3506 201.604 88.4808 200.251 88.4808 203.82Z" fill="#161616"/>
<path fill-rule="evenodd" clip-rule="evenodd" d="M26.0001 99.999V146.477L23.1129 152.12C15.6689 166.668 19.979 185.721 31.9906 191.366C35.1146 192.834 35.8655 193.798 35.8655 196.339C35.8655 198.073 36.3982 201.954 37.0504 204.963C39.9827 218.505 52.6443 217.735 56.7516 203.763L58.4539 197.97L63.3285 198.513C66.0086 198.811 72.1482 199.055 76.9712 199.055C81.7943 199.055 87.434 198.811 89.5035 198.513C93.2184 197.976 93.2929 198.047 95.3 203.94C98.8899 214.48 105.676 217.468 112.213 211.386C114.704 209.069 115.192 207.548 116.432 198.228C117.044 193.621 117.566 192.833 121.235 190.98C128.535 187.291 137.706 175.073 137.784 168.931C137.813 166.617 135.282 166.442 133.447 168.631C131.631 170.798 125.384 171.837 122.706 170.417C121.281 169.662 120.284 167.654 119.823 164.612C118.284 154.445 110.006 142.551 101.403 138.146C98.5885 136.704 98.1226 136.757 95.9369 138.774C92.3349 142.097 86.317 141.716 82.657 137.933C81.0369 136.259 79.7116 134.061 79.7116 133.048C79.7116 131.491 78.5157 131.208 71.9454 131.208C64.4466 131.208 64.0608 131.339 60.7822 135.007C57.3929 138.798 52.2048 140.19 50.6636 137.721C50.2909 137.124 49.0292 136.636 47.8585 136.636C45.789 136.636 45.7309 135.49 45.7309 95.0185V53.4002L35.8655 53.461L26.0001 53.5207V99.999ZM73.1347 143.692C75.5945 142.919 76.1064 138.927 74.0116 136.853C72.0002 134.861 67.8655 135.301 66.6005 137.643C64.4082 141.698 68.2283 145.234 73.1347 143.692ZM59.3188 151.665C61.0233 149.255 60.1464 145.828 57.3501 143.979C54.7621 142.269 51.159 143.162 49.9368 145.818C47.1855 151.799 55.5414 157.006 59.3188 151.665ZM101.361 154.426C104.049 152.749 104.356 149.87 102.109 147.411C99.8315 144.918 97.9911 144.756 96.2043 146.889C93.0847 150.611 97.3893 156.902 101.361 154.426ZM86.3247 158.857C89.1067 156.364 89.064 152.86 86.2085 149.266C83.3585 145.677 77.1302 145.241 75.3654 148.505C71.0981 156.402 79.8453 164.664 86.3247 158.857Z" fill="#D2FF71"/>
<path fill-rule="evenodd" clip-rule="evenodd" d="M29.2864 4.7834C25.7403 6.54526 23.5031 9.11154 20.7002 14.6349C19.0187 17.9491 17.5938 19.2691 15.1811 19.7468C7.96735 21.1754 1.50551 29.9652 2.78691 36.6044C3.56738 40.6471 9.742 45.9066 16.217 48.0452C24.0939 50.6473 40.7456 51.5961 46.3842 49.7658C56.4425 46.4993 62.1732 38.8896 62.1732 28.7982C62.1732 10.754 43.9946 -2.52026 29.2864 4.7834ZM27.3703 15.9321C28.5706 16.1601 29.2886 15.6282 29.2886 14.51C29.2886 13.4668 28.5794 12.8687 27.5863 13.0738C25.2054 13.5645 25.0596 15.4914 27.3703 15.9321ZM40.7982 18.3095C42.449 18.3095 43.0519 16.0179 41.742 14.7206C40.7182 13.7078 39.154 14.9312 39.154 16.7452C39.154 17.6061 39.8939 18.3095 40.7982 18.3095ZM30.3935 38.641C25.4148 40.5776 19.7028 39.8524 15.9386 36.8064C13.5073 34.8382 10.7855 35.4266 12.1568 37.6227C13.4952 39.7678 20.4635 42.1918 25.292 42.1918C30.1293 42.1918 35.8655 40.4289 35.8655 38.9417C35.8655 37.1841 34.3528 37.1006 30.3935 38.641Z" fill="#D2FF71"/>
<path d="M77.1422 150.935C75.407 153.677 77.9084 158.347 81.1136 158.347C86.0375 158.347 87.7957 154.197 84.4305 150.515C82.2624 148.141 78.7832 148.342 77.1422 150.935Z" fill="#FE5A13"/>
<path d="M81.9039 132.147C81.9039 132.664 82.9266 134.373 84.1762 135.946C86.7577 139.196 91.755 139.811 93.9835 137.152C95.7231 135.076 95.6562 135.02 89.0289 133.016C82.3983 131.011 81.9039 130.951 81.9039 132.147Z" fill="#FE5A13"/>
<path d="M97.2501 150.205C97.2501 152.306 99.4018 153.393 100.807 152.002C101.64 151.177 101.577 150.359 100.587 149.177C99.0423 147.334 97.2501 147.885 97.2501 150.205Z" fill="#FE5A13"/>
<path d="M52.5095 148.296C52.8986 151.644 56.2989 153.025 57.3666 150.271C58.1514 148.247 56.0106 145.32 53.7449 145.32C52.6663 145.32 52.2727 146.267 52.5095 148.296Z" fill="#FE5A13"/>
<path d="M68.7501 139.286C68.7501 141.178 70.5478 142.434 71.9903 141.55C73.4493 140.657 72.1361 137.721 70.277 137.721C69.4374 137.721 68.7501 138.425 68.7501 139.286Z" fill="#FE5A13"/>
<path d="M51.4539 134.949C50.3194 136.071 54.8596 136.943 56.5017 135.917C59.8351 133.835 59.2519 132.341 55.5206 133.401C53.5892 133.949 51.7597 134.646 51.4539 134.949Z" fill="#FE5A13"/>
<path d="M27.0963 193.689C27.0963 197.023 29.9967 204.239 31.699 205.142C33.716 206.21 33.7916 205.987 33.0879 201.035C32.6779 198.155 31.562 195.189 30.6062 194.442C28.7887 193.021 27.0963 192.659 27.0963 193.689Z" fill="#D2FF71"/>
<path d="M88.4808 203.82C88.4808 206.087 92.3217 211.347 93.2831 210.398C93.6174 210.07 93.3302 207.994 92.6462 205.785C91.3506 201.604 88.4808 200.251 88.4808 203.82Z" fill="#D2FF71"/>
</g>
</svg>
