<svg width="40" height="23" viewBox="0 0 40 23" fill="none" xmlns="http://www.w3.org/2000/svg">
<g id="Google_Pay-Logo.wine 1">
<rect x="0.5" y="0.5" width="39" height="22" rx="6.5" stroke="#E1E1E1"/>
<g id="Group 344">
<path id="Vector" d="M19.1492 12.1258V15.8011H17.9663V6.72473H21.1035C21.4779 6.71702 21.8502 6.78249 22.1989 6.91735C22.5476 7.05221 22.8657 7.2538 23.1349 7.51049C23.4068 7.75159 23.6232 8.04727 23.7696 8.37767C23.916 8.70806 23.9889 9.06551 23.9835 9.426C23.9912 9.78841 23.9194 10.1482 23.773 10.4807C23.6265 10.8132 23.4088 11.1105 23.1349 11.3524C22.5863 11.868 21.9092 12.1256 21.1035 12.1251H19.1492V12.1258ZM19.1492 7.84217V11.0105H21.1328C21.3503 11.0169 21.5667 10.9784 21.7683 10.8976C21.9698 10.8168 22.152 10.6954 22.3032 10.5413C22.4536 10.3971 22.5732 10.2247 22.6549 10.0342C22.7365 9.84367 22.7786 9.63896 22.7786 9.43215C22.7786 9.22534 22.7365 9.02064 22.6549 8.83013C22.5732 8.63963 22.4536 8.4672 22.3032 8.32304C22.1539 8.1656 21.9723 8.04125 21.7706 7.95822C21.5688 7.8752 21.3514 7.83539 21.1328 7.84145H19.1492V7.84217ZM26.7092 9.38834C27.5835 9.38834 28.2736 9.61863 28.7796 10.0792C29.2855 10.5398 29.5382 11.1713 29.5378 11.9737V15.8011H28.4063V14.9393H28.3549C27.8651 15.649 27.2137 16.0039 26.4006 16.0039C25.7066 16.0039 25.1259 15.8011 24.6586 15.3956C24.4344 15.2094 24.2551 14.9763 24.1339 14.7132C24.0126 14.4501 23.9524 14.1637 23.9577 13.8748C23.9577 13.2321 24.2041 12.7211 24.6968 12.3416C25.1896 11.9621 25.8474 11.7719 26.6702 11.771C27.3726 11.771 27.9511 11.8977 28.4056 12.1512V11.8847C28.4069 11.6877 28.3638 11.4929 28.2793 11.3144C28.1948 11.1359 28.071 10.9782 27.917 10.8527C27.6042 10.5745 27.1966 10.4227 26.7753 10.4276C26.1146 10.4276 25.5917 10.7023 25.2067 11.2517L24.1649 10.605C24.738 9.79389 25.5861 9.38834 26.7092 9.38834ZM25.1788 13.9001C25.178 14.0485 25.2132 14.1949 25.2815 14.3272C25.3497 14.4595 25.449 14.5737 25.5711 14.6605C25.8327 14.8634 26.1575 14.9708 26.4902 14.9647C26.9894 14.9639 27.4678 14.768 27.8208 14.4201C28.2126 14.0565 28.4085 13.63 28.4085 13.1404C28.0397 12.8507 27.5254 12.7059 26.8657 12.7059C26.3852 12.7059 25.9845 12.8201 25.6637 13.0484C25.3397 13.2802 25.1788 13.5619 25.1788 13.9001ZM36.0325 9.59111L32.0827 18.5386H30.8617L32.3274 15.4079L29.7302 9.59111H31.016L32.8931 14.0522H32.9188L34.7445 9.59111H36.0325Z" fill="#5F6368"/>
<path id="Vector_2" d="M14.3692 11.3334C14.3697 10.9781 14.3392 10.6234 14.2781 10.2732H9.28955V12.2814H12.1468C12.0883 12.6021 11.9646 12.9079 11.783 13.1802C11.6014 13.4525 11.3658 13.6858 11.0903 13.8659V15.1695H12.7955C13.794 14.2621 14.3692 12.9201 14.3692 11.3334Z" fill="#4285F4"/>
<path id="Vector_3" d="M9.28956 16.4289C10.7171 16.4289 11.919 15.9669 12.7955 15.1703L11.0903 13.8667C10.6157 14.1839 10.0044 14.365 9.28956 14.365C7.9098 14.365 6.7387 13.4481 6.31992 12.2126H4.56326V13.556C5.00354 14.4196 5.67866 15.1456 6.51325 15.6529C7.34783 16.1602 8.30904 16.4289 9.28956 16.4289Z" fill="#34A853"/>
<path id="Vector_4" d="M6.31993 12.2126C6.09853 11.5652 6.09853 10.8641 6.31993 10.2167V8.87329H4.56327C4.19289 9.59977 4 10.4016 4 11.2146C4 12.0277 4.19289 12.8295 4.56327 13.556L6.31993 12.2126Z" fill="#FBBC04"/>
<path id="Vector_5" d="M9.28956 8.06431C10.0439 8.05216 10.7729 8.33312 11.3188 8.84645L12.8286 7.35822C11.8712 6.47185 10.6029 5.98522 9.28956 6.00034C8.30904 6.00039 7.34783 6.26906 6.51325 6.77637C5.67866 7.28367 5.00354 8.00965 4.56326 8.87324L6.31992 10.2166C6.7387 8.98115 7.9098 8.06431 9.28956 8.06431Z" fill="#EA4335"/>
</g>
</g>
</svg>
