<svg width="23" height="23" viewBox="0 0 23 23" fill="none" xmlns="http://www.w3.org/2000/svg">
<g id="Heart">
<path id="Vector" d="M20.8835 2.74612C20.3159 2.19227 19.642 1.75298 18.9003 1.45337C18.1586 1.15377 17.3636 0.999706 16.5609 1C15.7581 1.00029 14.9633 1.15494 14.2218 1.45509C13.4803 1.75524 12.8068 2.19502 12.2396 2.74929L11.4992 3.48052L10.7649 2.75087L10.7601 2.74621C10.1928 2.19262 9.51923 1.75348 8.77794 1.45388C8.03665 1.15428 7.24213 1.00007 6.43977 1.00007C5.6374 1.00007 4.84288 1.15428 4.10159 1.45388C3.3603 1.75348 2.68674 2.19262 2.11939 2.74621L1.78955 3.06805C0.643719 4.18608 0 5.70244 0 7.28357C0 8.86469 0.643719 10.3811 1.78955 11.4991L10.4949 19.9931L11.478 20.9981L11.5014 20.9752L11.5268 21L12.4479 20.0518L21.2134 11.4989C22.3575 10.38 23 8.864 23 7.28343C23 5.70286 22.3575 4.18682 21.2134 3.06791L20.8835 2.74612ZM20.133 10.4451L11.5014 18.8675L2.86957 10.4451C2.0102 9.60656 1.52742 8.46929 1.52742 7.28345C1.52742 6.09761 2.0102 4.96034 2.86957 4.12182L3.19946 3.79998C4.05841 2.96188 5.22326 2.49084 6.438 2.4904C7.65273 2.48995 8.81795 2.96014 9.67754 3.79761L11.4959 5.60413L13.3228 3.79998C13.7483 3.38479 14.2535 3.05543 14.8095 2.83073C15.3654 2.60603 15.9613 2.49038 16.5631 2.49038C17.1649 2.49038 17.7608 2.60603 18.3167 2.83073C18.8727 3.05543 19.3779 3.38479 19.8034 3.79998L20.1332 4.12177C20.9913 4.96098 21.4732 6.09803 21.4731 7.28347C21.4731 8.4689 20.9912 9.60592 20.133 10.4451Z" fill="white"/>
</g>
</svg>
