<svg width="15" height="15" viewBox="0 0 15 15" fill="none" xmlns="http://www.w3.org/2000/svg">
<g id="home">
<g id="Group">
<path id="Vector" d="M6.51359 12.6629H4.01359C3.20351 12.6599 2.54671 12.0056 2.54076 11.1955V6.22267C2.54235 5.95149 2.6637 5.69488 2.87228 5.52158L3.3125 5.1955C3.47321 5.02427 3.48956 4.76298 3.35143 4.57306C3.21331 4.38314 2.9597 4.31818 2.74728 4.41832L2.2962 4.75528C1.84117 5.10735 1.57115 5.64741 1.5625 6.22267V11.2009C1.56549 12.5534 2.66113 13.649 4.01359 13.652H6.51359C6.78373 13.652 7.00272 13.433 7.00272 13.1629C7.00272 12.8927 6.78373 12.6738 6.51359 12.6738V12.6629Z" fill="#646464"/>
<path id="Vector_2" d="M13.3067 6.21191C13.301 5.64087 13.0397 5.10242 12.5947 4.74452L8.83929 1.74995C8.01404 1.0866 6.83846 1.0866 6.01321 1.74995L4.82299 2.61408C4.59937 2.77467 4.54827 3.08612 4.70886 3.30974C4.86944 3.53335 5.18089 3.58445 5.40451 3.42387L6.61103 2.52169C7.08459 2.13182 7.76791 2.13182 8.24147 2.52169L11.9969 5.51626C12.213 5.68759 12.3407 5.94699 12.3447 6.22278V11.201C12.3447 12.0115 11.6878 12.6684 10.8773 12.6684H9.76321C9.64915 12.6684 9.55668 12.576 9.55668 12.4619V10.2173C9.55669 9.50209 8.97845 8.92142 8.26321 8.91843H6.63277C6.28828 8.91843 5.95789 9.05528 5.7143 9.29887C5.47071 9.54247 5.33386 9.87285 5.33386 10.2173V11.076C5.33386 11.3462 5.55285 11.5652 5.82299 11.5652C6.09313 11.5652 6.31212 11.3462 6.31212 11.076V10.2173C6.31066 10.1328 6.34323 10.0512 6.4025 9.99093C6.46177 9.93064 6.54278 9.89668 6.62734 9.89669H8.25777C8.43186 9.89669 8.57299 10.0378 8.57299 10.2119V12.4619C8.57598 13.1171 9.10798 13.6467 9.76321 13.6467H10.8502C12.2039 13.6467 13.3012 12.5493 13.3012 11.1956L13.3067 6.21191Z" fill="#646464"/>
</g>
</g>
</svg>
