<svg width="140" height="217" viewBox="0 0 140 217" fill="none" xmlns="http://www.w3.org/2000/svg">
<g id="telegram-cloud-document-2-5197645344309001032 1 (Traced)">
<path fill-rule="evenodd" clip-rule="evenodd" d="M93.3571 1.81331C82.685 5.95038 73.7941 19.6339 74.8091 30.3614C75.5994 38.718 79.3713 44.9296 86.1094 48.9668L92.0143 52.5047L92.0461 92.335C92.0626 114.242 91.6943 132.4 91.2262 132.685C90.7581 132.972 87.4291 132.216 83.8272 131.007C74.226 127.782 58.6562 127.888 48.1003 131.249C38.6383 134.263 28.4112 141.499 23.6122 148.577C21.7904 151.264 19.494 156.637 18.5085 160.518C16.8248 167.151 16.5135 167.595 13.3358 167.911C11.1544 168.129 8.80101 167.403 6.70078 165.865C2.3918 162.71 0 163.708 0 168.662C0 176.122 9.39403 189.457 17.6163 193.668C20.1177 194.949 20.6844 196.13 21.3563 201.458C22.3484 209.315 24.3456 213.211 28.4638 215.32C32.7498 217.515 36.5052 217.312 44.3942 214.461C50.3287 212.314 51.2144 211.578 53.4583 206.926L55.9465 201.769H64.5568C69.2933 201.769 74.6863 201.469 76.541 201.102C79.5818 200.499 79.983 200.74 80.6165 203.544C82.0021 209.678 82.3934 210.467 85.6534 213.695C90.563 218.557 98.8719 217.971 102.804 212.485C103.579 211.404 105.884 209.734 107.925 208.774C112.197 206.767 114.51 202.531 115.604 194.713C116.022 191.728 117.682 187.087 119.292 184.4C121.968 179.939 122.221 178.527 122.221 168.117C122.221 157.869 121.915 156.103 119.195 150.615L116.168 144.512L116.454 98.6518L116.74 52.7913L123.585 50.7113C143.97 44.5139 145.71 27.0797 126.888 17.6332C124.02 16.1937 121.673 14.281 121.673 13.3821C121.673 12.4833 119.713 9.64128 117.317 7.06742C110.721 -0.0180361 102.649 -1.78858 93.3571 1.81331ZM110.714 4.7834C114.26 6.54526 116.497 9.11154 119.3 14.6349C120.981 17.9491 122.406 19.2691 124.819 19.7468C132.033 21.1754 138.494 29.9652 137.213 36.6044C136.433 40.6471 130.258 45.9066 123.783 48.0452C115.906 50.6473 99.2544 51.5961 93.6158 49.7658C83.5575 46.4993 77.8268 38.8896 77.8268 28.7982C77.8268 10.754 96.0054 -2.52026 110.714 4.7834ZM110.711 14.51C110.711 15.6282 111.429 16.1601 112.63 15.9321C114.94 15.4914 114.795 13.5645 112.414 13.0738C111.421 12.8687 110.711 13.4668 110.711 14.51ZM98.258 14.7206C96.9481 16.0179 97.551 18.3095 99.2018 18.3095C100.106 18.3095 100.846 17.6061 100.846 16.7452C100.846 14.9312 99.2818 13.7078 98.258 14.7206ZM124.061 36.8064C120.297 39.8524 114.585 40.5776 109.606 38.641C105.647 37.1006 104.134 37.1841 104.134 38.9417C104.134 40.4289 109.871 42.1918 114.708 42.1918C119.537 42.1918 126.505 39.7678 127.843 37.6227C129.214 35.4266 126.493 34.8382 124.061 36.8064ZM114 99.999V146.477L116.887 152.12C124.331 166.668 120.021 185.721 108.009 191.366C104.885 192.834 104.134 193.798 104.134 196.339C104.134 198.073 103.602 201.954 102.95 204.963C100.017 218.505 87.3557 217.735 83.2484 203.763L81.5461 197.97L76.6715 198.513C73.9914 198.811 67.8518 199.055 63.0288 199.055C58.2057 199.055 52.566 198.811 50.4965 198.513C46.7816 197.976 46.7071 198.047 44.7 203.94C41.1101 214.48 34.3238 217.468 27.7875 211.386C25.2959 209.069 24.8081 207.548 23.5684 198.228C22.9556 193.621 22.4339 192.833 18.765 190.98C11.4647 187.291 2.29425 175.073 2.21642 168.931C2.18682 166.617 4.71784 166.442 6.5528 168.631C8.36912 170.798 14.6161 171.837 17.294 170.417C18.719 169.662 19.7165 167.654 20.1769 164.612C21.7159 154.445 29.994 142.551 38.5966 138.146C41.4115 136.704 41.8774 136.757 44.0631 138.774C47.6651 142.097 53.683 141.716 57.343 137.933C58.9631 136.259 60.2884 134.061 60.2884 133.048C60.2884 131.491 61.4843 131.208 68.0546 131.208C75.5534 131.208 75.9392 131.339 79.2178 135.007C82.6071 138.798 87.7952 140.19 89.3364 137.721C89.7091 137.124 90.9708 136.636 92.1415 136.636C94.211 136.636 94.2691 135.49 94.2691 95.0185V53.4002L104.134 53.461L114 53.5207V99.999ZM58.0961 132.147C58.0961 132.664 57.0734 134.373 55.8238 135.946C53.2423 139.196 48.245 139.811 46.0165 137.152C44.2769 135.076 44.3438 135.02 50.9711 133.016C57.6017 131.011 58.0961 130.951 58.0961 132.147ZM88.5461 134.949C89.6806 136.071 85.1404 136.943 83.4983 135.917C80.1649 133.835 80.7481 132.341 84.4794 133.401C86.4108 133.949 88.2403 134.646 88.5461 134.949ZM65.9884 136.853C63.8936 138.927 64.4055 142.919 66.8653 143.692C71.7717 145.234 75.5918 141.698 73.3995 137.643C72.1345 135.301 67.9998 134.861 65.9884 136.853ZM71.2499 139.286C71.2499 141.178 69.4522 142.434 68.0097 141.55C66.5507 140.657 67.8639 137.721 69.723 137.721C70.5626 137.721 71.2499 138.425 71.2499 139.286ZM82.6499 143.979C79.8536 145.828 78.9767 149.255 80.6812 151.665C84.4586 157.006 92.8145 151.799 90.0632 145.818C88.841 143.162 85.2379 142.269 82.6499 143.979ZM37.8907 147.411C35.6436 149.87 35.9505 152.749 38.6394 154.426C42.6107 156.902 46.9153 150.611 43.7957 146.889C42.0089 144.756 40.1685 144.918 37.8907 147.411ZM87.4905 148.296C87.1014 151.644 83.7011 153.025 82.6334 150.271C81.8486 148.247 83.9894 145.32 86.2551 145.32C87.3337 145.32 87.7273 146.267 87.4905 148.296ZM53.7915 149.266C50.936 152.86 50.8933 156.364 53.6753 158.857C60.1547 164.664 68.9019 156.402 64.6346 148.505C62.8698 145.241 56.6415 145.677 53.7915 149.266ZM42.7499 150.205C42.7499 152.306 40.5982 153.393 39.1929 152.002C38.3599 151.177 38.4234 150.359 39.4133 149.177C40.9577 147.334 42.7499 147.885 42.7499 150.205ZM62.8578 150.935C64.593 153.677 62.0916 158.347 58.8864 158.347C53.9625 158.347 52.2043 154.197 55.5695 150.515C57.7376 148.141 61.2168 148.342 62.8578 150.935ZM112.904 193.689C112.904 197.023 110.003 204.239 108.301 205.142C106.284 206.21 106.208 205.987 106.912 201.035C107.322 198.155 108.438 195.189 109.394 194.442C111.211 193.021 112.904 192.659 112.904 193.689ZM51.5192 203.82C51.5192 206.087 47.6783 211.347 46.7169 210.398C46.3826 210.07 46.6698 207.994 47.3538 205.785C48.6494 201.604 51.5192 200.251 51.5192 203.82Z" fill="#161616"/>
<path fill-rule="evenodd" clip-rule="evenodd" d="M114 99.999V146.477L116.887 152.12C124.331 166.668 120.021 185.721 108.009 191.366C104.885 192.834 104.134 193.798 104.134 196.339C104.134 198.073 103.602 201.954 102.95 204.963C100.017 218.505 87.3557 217.735 83.2484 203.763L81.5461 197.97L76.6715 198.513C73.9914 198.811 67.8518 199.055 63.0288 199.055C58.2057 199.055 52.566 198.811 50.4965 198.513C46.7816 197.976 46.7071 198.047 44.7 203.94C41.1101 214.48 34.3238 217.468 27.7875 211.386C25.2959 209.069 24.8081 207.548 23.5684 198.228C22.9556 193.621 22.4339 192.833 18.765 190.98C11.4647 187.291 2.29425 175.073 2.21642 168.931C2.18682 166.617 4.71784 166.442 6.5528 168.631C8.36912 170.798 14.6161 171.837 17.294 170.417C18.719 169.662 19.7165 167.654 20.1769 164.612C21.7159 154.445 29.994 142.551 38.5966 138.146C41.4115 136.704 41.8774 136.757 44.0631 138.774C47.6651 142.097 53.683 141.716 57.343 137.933C58.9631 136.259 60.2884 134.061 60.2884 133.048C60.2884 131.491 61.4843 131.208 68.0546 131.208C75.5534 131.208 75.9392 131.339 79.2178 135.007C82.6071 138.798 87.7952 140.19 89.3364 137.721C89.7091 137.124 90.9708 136.636 92.1415 136.636C94.211 136.636 94.2691 135.49 94.2691 95.0185V53.4002L104.134 53.461L114 53.5207V99.999ZM66.8653 143.692C64.4055 142.919 63.8936 138.927 65.9884 136.853C67.9998 134.861 72.1345 135.301 73.3995 137.643C75.5918 141.698 71.7717 145.234 66.8653 143.692ZM80.6812 151.665C78.9767 149.255 79.8536 145.828 82.6499 143.979C85.2379 142.269 88.841 143.162 90.0632 145.818C92.8145 151.799 84.4586 157.006 80.6812 151.665ZM38.6394 154.426C35.9505 152.749 35.6436 149.87 37.8907 147.411C40.1685 144.918 42.0089 144.756 43.7957 146.889C46.9153 150.611 42.6107 156.902 38.6394 154.426ZM53.6753 158.857C50.8933 156.364 50.936 152.86 53.7915 149.266C56.6415 145.677 62.8698 145.241 64.6346 148.505C68.9019 156.402 60.1547 164.664 53.6753 158.857Z" fill="#D2FF71"/>
<path fill-rule="evenodd" clip-rule="evenodd" d="M110.714 4.7834C114.26 6.54526 116.497 9.11154 119.3 14.6349C120.981 17.9491 122.406 19.2691 124.819 19.7468C132.033 21.1754 138.494 29.9652 137.213 36.6044C136.433 40.6471 130.258 45.9066 123.783 48.0452C115.906 50.6473 99.2544 51.5961 93.6158 49.7658C83.5575 46.4993 77.8268 38.8896 77.8268 28.7982C77.8268 10.754 96.0054 -2.52026 110.714 4.7834ZM112.63 15.9321C111.429 16.1601 110.711 15.6282 110.711 14.51C110.711 13.4668 111.421 12.8687 112.414 13.0738C114.795 13.5645 114.94 15.4914 112.63 15.9321ZM99.2018 18.3095C97.551 18.3095 96.9481 16.0179 98.258 14.7206C99.2818 13.7078 100.846 14.9312 100.846 16.7452C100.846 17.6061 100.106 18.3095 99.2018 18.3095ZM109.606 38.641C114.585 40.5776 120.297 39.8524 124.061 36.8064C126.493 34.8382 129.214 35.4266 127.843 37.6227C126.505 39.7678 119.537 42.1918 114.708 42.1918C109.871 42.1918 104.134 40.4289 104.134 38.9417C104.134 37.1841 105.647 37.1006 109.606 38.641Z" fill="#D2FF71"/>
<path d="M62.8578 150.935C64.593 153.677 62.0916 158.347 58.8864 158.347C53.9625 158.347 52.2043 154.197 55.5695 150.515C57.7376 148.141 61.2168 148.342 62.8578 150.935Z" fill="#FE5A13"/>
<path d="M58.0961 132.147C58.0961 132.664 57.0734 134.373 55.8238 135.946C53.2423 139.196 48.245 139.811 46.0165 137.152C44.2769 135.076 44.3438 135.02 50.9711 133.016C57.6017 131.011 58.0961 130.951 58.0961 132.147Z" fill="#FE5A13"/>
<path d="M42.7499 150.205C42.7499 152.306 40.5982 153.393 39.1929 152.002C38.3599 151.177 38.4234 150.359 39.4133 149.177C40.9577 147.334 42.7499 147.885 42.7499 150.205Z" fill="#FE5A13"/>
<path d="M87.4905 148.296C87.1014 151.644 83.7011 153.025 82.6334 150.271C81.8486 148.247 83.9894 145.32 86.2551 145.32C87.3337 145.32 87.7273 146.267 87.4905 148.296Z" fill="#FE5A13"/>
<path d="M71.2499 139.286C71.2499 141.178 69.4522 142.434 68.0097 141.55C66.5507 140.657 67.8639 137.721 69.723 137.721C70.5626 137.721 71.2499 138.425 71.2499 139.286Z" fill="#FE5A13"/>
<path d="M88.5461 134.949C89.6806 136.071 85.1404 136.943 83.4983 135.917C80.1649 133.835 80.7481 132.341 84.4794 133.401C86.4108 133.949 88.2403 134.646 88.5461 134.949Z" fill="#FE5A13"/>
<path d="M112.904 193.689C112.904 197.023 110.003 204.239 108.301 205.142C106.284 206.21 106.208 205.987 106.912 201.035C107.322 198.155 108.438 195.189 109.394 194.442C111.211 193.021 112.904 192.659 112.904 193.689Z" fill="#D2FF71"/>
<path d="M51.5192 203.82C51.5192 206.087 47.6783 211.347 46.7169 210.398C46.3826 210.07 46.6698 207.994 47.3538 205.785C48.6494 201.604 51.5192 200.251 51.5192 203.82Z" fill="#D2FF71"/>
</g>
</svg>
