<svg width="41" height="41" viewBox="0 0 41 41" fill="none" xmlns="http://www.w3.org/2000/svg">
<g id="arcticons:like-a-dino">
<path id="Vector" d="M12.98 15.522C13.372 6.795 29.9582 1.03194 36.1714 17.3645C41.7799 33.4775 22.1409 36.5465 10.7566 32.2355C2.31484 29.9634 0.0282362 18.4108 12.98 15.5203V15.522Z" fill="#D2FF71" stroke="#161616" stroke-width="1.5" stroke-linecap="round" stroke-linejoin="round"/>
<path id="Vector_2" d="M10.0381 25.573C10.0381 25.573 15.4381 30.8987 21.1875 26.5664" stroke="#161616" stroke-width="1.5" stroke-linecap="round" stroke-linejoin="round"/>
<path id="Vector_3" d="M17.6289 14.6387C17.9827 14.6387 18.2695 14.3519 18.2695 13.998C18.2695 13.6442 17.9827 13.3574 17.6289 13.3574C17.2751 13.3574 16.9883 13.6442 16.9883 13.998C16.9883 14.3519 17.2751 14.6387 17.6289 14.6387Z" fill="#161616"/>
<path id="Vector_4" d="M24.5229 15.6775C24.8768 15.6775 25.1636 15.3907 25.1636 15.0369C25.1636 14.6831 24.8768 14.3962 24.5229 14.3962C24.1691 14.3962 23.8823 14.6831 23.8823 15.0369C23.8823 15.3907 24.1691 15.6775 24.5229 15.6775Z" fill="#161616"/>
</g>
</svg>
