<svg width="40" height="23" viewBox="0 0 40 23" fill="none" xmlns="http://www.w3.org/2000/svg">
<rect x="0.5" y="0.5" width="39" height="22" rx="6.5" stroke="#E1E1E1"/>
<path d="M16.84 5.6394H24.3268V17.6929H16.84V5.6394Z" fill="#FF5F00"/>
<path d="M17.6112 11.6673C17.6102 10.5066 17.8772 9.361 18.3917 8.31705C18.9063 7.27311 19.655 6.35821 20.5813 5.64161C19.4341 4.75292 18.0564 4.2003 16.6056 4.0469C15.1549 3.8935 13.6897 4.14552 12.3773 4.77415C11.065 5.40277 9.95863 6.38265 9.18456 7.60178C8.41049 8.82091 8 10.2301 8 11.6683C8 13.1066 8.41049 14.5158 9.18456 15.7349C9.95863 16.954 11.065 17.9339 12.3773 18.5625C13.6897 19.1911 15.1549 19.4432 16.6056 19.2898C18.0564 19.1364 19.4341 18.5837 20.5813 17.6951C19.6547 16.9782 18.9058 16.063 18.3912 15.0187C17.8767 13.9743 17.6099 12.8283 17.6112 11.6672V11.6673Z" fill="#EB001B"/>
<path d="M32.4206 16.4175V16.1705H32.5286V16.1194H32.2716V16.1705H32.3731V16.4175L32.4206 16.4175ZM32.9196 16.4175V16.1194H32.8418L32.7511 16.3323L32.6603 16.1194H32.5826V16.4175H32.6387V16.1918L32.723 16.3856H32.7813L32.8656 16.1918V16.4175H32.9196Z" fill="#F79E1B"/>
<path d="M33.1636 11.6671C33.1636 13.1055 32.753 14.5148 31.9788 15.7339C31.2046 16.9531 30.098 17.933 28.7855 18.5615C27.4731 19.1901 26.0077 19.4419 24.5568 19.2883C23.106 19.1347 21.7283 18.5818 20.5812 17.6928C21.5071 16.9755 22.2556 16.0604 22.7703 15.0164C23.285 13.9724 23.5524 12.8268 23.5524 11.6661C23.5524 10.5053 23.285 9.35972 22.7703 8.31572C22.2556 7.27172 21.5071 6.35658 20.5812 5.63934C21.7283 4.75037 23.106 4.19747 24.5569 4.04385C26.0077 3.89023 27.4731 4.14208 28.7856 4.77062C30.098 5.39916 31.2046 6.37902 31.9788 7.5982C32.753 8.81739 33.1636 10.2267 33.1636 11.665V11.6671Z" fill="#F79E1B"/>
</svg>
