<svg width="20" height="21" viewBox="0 0 20 21" fill="none" xmlns="http://www.w3.org/2000/svg">
<g id="Password">
<path id="Vector" d="M15.625 1.125L7.88188 8.8675C7.04143 8.61272 6.153 8.55827 5.28773 8.7085C4.42246 8.85874 3.60439 9.20949 2.89902 9.73267C2.19365 10.2559 1.62058 10.9369 1.2257 11.7214C0.830814 12.5058 0.625091 13.3718 0.625 14.25C0.625 15.7418 1.21763 17.1726 2.27252 18.2275C3.32742 19.2824 4.75816 19.875 6.25 19.875C7.12823 19.8748 7.99423 19.669 8.77864 19.2741C9.56306 18.8791 10.2441 18.306 10.7672 17.6005C11.2903 16.8951 11.641 16.077 11.7912 15.2117C11.9413 14.3464 11.8868 13.4579 11.6319 12.6175L13.125 11.125V9.875H14.375L19.375 4.875V1.125H15.625ZM18.125 4.35687L13.8575 8.625H11.875V10.6069L10.7481 11.7331L10.2181 12.2631L10.4356 12.98C10.5613 13.3938 10.625 13.8206 10.625 14.25C10.625 16.6625 8.66187 18.625 6.25 18.625C3.83812 18.625 1.875 16.6625 1.875 14.25C1.875 11.8375 3.83812 9.875 6.25 9.875C6.67875 9.875 7.10625 9.93875 7.51937 10.0638L8.23563 10.2812L8.76562 9.75125L16.1425 2.375H18.125V4.35687Z" fill="#646464"/>
<path id="Vector_2" d="M5 16.75C5.69036 16.75 6.25 16.1904 6.25 15.5C6.25 14.8096 5.69036 14.25 5 14.25C4.30964 14.25 3.75 14.8096 3.75 15.5C3.75 16.1904 4.30964 16.75 5 16.75Z" fill="#646464"/>
<path id="Vector_3" d="M12.9023 7.1543L16.6523 3.4043L17.0942 3.84617L13.3442 7.59617L12.9023 7.1543Z" fill="#646464"/>
</g>
</svg>
