<svg width="23" height="23" viewBox="0 0 23 23" fill="none" xmlns="http://www.w3.org/2000/svg">
<g id="Person">
<path id="Vector" d="M18.15 13.4167C18.9059 13.4167 19.6308 13.7196 20.1653 14.2587C20.6997 14.7979 21 15.5292 21 16.2917V16.9769C21 20.4048 17.0005 23 11.5 23C5.9995 23 2 20.54 2 16.9769V16.2917C2 15.5292 2.30027 14.7979 2.83475 14.2587C3.36922 13.7196 4.09413 13.4167 4.85 13.4167H18.15ZM18.15 14.8542H4.85C4.49591 14.8542 4.1545 14.9871 3.8923 15.2272C3.63009 15.4673 3.46588 15.7972 3.43165 16.1527L3.425 16.2917V16.9769C3.425 19.5395 6.64455 21.5625 11.5 21.5625C16.1797 21.5625 19.4373 19.5452 19.5703 17.1312L19.575 16.9769V16.2917C19.575 15.9345 19.4432 15.5901 19.2052 15.3256C18.9672 15.0611 18.6402 14.8954 18.2878 14.8609L18.15 14.8542ZM11.5 0C12.2485 -1.12519e-08 12.9897 0.148728 13.6813 0.437693C14.3729 0.726657 15.0012 1.1502 15.5305 1.68414C16.0598 2.21807 16.4797 2.85195 16.7661 3.54957C17.0526 4.24719 17.2 4.9949 17.2 5.75C17.2 6.5051 17.0526 7.25281 16.7661 7.95043C16.4797 8.64805 16.0598 9.28193 15.5305 9.81586C15.0012 10.3498 14.3729 10.7733 13.6813 11.0623C12.9897 11.3513 12.2485 11.5 11.5 11.5C9.98827 11.5 8.53845 10.8942 7.46949 9.81586C6.40053 8.73753 5.8 7.27499 5.8 5.75C5.8 4.22501 6.40053 2.76247 7.46949 1.68414C8.53845 0.605802 9.98827 2.27242e-08 11.5 0ZM11.5 1.4375C10.3662 1.4375 9.27884 1.89185 8.47712 2.7006C7.6754 3.50935 7.225 4.60625 7.225 5.75C7.225 6.89375 7.6754 7.99065 8.47712 8.7994C9.27884 9.60815 10.3662 10.0625 11.5 10.0625C12.6338 10.0625 13.7212 9.60815 14.5229 8.7994C15.3246 7.99065 15.775 6.89375 15.775 5.75C15.775 4.60625 15.3246 3.50935 14.5229 2.7006C13.7212 1.89185 12.6338 1.4375 11.5 1.4375Z" fill="white"/>
</g>
</svg>
