<svg width="195" height="35" viewBox="0 0 195 35" fill="none" xmlns="http://www.w3.org/2000/svg">
<path d="M16.5489 2.92705C16.8483 2.00574 18.1517 2.00574 18.4511 2.92705L21.2045 11.4012C21.3384 11.8132 21.7223 12.0922 22.1555 12.0922L31.0658 12.0922C32.0345 12.0922 32.4373 13.3318 31.6536 13.9012L24.445 19.1385C24.0945 19.3932 23.9479 19.8446 24.0818 20.2566L26.8352 28.7308C27.1345 29.6521 26.0801 30.4182 25.2963 29.8488L18.0878 24.6115C17.7373 24.3568 17.2627 24.3568 16.9122 24.6115L9.70365 29.8488C8.91994 30.4182 7.86546 29.6521 8.16481 28.7307L10.9182 20.2566C11.0521 19.8446 10.9055 19.3932 10.555 19.1385L3.34641 13.9012C2.56269 13.3318 2.96547 12.0922 3.93419 12.0922L12.8445 12.0922C13.2777 12.0922 13.6616 11.8132 13.7955 11.4012L16.5489 2.92705Z" fill="#FE5A13"/>
<path d="M57.0245 3.08156C57.1741 2.6209 57.8259 2.6209 57.9755 3.08156L60.729 11.5557C60.9298 12.1738 61.5057 12.5922 62.1555 12.5922L71.0658 12.5922C71.5502 12.5922 71.7516 13.212 71.3597 13.4967L64.1511 18.734C63.6254 19.116 63.4054 19.7931 63.6062 20.4111L66.3597 28.8853C66.5093 29.3459 65.9821 29.729 65.5902 29.4443L58.3817 24.2069C57.8559 23.825 57.1441 23.825 56.6183 24.2069L49.4098 29.4443C49.0179 29.729 48.4907 29.3459 48.6403 28.8853L51.3938 20.4111C51.5946 19.7931 51.3746 19.116 50.8489 18.734L43.6403 13.4967C43.2484 13.212 43.4498 12.5922 43.9342 12.5922L52.8445 12.5922C53.4943 12.5922 54.0702 12.1738 54.271 11.5557L57.0245 3.08156Z" stroke="#646464"/>
<path d="M97.0245 3.08156C97.1741 2.6209 97.8259 2.6209 97.9755 3.08156L100.729 11.5557C100.93 12.1738 101.506 12.5922 102.156 12.5922L111.066 12.5922C111.55 12.5922 111.752 13.212 111.36 13.4967L104.151 18.734C103.625 19.116 103.405 19.7931 103.606 20.4111L106.36 28.8853C106.509 29.3459 105.982 29.729 105.59 29.4443L98.3817 24.2069C97.8559 23.825 97.1441 23.825 96.6183 24.2069L89.4098 29.4443C89.0179 29.729 88.4907 29.3459 88.6403 28.8853L91.3938 20.4111C91.5946 19.7931 91.3746 19.116 90.8489 18.734L83.6403 13.4967C83.2484 13.212 83.4498 12.5922 83.9342 12.5922L92.8445 12.5922C93.4943 12.5922 94.0702 12.1738 94.271 11.5557L97.0245 3.08156Z" stroke="#646464"/>
<path d="M137.024 3.08156C137.174 2.6209 137.826 2.6209 137.976 3.08156L140.729 11.5557C140.93 12.1738 141.506 12.5922 142.156 12.5922L151.066 12.5922C151.55 12.5922 151.752 13.212 151.36 13.4967L144.151 18.734C143.625 19.116 143.405 19.7931 143.606 20.4111L146.36 28.8853C146.509 29.3459 145.982 29.729 145.59 29.4443L138.382 24.2069C137.856 23.825 137.144 23.825 136.618 24.2069L129.41 29.4443C129.018 29.729 128.491 29.3459 128.64 28.8853L131.394 20.4111C131.595 19.7931 131.375 19.116 130.849 18.734L123.64 13.4967C123.248 13.212 123.45 12.5922 123.934 12.5922L132.844 12.5922C133.494 12.5922 134.07 12.1738 134.271 11.5557L137.024 3.08156Z" stroke="#646464"/>
<path d="M177.024 3.08156C177.174 2.6209 177.826 2.6209 177.976 3.08156L180.729 11.5557C180.93 12.1738 181.506 12.5922 182.156 12.5922L191.066 12.5922C191.55 12.5922 191.752 13.212 191.36 13.4967L184.151 18.734C183.625 19.116 183.405 19.7931 183.606 20.4111L186.36 28.8853C186.509 29.3459 185.982 29.729 185.59 29.4443L178.382 24.2069C177.856 23.825 177.144 23.825 176.618 24.2069L169.41 29.4443C169.018 29.729 168.491 29.3459 168.64 28.8853L171.394 20.4111C171.595 19.7931 171.375 19.116 170.849 18.734L163.64 13.4967C163.248 13.212 163.45 12.5922 163.934 12.5922L172.844 12.5922C173.494 12.5922 174.07 12.1738 174.271 11.5557L177.024 3.08156Z" stroke="#646464"/>
</svg>
