<svg width="25" height="26" viewBox="0 0 25 26" fill="none" xmlns="http://www.w3.org/2000/svg">
<g id="Review">
<path id="Vector" d="M1.85714 23.9643C1.60854 23.9601 1.3642 23.899 1.14286 23.7858C0.855322 23.6544 0.611579 23.4432 0.440629 23.1772C0.269679 22.9113 0.17872 22.6019 0.178574 22.2858V11.3358C0.178574 8.87304 1.15689 6.51118 2.8983 4.76977C4.63971 3.02836 7.00156 2.05005 9.46429 2.05005H15.5071C17.9699 2.05005 20.3317 3.02836 22.0731 4.76977C23.8145 6.51118 24.7929 8.87304 24.7929 11.3358C24.7929 13.7985 23.8145 16.1603 22.0731 17.9018C20.3317 19.6432 17.9699 20.6215 15.5071 20.6215H6.72857L2.85714 23.6143C2.57009 23.8354 2.21943 23.9582 1.85714 23.9643ZM9.47857 3.82148C7.48624 3.82337 5.57605 4.61566 4.16726 6.02445C2.75847 7.43324 1.96618 9.34343 1.96429 11.3358V22.05L5.87857 19.0715C6.03163 18.9377 6.22549 18.8596 6.42857 18.85H15.5214C17.4305 18.7322 19.2228 17.8907 20.533 16.4971C21.8432 15.1035 22.5726 13.2628 22.5726 11.35C22.5726 9.43731 21.8432 7.59656 20.533 6.20299C19.2228 4.80942 17.4305 3.96794 15.5214 3.85005L9.47857 3.82148Z" fill="#646464"/>
<path id="Vector_2" d="M17.1929 10.1143H7.80714C7.57034 10.1143 7.34324 10.0203 7.1758 9.85282C7.00835 9.68537 6.91428 9.45827 6.91428 9.22147C6.91428 8.98467 7.00835 8.75757 7.1758 8.59013C7.34324 8.42268 7.57034 8.32861 7.80714 8.32861H17.1929C17.4297 8.32861 17.6568 8.42268 17.8242 8.59013C17.9916 8.75757 18.0857 8.98467 18.0857 9.22147C18.0857 9.45827 17.9916 9.68537 17.8242 9.85282C17.6568 10.0203 17.4297 10.1143 17.1929 10.1143ZM12.95 14.4858H7.80714C7.57034 14.4858 7.34324 14.3917 7.1758 14.2242C7.00835 14.0568 6.91428 13.8297 6.91428 13.5929C6.91428 13.3561 7.00835 13.129 7.1758 12.9616C7.34324 12.7941 7.57034 12.7 7.80714 12.7H12.95C13.1868 12.7 13.4139 12.7941 13.5813 12.9616C13.7488 13.129 13.8429 13.3561 13.8429 13.5929C13.8429 13.8297 13.7488 14.0568 13.5813 14.2242C13.4139 14.3917 13.1868 14.4858 12.95 14.4858Z" fill="#646464"/>
</g>
</svg>
