<svg width="20" height="21" viewBox="0 0 20 21" fill="none" xmlns="http://www.w3.org/2000/svg">
<g id="Review">
<path id="Vector" d="M1.48739 19.6179C1.2885 19.6145 1.09303 19.5656 0.91596 19.475C0.68593 19.3699 0.490935 19.2009 0.354176 18.9882C0.217416 18.7754 0.144649 18.5279 0.144531 18.275V9.515C0.144531 7.54482 0.927182 5.65533 2.32031 4.2622C3.71344 2.86908 5.60292 2.08643 7.5731 2.08643H12.4074C14.3776 2.08643 16.2671 2.86908 17.6602 4.2622C19.0533 5.65533 19.836 7.54482 19.836 9.515C19.836 11.4852 19.0533 13.3747 17.6602 14.7678C16.2671 16.1609 14.3776 16.9436 12.4074 16.9436H5.38453L2.28739 19.3379C2.05774 19.5147 1.77722 19.6129 1.48739 19.6179ZM7.58453 3.50357C5.99067 3.50508 4.46251 4.13891 3.33548 5.26595C2.20845 6.39298 1.57462 7.92113 1.5731 9.515V18.0864L4.70453 15.7036C4.82698 15.5965 4.98207 15.5341 5.14453 15.5264H12.4188C13.9461 15.4321 15.3799 14.7589 16.4281 13.6441C17.4762 12.5292 18.0597 11.0566 18.0597 9.52642C18.0597 7.99623 17.4762 6.52363 16.4281 5.40878C15.3799 4.29393 13.9461 3.62074 12.4188 3.52643L7.58453 3.50357Z" fill="#646464"/>
<path id="Vector_2" d="M13.7541 8.53795H6.24554C6.0561 8.53795 5.87441 8.46269 5.74046 8.32874C5.6065 8.19478 5.53125 8.0131 5.53125 7.82366C5.53125 7.63422 5.6065 7.45254 5.74046 7.31858C5.87441 7.18463 6.0561 7.10938 6.24554 7.10938H13.7541C13.9435 7.10938 14.1252 7.18463 14.2592 7.31858C14.3931 7.45254 14.4684 7.63422 14.4684 7.82366C14.4684 8.0131 14.3931 8.19478 14.2592 8.32874C14.1252 8.46269 13.9435 8.53795 13.7541 8.53795ZM10.3598 12.0351H6.24554C6.0561 12.0351 5.87441 11.9598 5.74046 11.8259C5.6065 11.6919 5.53125 11.5102 5.53125 11.3208C5.53125 11.1314 5.6065 10.9497 5.74046 10.8157C5.87441 10.6818 6.0561 10.6065 6.24554 10.6065H10.3598C10.5493 10.6065 10.7309 10.6818 10.8649 10.8157C10.9989 10.9497 11.0741 11.1314 11.0741 11.3208C11.0741 11.5102 10.9989 11.6919 10.8649 11.8259C10.7309 11.9598 10.5493 12.0351 10.3598 12.0351Z" fill="#646464"/>
</g>
</svg>
