<svg width="15" height="15" viewBox="0 0 15 15" fill="none" xmlns="http://www.w3.org/2000/svg">
<g id="message">
<path id="Vector" d="M10.1233 1.875C12.1237 1.88112 13.7439 3.51325 13.75 5.52847V6.44183L13.746 6.50229C13.7167 6.71976 13.5316 6.88738 13.3077 6.88738L13.3022 6.87624L13.2326 6.87069C13.1411 6.856 13.0558 6.81259 12.9894 6.74574C12.9065 6.66219 12.8599 6.54886 12.8599 6.43069V5.52847C12.8449 4.01222 11.6284 2.78675 10.1233 2.77166H4.87671C3.37157 2.78675 2.15507 4.01222 2.14009 5.52847V9.47153C2.15507 10.9878 3.37157 12.2133 4.87671 12.2283H10.1233C11.6284 12.2133 12.8449 10.9878 12.8599 9.47153C12.8852 9.24318 13.0769 9.07047 13.305 9.07047C13.533 9.07047 13.7247 9.24318 13.75 9.47153C13.7439 11.4867 12.1237 13.1189 10.1233 13.125H4.87671C2.875 13.1219 1.25304 11.488 1.25 9.47153V5.52847C1.25 3.51071 2.87373 1.875 4.87671 1.875H10.1233ZM3.93402 5.24183C4.05044 5.22926 4.16699 5.26431 4.25752 5.33911L6.85593 7.41089C7.1805 7.66744 7.63705 7.66744 7.96163 7.41089L10.5324 5.33911H10.5379L10.5921 5.30182C10.7789 5.19256 11.0216 5.23288 11.1626 5.40594C11.2366 5.49875 11.2706 5.6175 11.2571 5.73572C11.2436 5.85393 11.1837 5.9618 11.0908 6.03527L8.52001 8.11262C7.86635 8.64252 6.93463 8.64252 6.28096 8.11262L3.70467 6.03527L3.6571 5.98972C3.51182 5.82871 3.49999 5.58125 3.63832 5.40594C3.71107 5.31352 3.8176 5.25439 3.93402 5.24183Z" fill="#646464"/>
</g>
</svg>
