<svg width="374" height="69" viewBox="0 0 374 69" fill="none" xmlns="http://www.w3.org/2000/svg">
<rect width="70.6326" height="68.1877" fill="#00B67A"/>
<path d="M60.6326 28.4159H41.2978L35.3256 10L29.3348 28.4159L10 28.3973L25.6582 39.7905L19.6674 58.1877L35.3256 46.8132L50.9652 58.1877L44.9931 39.7905L60.6326 28.4159Z" fill="white"/>
<path d="M46.3368 43.9556L44.9931 39.7905L35.3257 46.8132L46.3368 43.9556Z" fill="#00B67A"/>
<rect width="70.6326" height="68.1877" transform="translate(75.6326)" fill="#00B67A"/>
<path d="M136.265 28.4159H116.93L110.958 10L104.967 28.4159L85.6326 28.3973L101.291 39.7905L95.3 58.1877L110.958 46.8132L126.598 58.1877L120.626 39.7905L136.265 28.4159Z" fill="white"/>
<path d="M121.969 43.9556L120.626 39.7905L110.958 46.8132L121.969 43.9556Z" fill="#00B67A"/>
<rect width="70.6326" height="68.1877" transform="translate(151.265)" fill="#00B67A"/>
<path d="M211.898 28.4159H192.563L186.591 10L180.6 28.4159L161.265 28.3973L176.923 39.7905L170.933 58.1877L186.591 46.8132L202.23 58.1877L196.258 39.7905L211.898 28.4159Z" fill="white"/>
<path d="M197.602 43.9556L196.258 39.7905L186.591 46.8132L197.602 43.9556Z" fill="#00B67A"/>
<rect width="70.6326" height="68.1877" transform="translate(226.898)" fill="#00B67A"/>
<path d="M287.531 28.4159H268.196L262.224 10L256.233 28.4159L236.898 28.3973L252.556 39.7905L246.565 58.1877L262.224 46.8132L277.863 58.1877L271.891 39.7905L287.531 28.4159Z" fill="white"/>
<path d="M273.235 43.9556L271.891 39.7905L262.224 46.8132L273.235 43.9556Z" fill="#00B67A"/>
<rect width="70.6326" height="68.1877" transform="translate(302.531)" fill="#00B67A"/>
<path d="M363.163 28.4159H343.828L337.856 10L331.865 28.4159L312.531 28.3973L328.189 39.7905L322.198 58.1877L337.856 46.8132L353.496 58.1877L347.524 39.7905L363.163 28.4159Z" fill="white"/>
<path d="M348.867 43.9556L347.524 39.7905L337.856 46.8132L348.867 43.9556Z" fill="#00B67A"/>
</svg>
