<svg width="371" height="91" viewBox="0 0 371 91" fill="none" xmlns="http://www.w3.org/2000/svg">
<path d="M97.2611 32.238H134.734V39.235H120V78.5684H111.898V39.235H97.2284L97.2611 32.238ZM133.134 45.0222H140.06V51.4961H140.191C140.419 50.5806 140.844 49.6978 141.465 48.8477C142.085 47.9976 142.837 47.1802 143.719 46.4935C144.601 45.7742 145.581 45.2184 146.659 44.7606C147.737 44.3356 148.848 44.1067 149.959 44.1067C150.809 44.1067 151.429 44.1394 151.756 44.1721C152.083 44.2048 152.409 44.2702 152.769 44.3029V51.4307C152.246 51.3326 151.723 51.2672 151.168 51.2018C150.613 51.1364 150.09 51.1037 149.567 51.1037C148.326 51.1037 147.149 51.3653 146.039 51.8557C144.928 52.3462 143.98 53.0982 143.164 54.0463C142.347 55.0272 141.693 56.2043 141.203 57.6429C140.713 59.0815 140.485 60.7164 140.485 62.58V78.5357H133.101L133.134 45.0222ZM186.714 78.5684H179.461V73.8929H179.33C178.415 75.5931 177.076 76.9336 175.279 77.9472C173.482 78.9608 171.653 79.4839 169.79 79.4839C165.38 79.4839 162.178 78.405 160.218 76.2143C158.257 74.0237 157.277 70.7214 157.277 66.3074V45.0222H164.661V65.5881C164.661 68.5307 165.216 70.6233 166.36 71.833C167.471 73.0428 169.072 73.664 171.097 73.664C172.665 73.664 173.939 73.4352 174.985 72.9447C176.03 72.4543 176.88 71.833 177.501 71.0156C178.154 70.2309 178.611 69.25 178.905 68.1384C179.199 67.0267 179.33 65.817 179.33 64.5091V45.0549H186.714V78.5684ZM199.292 67.8114C199.521 69.9694 200.338 71.4734 201.742 72.3562C203.18 73.2063 204.879 73.664 206.872 73.664C207.558 73.664 208.342 73.5986 209.224 73.5005C210.106 73.4025 210.956 73.1736 211.707 72.8793C212.491 72.585 213.112 72.1273 213.635 71.5388C214.125 70.9502 214.353 70.1982 214.321 69.2501C214.288 68.3019 213.929 67.5171 213.275 66.9286C212.622 66.3074 211.805 65.8496 210.792 65.4573C209.779 65.0976 208.636 64.7707 207.329 64.5091C206.022 64.2475 204.715 63.9533 203.376 63.659C202.004 63.3647 200.664 62.9724 199.39 62.5473C198.116 62.1223 196.972 61.5338 195.96 60.7817C194.947 60.0624 194.13 59.1142 193.542 57.9699C192.921 56.8255 192.627 55.4196 192.627 53.7194C192.627 51.8884 193.085 50.3844 193.967 49.1419C194.849 47.8995 195.992 46.9186 197.332 46.1666C198.704 45.4146 200.207 44.8914 201.873 44.5645C203.539 44.2702 205.14 44.1067 206.643 44.1067C208.375 44.1067 210.041 44.3029 211.609 44.6626C213.177 45.0222 214.615 45.6108 215.889 46.4609C217.163 47.2783 218.208 48.3572 219.058 49.6651C219.907 50.9729 220.43 52.575 220.659 54.4387H212.948C212.589 52.6731 211.805 51.4634 210.531 50.8748C209.257 50.2536 207.786 49.9593 206.153 49.9593C205.63 49.9593 205.009 49.992 204.291 50.0901C203.572 50.1882 202.919 50.3517 202.265 50.5806C201.644 50.8094 201.122 51.1691 200.664 51.6268C200.239 52.0846 200.011 52.6731 200.011 53.4251C200.011 54.3406 200.338 55.0599 200.958 55.6158C201.579 56.1716 202.396 56.6293 203.409 57.0217C204.421 57.3814 205.565 57.7083 206.872 57.9699C208.179 58.2314 209.518 58.5257 210.89 58.82C212.23 59.1142 213.537 59.5066 214.843 59.9316C216.15 60.3567 217.294 60.9452 218.306 61.6972C219.319 62.4492 220.136 63.3647 220.757 64.4764C221.378 65.5881 221.704 66.994 221.704 68.6288C221.704 70.6233 221.247 72.2908 220.332 73.6967C219.417 75.07 218.241 76.2143 216.804 77.0644C215.366 77.9145 213.733 78.5684 211.968 78.9608C210.204 79.3531 208.44 79.5493 206.708 79.5493C204.585 79.5493 202.624 79.3205 200.828 78.83C199.031 78.3396 197.462 77.6202 196.156 76.6721C194.849 75.6912 193.803 74.4814 193.052 73.0428C192.3 71.6042 191.908 69.8713 191.843 67.8768H199.292V67.8114ZM223.664 45.0222H229.251V34.9518H236.635V45.0222H243.3V50.5479H236.635V68.4653C236.635 69.25 236.667 69.904 236.733 70.4925C236.798 71.0483 236.962 71.5388 237.19 71.9311C237.419 72.3235 237.778 72.6177 238.268 72.8139C238.758 73.0101 239.379 73.1082 240.229 73.1082C240.751 73.1082 241.274 73.1082 241.797 73.0755C242.32 73.0428 242.842 72.9774 243.365 72.8466V78.5684C242.548 78.6665 241.731 78.7319 240.98 78.83C240.196 78.9281 239.412 78.9608 238.595 78.9608C236.635 78.9608 235.067 78.7646 233.89 78.405C232.714 78.0453 231.767 77.4895 231.113 76.7702C230.427 76.0508 230.003 75.168 229.741 74.0891C229.513 73.0101 229.349 71.7677 229.317 70.3944V50.6133H223.73V45.0222H223.664ZM248.527 45.0222H255.519V49.567H255.649C256.695 47.6052 258.132 46.232 259.994 45.3819C261.857 44.5318 263.85 44.1067 266.039 44.1067C268.685 44.1067 270.972 44.5645 272.932 45.5127C274.892 46.4281 276.526 47.7033 277.833 49.3381C279.14 50.9729 280.087 52.8693 280.74 55.0272C281.394 57.1852 281.721 59.5066 281.721 61.9588C281.721 64.2148 281.427 66.4055 280.838 68.498C280.25 70.6233 279.368 72.487 278.192 74.1218C277.016 75.7566 275.513 77.0317 273.684 78.0126C271.854 78.9935 269.73 79.4839 267.247 79.4839C266.169 79.4839 265.091 79.3858 264.013 79.1897C262.935 78.9935 261.889 78.6665 260.909 78.2415C259.929 77.8164 258.982 77.2606 258.165 76.574C257.315 75.8874 256.629 75.1026 256.041 74.2198H255.911V90.9603H248.527V45.0222ZM274.337 61.828C274.337 60.324 274.141 58.8527 273.749 57.4141C273.357 55.9754 272.769 54.733 271.985 53.6213C271.201 52.5096 270.22 51.6268 269.077 50.9729C267.901 50.319 266.561 49.9593 265.058 49.9593C261.955 49.9593 259.602 51.0383 258.034 53.1962C256.466 55.3542 255.682 58.2315 255.682 61.828C255.682 63.5282 255.878 65.0976 256.303 66.5363C256.727 67.9749 257.315 69.2173 258.165 70.2636C258.982 71.3099 259.962 72.1273 261.105 72.7158C262.249 73.3371 263.588 73.6313 265.091 73.6313C266.79 73.6313 268.195 73.2717 269.371 72.585C270.547 71.8984 271.495 70.9829 272.246 69.904C272.997 68.7923 273.553 67.5499 273.88 66.1439C274.174 64.738 274.337 63.2994 274.337 61.828ZM287.373 32.238H294.756V39.235H287.373C287.373 39.235 287.373 32.238 287.373 32.238ZM287.373 45.0222H294.756V78.5684H287.373V45.0222ZM301.356 32.238H308.739V78.5684H301.356V32.238ZM331.38 79.4839C328.701 79.4839 326.316 79.0262 324.225 78.1434C322.134 77.2606 320.37 76.0181 318.9 74.4814C317.462 72.912 316.352 71.0483 315.6 68.8904C314.849 66.7324 314.457 64.3456 314.457 61.7626C314.457 59.2123 314.849 56.8582 315.6 54.7003C316.352 52.5423 317.462 50.6786 318.9 49.1092C320.337 47.5398 322.134 46.3301 324.225 45.4473C326.316 44.5645 328.701 44.1067 331.38 44.1067C334.059 44.1067 336.444 44.5645 338.535 45.4473C340.626 46.3301 342.39 47.5725 343.86 49.1092C345.298 50.6786 346.409 52.5423 347.16 54.7003C347.912 56.8582 348.304 59.2123 348.304 61.7626C348.304 64.3456 347.912 66.7324 347.16 68.8904C346.409 71.0483 345.298 72.912 343.86 74.4814C342.423 76.0508 340.626 77.2606 338.535 78.1434C336.444 79.0262 334.059 79.4839 331.38 79.4839ZM331.38 73.6313C333.014 73.6313 334.451 73.2717 335.66 72.585C336.869 71.8984 337.849 70.9829 338.633 69.8713C339.417 68.7596 339.973 67.4845 340.365 66.0785C340.724 64.6726 340.92 63.234 340.92 61.7626C340.92 60.324 340.724 58.9181 340.365 57.4794C340.005 56.0408 339.417 54.7984 338.633 53.6867C337.849 52.575 336.869 51.6922 335.66 51.0056C334.451 50.319 333.014 49.9593 331.38 49.9593C329.747 49.9593 328.309 50.319 327.1 51.0056C325.892 51.6922 324.911 52.6077 324.127 53.6867C323.343 54.7984 322.788 56.0408 322.396 57.4794C322.036 58.9181 321.84 60.324 321.84 61.7626C321.84 63.234 322.036 64.6726 322.396 66.0785C322.755 67.4845 323.343 68.7596 324.127 69.8713C324.911 70.9829 325.892 71.8984 327.1 72.585C328.309 73.3044 329.747 73.6313 331.38 73.6313ZM350.46 45.0222H356.047V34.9518H363.43V45.0222H370.095V50.5479H363.43V68.4653C363.43 69.25 363.463 69.904 363.528 70.4925C363.594 71.0483 363.757 71.5388 363.986 71.9311C364.214 72.3235 364.574 72.6177 365.064 72.8139C365.554 73.0101 366.175 73.1082 367.024 73.1082C367.547 73.1082 368.07 73.1082 368.592 73.0755C369.115 73.0428 369.638 72.9774 370.16 72.8466V78.5684C369.344 78.6665 368.527 78.7319 367.776 78.83C366.991 78.9281 366.207 78.9608 365.391 78.9608C363.43 78.9608 361.862 78.7646 360.686 78.405C359.51 78.0453 358.562 77.4895 357.909 76.7702C357.223 76.0508 356.798 75.168 356.537 74.0891C356.308 73.0101 356.145 71.7677 356.112 70.3944V50.6133H350.525V45.0222H350.46Z" fill="#1D1D1B"/>
<path d="M88.6359 32.2384H54.789L44.3343 0L33.847 32.2384L0 32.2057L27.4108 52.1503L16.9235 84.356L44.3343 64.4441L71.7125 84.356L61.2578 52.1503L88.6359 32.2384Z" fill="#00B67A"/>
<path d="M63.6101 59.4416L61.2578 52.1504L44.3344 64.4441L63.6101 59.4416Z" fill="#005128"/>
</svg>
