<svg width="374" height="189" viewBox="0 0 374 189" fill="none" xmlns="http://www.w3.org/2000/svg">
<path d="M100.261 32.238H137.734V39.235H123V78.5684H114.898V39.235H100.228L100.261 32.238ZM136.134 45.0222H143.06V51.4961H143.191C143.419 50.5806 143.844 49.6978 144.465 48.8477C145.085 47.9976 145.837 47.1802 146.719 46.4935C147.601 45.7742 148.581 45.2184 149.659 44.7606C150.737 44.3356 151.848 44.1067 152.959 44.1067C153.809 44.1067 154.429 44.1394 154.756 44.1721C155.083 44.2048 155.409 44.2702 155.769 44.3029V51.4307C155.246 51.3326 154.723 51.2672 154.168 51.2018C153.613 51.1364 153.09 51.1037 152.567 51.1037C151.326 51.1037 150.149 51.3653 149.039 51.8557C147.928 52.3462 146.98 53.0982 146.164 54.0463C145.347 55.0272 144.693 56.2043 144.203 57.6429C143.713 59.0815 143.485 60.7164 143.485 62.58V78.5357H136.101L136.134 45.0222ZM189.714 78.5684H182.461V73.8929H182.33C181.415 75.5931 180.076 76.9336 178.279 77.9472C176.482 78.9608 174.653 79.4839 172.79 79.4839C168.38 79.4839 165.178 78.405 163.218 76.2143C161.257 74.0237 160.277 70.7214 160.277 66.3074V45.0222H167.661V65.5881C167.661 68.5307 168.216 70.6233 169.36 71.833C170.471 73.0428 172.072 73.664 174.097 73.664C175.665 73.664 176.939 73.4352 177.985 72.9447C179.03 72.4543 179.88 71.833 180.501 71.0156C181.154 70.2309 181.611 69.25 181.905 68.1384C182.199 67.0267 182.33 65.817 182.33 64.5091V45.0549H189.714V78.5684ZM202.292 67.8114C202.521 69.9694 203.338 71.4734 204.742 72.3562C206.18 73.2063 207.879 73.664 209.872 73.664C210.558 73.664 211.342 73.5986 212.224 73.5005C213.106 73.4025 213.956 73.1736 214.707 72.8793C215.491 72.585 216.112 72.1273 216.635 71.5388C217.125 70.9502 217.353 70.1982 217.321 69.2501C217.288 68.3019 216.929 67.5171 216.275 66.9286C215.622 66.3074 214.805 65.8496 213.792 65.4573C212.779 65.0976 211.636 64.7707 210.329 64.5091C209.022 64.2475 207.715 63.9533 206.376 63.659C205.004 63.3647 203.664 62.9724 202.39 62.5473C201.116 62.1223 199.972 61.5338 198.96 60.7817C197.947 60.0624 197.13 59.1142 196.542 57.9699C195.921 56.8255 195.627 55.4196 195.627 53.7194C195.627 51.8884 196.085 50.3844 196.967 49.1419C197.849 47.8995 198.992 46.9186 200.332 46.1666C201.704 45.4146 203.207 44.8914 204.873 44.5645C206.539 44.2702 208.14 44.1067 209.643 44.1067C211.375 44.1067 213.041 44.3029 214.609 44.6626C216.177 45.0222 217.615 45.6108 218.889 46.4609C220.163 47.2783 221.208 48.3572 222.058 49.6651C222.907 50.9729 223.43 52.575 223.659 54.4387H215.948C215.589 52.6731 214.805 51.4634 213.531 50.8748C212.257 50.2536 210.786 49.9593 209.153 49.9593C208.63 49.9593 208.009 49.992 207.291 50.0901C206.572 50.1882 205.919 50.3517 205.265 50.5806C204.644 50.8094 204.122 51.1691 203.664 51.6268C203.239 52.0846 203.011 52.6731 203.011 53.4251C203.011 54.3406 203.338 55.0599 203.958 55.6158C204.579 56.1716 205.396 56.6293 206.409 57.0217C207.421 57.3814 208.565 57.7083 209.872 57.9699C211.179 58.2314 212.518 58.5257 213.89 58.82C215.23 59.1142 216.537 59.5066 217.843 59.9316C219.15 60.3567 220.294 60.9452 221.306 61.6972C222.319 62.4492 223.136 63.3647 223.757 64.4764C224.378 65.5881 224.704 66.994 224.704 68.6288C224.704 70.6233 224.247 72.2908 223.332 73.6967C222.417 75.07 221.241 76.2143 219.804 77.0644C218.366 77.9145 216.733 78.5684 214.968 78.9608C213.204 79.3531 211.44 79.5493 209.708 79.5493C207.585 79.5493 205.624 79.3205 203.828 78.83C202.031 78.3396 200.462 77.6202 199.156 76.6721C197.849 75.6912 196.803 74.4814 196.052 73.0428C195.3 71.6042 194.908 69.8713 194.843 67.8768H202.292V67.8114ZM226.664 45.0222H232.251V34.9518H239.635V45.0222H246.3V50.5479H239.635V68.4653C239.635 69.25 239.667 69.904 239.733 70.4925C239.798 71.0483 239.962 71.5388 240.19 71.9311C240.419 72.3235 240.778 72.6177 241.268 72.8139C241.758 73.0101 242.379 73.1082 243.229 73.1082C243.751 73.1082 244.274 73.1082 244.797 73.0755C245.32 73.0428 245.842 72.9774 246.365 72.8466V78.5684C245.548 78.6665 244.731 78.7319 243.98 78.83C243.196 78.9281 242.412 78.9608 241.595 78.9608C239.635 78.9608 238.067 78.7646 236.89 78.405C235.714 78.0453 234.767 77.4895 234.113 76.7702C233.427 76.0508 233.003 75.168 232.741 74.0891C232.513 73.0101 232.349 71.7677 232.317 70.3944V50.6133H226.73V45.0222H226.664ZM251.527 45.0222H258.519V49.567H258.649C259.695 47.6052 261.132 46.232 262.994 45.3819C264.857 44.5318 266.85 44.1067 269.039 44.1067C271.685 44.1067 273.972 44.5645 275.932 45.5127C277.892 46.4281 279.526 47.7033 280.833 49.3381C282.14 50.9729 283.087 52.8693 283.74 55.0272C284.394 57.1852 284.721 59.5066 284.721 61.9588C284.721 64.2148 284.427 66.4055 283.838 68.498C283.25 70.6233 282.368 72.487 281.192 74.1218C280.016 75.7566 278.513 77.0317 276.684 78.0126C274.854 78.9935 272.73 79.4839 270.247 79.4839C269.169 79.4839 268.091 79.3858 267.013 79.1897C265.935 78.9935 264.889 78.6665 263.909 78.2415C262.929 77.8164 261.982 77.2606 261.165 76.574C260.315 75.8874 259.629 75.1026 259.041 74.2198H258.911V90.9603H251.527V45.0222ZM277.337 61.828C277.337 60.324 277.141 58.8527 276.749 57.4141C276.357 55.9754 275.769 54.733 274.985 53.6213C274.201 52.5096 273.22 51.6268 272.077 50.9729C270.901 50.319 269.561 49.9593 268.058 49.9593C264.955 49.9593 262.602 51.0383 261.034 53.1962C259.466 55.3542 258.682 58.2315 258.682 61.828C258.682 63.5282 258.878 65.0976 259.303 66.5363C259.727 67.9749 260.315 69.2173 261.165 70.2636C261.982 71.3099 262.962 72.1273 264.105 72.7158C265.249 73.3371 266.588 73.6313 268.091 73.6313C269.79 73.6313 271.195 73.2717 272.371 72.585C273.547 71.8984 274.495 70.9829 275.246 69.904C275.997 68.7923 276.553 67.5499 276.88 66.1439C277.174 64.738 277.337 63.2994 277.337 61.828ZM290.373 32.238H297.756V39.235H290.373C290.373 39.235 290.373 32.238 290.373 32.238ZM290.373 45.0222H297.756V78.5684H290.373V45.0222ZM304.356 32.238H311.739V78.5684H304.356V32.238ZM334.38 79.4839C331.701 79.4839 329.316 79.0262 327.225 78.1434C325.134 77.2606 323.37 76.0181 321.9 74.4814C320.462 72.912 319.352 71.0483 318.6 68.8904C317.849 66.7324 317.457 64.3456 317.457 61.7626C317.457 59.2123 317.849 56.8582 318.6 54.7003C319.352 52.5423 320.462 50.6786 321.9 49.1092C323.337 47.5398 325.134 46.3301 327.225 45.4473C329.316 44.5645 331.701 44.1067 334.38 44.1067C337.059 44.1067 339.444 44.5645 341.535 45.4473C343.626 46.3301 345.39 47.5725 346.86 49.1092C348.298 50.6786 349.409 52.5423 350.16 54.7003C350.912 56.8582 351.304 59.2123 351.304 61.7626C351.304 64.3456 350.912 66.7324 350.16 68.8904C349.409 71.0483 348.298 72.912 346.86 74.4814C345.423 76.0508 343.626 77.2606 341.535 78.1434C339.444 79.0262 337.059 79.4839 334.38 79.4839ZM334.38 73.6313C336.014 73.6313 337.451 73.2717 338.66 72.585C339.869 71.8984 340.849 70.9829 341.633 69.8713C342.417 68.7596 342.973 67.4845 343.365 66.0785C343.724 64.6726 343.92 63.234 343.92 61.7626C343.92 60.324 343.724 58.9181 343.365 57.4794C343.005 56.0408 342.417 54.7984 341.633 53.6867C340.849 52.575 339.869 51.6922 338.66 51.0056C337.451 50.319 336.014 49.9593 334.38 49.9593C332.747 49.9593 331.309 50.319 330.1 51.0056C328.892 51.6922 327.911 52.6077 327.127 53.6867C326.343 54.7984 325.788 56.0408 325.396 57.4794C325.036 58.9181 324.84 60.324 324.84 61.7626C324.84 63.234 325.036 64.6726 325.396 66.0785C325.755 67.4845 326.343 68.7596 327.127 69.8713C327.911 70.9829 328.892 71.8984 330.1 72.585C331.309 73.3044 332.747 73.6313 334.38 73.6313ZM353.46 45.0222H359.047V34.9518H366.43V45.0222H373.095V50.5479H366.43V68.4653C366.43 69.25 366.463 69.904 366.528 70.4925C366.594 71.0483 366.757 71.5388 366.986 71.9311C367.214 72.3235 367.574 72.6177 368.064 72.8139C368.554 73.0101 369.175 73.1082 370.024 73.1082C370.547 73.1082 371.07 73.1082 371.592 73.0755C372.115 73.0428 372.638 72.9774 373.16 72.8466V78.5684C372.344 78.6665 371.527 78.7319 370.776 78.83C369.991 78.9281 369.207 78.9608 368.391 78.9608C366.43 78.9608 364.862 78.7646 363.686 78.405C362.51 78.0453 361.562 77.4895 360.909 76.7702C360.223 76.0508 359.798 75.168 359.537 74.0891C359.308 73.0101 359.145 71.7677 359.112 70.3944V50.6133H353.525V45.0222H353.46Z" fill="#1D1D1B"/>
<path d="M91.6359 32.2384H57.789L47.3343 0L36.847 32.2384L3 32.2057L30.4108 52.1503L19.9235 84.356L47.3343 64.4441L74.7125 84.356L64.2578 52.1503L91.6359 32.2384Z" fill="#00B67A"/>
<path d="M66.6101 59.4416L64.2578 52.1504L47.3344 64.4441L66.6101 59.4416Z" fill="#005128"/>
<rect width="70.6326" height="68.1877" transform="translate(0 120)" fill="#00B67A"/>
<path d="M60.6326 148.416H41.2978L35.3256 130L29.3348 148.416L10 148.397L25.6582 159.79L19.6674 178.188L35.3256 166.813L50.9652 178.188L44.9931 159.79L60.6326 148.416Z" fill="white"/>
<path d="M46.3368 163.956L44.9931 159.791L35.3257 166.813L46.3368 163.956Z" fill="#00B67A"/>
<rect width="70.6326" height="68.1877" transform="translate(75.6326 120)" fill="#00B67A"/>
<path d="M136.265 148.416H116.93L110.958 130L104.967 148.416L85.6326 148.397L101.291 159.79L95.3 178.188L110.958 166.813L126.598 178.188L120.626 159.79L136.265 148.416Z" fill="white"/>
<path d="M121.969 163.956L120.626 159.791L110.958 166.813L121.969 163.956Z" fill="#00B67A"/>
<rect width="70.6326" height="68.1877" transform="translate(151.265 120)" fill="#00B67A"/>
<path d="M211.898 148.416H192.563L186.591 130L180.6 148.416L161.265 148.397L176.923 159.79L170.933 178.188L186.591 166.813L202.23 178.188L196.258 159.79L211.898 148.416Z" fill="white"/>
<path d="M197.602 163.956L196.258 159.791L186.591 166.813L197.602 163.956Z" fill="#00B67A"/>
<rect width="70.6326" height="68.1877" transform="translate(226.898 120)" fill="#00B67A"/>
<path d="M287.531 148.416H268.196L262.224 130L256.233 148.416L236.898 148.397L252.556 159.79L246.565 178.188L262.224 166.813L277.863 178.188L271.891 159.79L287.531 148.416Z" fill="white"/>
<path d="M273.235 163.956L271.891 159.791L262.224 166.813L273.235 163.956Z" fill="#00B67A"/>
<rect width="70.6326" height="68.1877" transform="translate(302.531 120)" fill="#00B67A"/>
<path d="M363.163 148.416H343.828L337.856 130L331.865 148.416L312.531 148.397L328.189 159.79L322.198 178.188L337.856 166.813L353.496 178.188L347.524 159.79L363.163 148.416Z" fill="white"/>
<path d="M348.867 163.956L347.524 159.791L337.856 166.813L348.867 163.956Z" fill="#00B67A"/>
</svg>
