<svg width="40" height="23" viewBox="0 0 40 23" fill="none" xmlns="http://www.w3.org/2000/svg">
<rect x="0.5" y="0.5" width="39" height="22" rx="6.5" stroke="#E1E1E1"/>
<mask id="mask0_1745_17" style="mask-type:luminance" maskUnits="userSpaceOnUse" x="3" y="6" width="34" height="11">
<path d="M20.1734 9.8093C20.1544 11.2816 21.5045 12.1033 22.5216 12.5918C23.5666 13.0931 23.9175 13.4145 23.9136 13.8627C23.9056 14.5487 23.08 14.8514 22.3072 14.8632C20.9591 14.8839 20.1754 14.5045 19.5522 14.2175L19.0666 16.4575C19.6918 16.7415 20.8494 16.9892 22.0499 17C24.8678 17 26.7115 15.6289 26.7214 13.5029C26.7324 10.8049 22.9354 10.6556 22.9613 9.44957C22.9703 9.08394 23.3243 8.69374 24.1 8.59447C24.4839 8.54434 25.5439 8.50601 26.7454 9.0515L27.217 6.88426C26.5709 6.65231 25.7403 6.43018 24.7063 6.43018C22.0539 6.43018 20.1883 7.81996 20.1734 9.8093ZM31.7489 6.61692C31.2344 6.61692 30.8007 6.91277 30.6072 7.36685L26.5819 16.8408H29.3977L29.9581 15.3144H33.3991L33.7242 16.8408H36.206L34.0403 6.61692H31.7489ZM32.1428 9.3788L32.9554 13.2179H30.7299L32.1428 9.3788ZM16.7592 6.61692L14.5396 16.8408H17.2229L19.4415 6.61692H16.7592ZM12.7897 6.61692L9.99678 13.5757L8.86705 7.65877C8.73443 6.99828 8.21095 6.61692 7.62963 6.61692H3.06382L3 6.91375C3.93729 7.11426 5.00221 7.43762 5.64735 7.78359C6.04221 7.99491 6.15488 8.17969 6.2845 8.68194L8.42433 16.8408H11.2601L15.6076 6.61692H12.7897Z" fill="white"/>
</mask>
<g mask="url(#mask0_1745_17)">
<path d="M-0.47728 7.69247L32.2405 -4.18458L39.6837 15.7379L6.96621 27.615" fill="url(#paint0_linear_1745_17)"/>
</g>
<defs>
<linearGradient id="paint0_linear_1745_17" x1="6.00795" y1="16.6787" x2="33.8963" y2="6.259" gradientUnits="userSpaceOnUse">
<stop stop-color="#222357"/>
<stop offset="1" stop-color="#254AA5"/>
</linearGradient>
</defs>
</svg>
