<svg width="18" height="17" viewBox="0 0 18 17" fill="none" xmlns="http://www.w3.org/2000/svg">
<path d="M13.5849 9.71436C14.0679 9.71436 14.5312 9.90626 14.8728 10.2478C15.2144 10.5894 15.4063 11.0527 15.4063 11.5358V11.9699C15.4063 14.1416 12.8502 15.7858 9.33486 15.7858C5.8195 15.7858 3.26343 14.2272 3.26343 11.9699V11.5358C3.26343 11.0527 3.45533 10.5894 3.79691 10.2478C4.1385 9.90626 4.60178 9.71436 5.08486 9.71436H13.5849ZM13.5849 10.6251H5.08486C4.85856 10.6251 4.64036 10.7093 4.47279 10.8614C4.30522 11.0135 4.20027 11.2225 4.17839 11.4477L4.17414 11.5358V11.9699C4.17414 13.5934 6.23175 14.8751 9.33486 14.8751C12.3256 14.8751 14.4075 13.597 14.4925 12.0676L14.4956 11.9699V11.5358C14.4956 11.3095 14.4113 11.0913 14.2592 10.9237C14.1072 10.7561 13.8981 10.6512 13.6729 10.6293L13.5849 10.6251ZM9.33486 1.21436C9.81324 1.21436 10.2869 1.30858 10.7289 1.49165C11.1709 1.67472 11.5725 1.94305 11.9107 2.28132C12.249 2.61959 12.5173 3.02118 12.7004 3.46315C12.8835 3.90512 12.9777 4.37883 12.9777 4.85721C12.9777 5.3356 12.8835 5.8093 12.7004 6.25127C12.5173 6.69325 12.249 7.09483 11.9107 7.4331C11.5725 7.77137 11.1709 8.0397 10.7289 8.22277C10.2869 8.40584 9.81324 8.50007 9.33486 8.50007C8.36871 8.50007 7.44214 8.11627 6.75897 7.4331C6.0758 6.74993 5.692 5.82336 5.692 4.85721C5.692 3.89107 6.0758 2.96449 6.75897 2.28132C7.44214 1.59816 8.36871 1.21436 9.33486 1.21436ZM9.33486 2.12507C8.61025 2.12507 7.91532 2.41292 7.40294 2.9253C6.89056 3.43767 6.60271 4.1326 6.60271 4.85721C6.60271 5.58182 6.89056 6.27675 7.40294 6.78913C7.91532 7.30151 8.61025 7.58936 9.33486 7.58936C10.0595 7.58936 10.7544 7.30151 11.2668 6.78913C11.7791 6.27675 12.067 5.58182 12.067 4.85721C12.067 4.1326 11.7791 3.43767 11.2668 2.9253C10.7544 2.41292 10.0595 2.12507 9.33486 2.12507Z" fill="white"/>
</svg>
