<svg width="18" height="17" viewBox="0 0 18 17" fill="none" xmlns="http://www.w3.org/2000/svg">
<g id="fluent:person-28-regular">
<path id="Vector" d="M13.5831 9.71436C14.0662 9.71436 14.5295 9.90626 14.8711 10.2478C15.2127 10.5894 15.4046 11.0527 15.4046 11.5358V11.9699C15.4046 14.1416 12.8485 15.7858 9.33315 15.7858C5.81779 15.7858 3.26172 14.2272 3.26172 11.9699V11.5358C3.26172 11.0527 3.45362 10.5894 3.7952 10.2478C4.13679 9.90626 4.60007 9.71436 5.08315 9.71436H13.5831ZM13.5831 10.6251H5.08315C4.85685 10.6251 4.63866 10.7093 4.47108 10.8614C4.30351 11.0135 4.19856 11.2225 4.17668 11.4477L4.17243 11.5358V11.9699C4.17243 13.5934 6.23004 14.8751 9.33315 14.8751C12.3239 14.8751 14.4058 13.597 14.4908 12.0676L14.4939 11.9699V11.5358C14.4939 11.3095 14.4096 11.0913 14.2575 10.9237C14.1054 10.7561 13.8964 10.6512 13.6712 10.6293L13.5831 10.6251ZM9.33315 1.21436C9.81153 1.21436 10.2852 1.30858 10.7272 1.49165C11.1692 1.67472 11.5708 1.94305 11.909 2.28132C12.2473 2.61959 12.5156 3.02118 12.6987 3.46315C12.8818 3.90512 12.976 4.37883 12.976 4.85721C12.976 5.3356 12.8818 5.8093 12.6987 6.25127C12.5156 6.69325 12.2473 7.09483 11.909 7.4331C11.5708 7.77137 11.1692 8.0397 10.7272 8.22277C10.2852 8.40584 9.81153 8.50007 9.33315 8.50007C8.367 8.50007 7.44043 8.11627 6.75726 7.4331C6.07409 6.74993 5.69029 5.82336 5.69029 4.85721C5.69029 3.89107 6.07409 2.96449 6.75726 2.28132C7.44043 1.59816 8.367 1.21436 9.33315 1.21436ZM9.33315 2.12507C8.60854 2.12507 7.91361 2.41292 7.40123 2.9253C6.88885 3.43767 6.601 4.1326 6.601 4.85721C6.601 5.58182 6.88885 6.27675 7.40123 6.78913C7.91361 7.30151 8.60854 7.58936 9.33315 7.58936C10.0578 7.58936 10.7527 7.30151 11.2651 6.78913C11.7774 6.27675 12.0653 5.58182 12.0653 4.85721C12.0653 4.1326 11.7774 3.43767 11.2651 2.9253C10.7527 2.41292 10.0578 2.12507 9.33315 2.12507Z" fill="#161616"/>
</g>
</svg>
