<svg width="72" height="28" viewBox="0 0 72 28" fill="none" xmlns="http://www.w3.org/2000/svg">
<path d="M19.8917 23.66C18.7484 24.7683 17.5 24.5933 16.2984 24.0683C15.0267 23.5317 13.86 23.5083 12.5184 24.0683C10.8384 24.7917 9.9517 24.5817 8.94836 23.66C3.25503 17.7917 4.09503 8.855 10.5584 8.52833C12.1334 8.61 13.23 9.39167 14.1517 9.46167C15.5284 9.18167 16.8467 8.37667 18.3167 8.48167C20.0784 8.62167 21.4084 9.32167 22.2834 10.5817C18.6434 12.7633 19.5067 17.5583 22.8434 18.9C22.1784 20.65 21.315 22.3883 19.88 23.6717L19.8917 23.66ZM14.035 8.45833C13.86 5.85667 15.9717 3.71 18.3984 3.5C18.7367 6.51 15.6684 8.75 14.035 8.45833Z" fill="white"/>
<path d="M40 7H44.52C45.24 7 45.8933 7.10667 46.48 7.32C47.0667 7.52 47.5667 7.81333 47.98 8.2C48.4067 8.57333 48.7333 9.03333 48.96 9.58C49.2 10.1133 49.32 10.72 49.32 11.4V11.5C49.32 12.18 49.2067 12.7933 48.98 13.34C48.7533 13.8867 48.4333 14.36 48.02 14.76C47.6067 15.1467 47.1067 15.4467 46.52 15.66C45.9333 15.86 45.28 15.96 44.56 15.96H41.6V21H40V7ZM44.52 14.44C45.52 14.44 46.2867 14.1867 46.82 13.68C47.3667 13.16 47.64 12.44 47.64 11.52V11.42C47.64 10.5 47.3667 9.78667 46.82 9.28C46.2733 8.77333 45.5067 8.52 44.52 8.52H41.6V14.44H44.52ZM54.4359 21.16C53.9026 21.16 53.4093 21.0867 52.9559 20.94C52.5159 20.78 52.1359 20.5667 51.8159 20.3C51.4959 20.02 51.2426 19.6867 51.0559 19.3C50.8826 18.9133 50.7959 18.4867 50.7959 18.02V17.98C50.7959 15.7267 52.9226 14.6 57.1759 14.6H58.1159V13.88C58.1159 13.2533 57.8826 12.7733 57.4159 12.44C56.9626 12.0933 56.3426 11.92 55.5559 11.92H55.5159C54.9426 11.92 54.3359 12.02 53.6959 12.22C53.0693 12.4067 52.5226 12.6733 52.0559 13.02L51.3159 11.8C51.9826 11.3733 52.6693 11.04 53.3759 10.8C54.0826 10.5467 54.8226 10.42 55.5959 10.42H55.6359C56.1693 10.42 56.6759 10.4933 57.1559 10.64C57.6359 10.7733 58.0559 10.98 58.4159 11.26C58.7759 11.5267 59.0626 11.8733 59.2759 12.3C59.4893 12.7133 59.5959 13.2 59.5959 13.76V19.3C59.5959 19.58 59.6293 19.88 59.6959 20.2C59.7759 20.5067 59.8626 20.7733 59.9559 21H58.4359C58.3693 20.8533 58.3093 20.66 58.2559 20.42C58.2159 20.18 58.1826 19.9467 58.1559 19.72C57.6093 20.2 57.0159 20.56 56.3759 20.8C55.7493 21.04 55.1026 21.16 54.4359 21.16ZM54.4559 19.68C55.2159 19.68 55.9093 19.5333 56.5359 19.24C57.1626 18.9333 57.6893 18.54 58.1159 18.06V15.98H57.4759C55.6759 15.98 54.3626 16.1467 53.5359 16.48C52.7226 16.8 52.3159 17.3067 52.3159 18V18.04C52.3159 18.5333 52.5093 18.9333 52.8959 19.24C53.2959 19.5333 53.8159 19.68 54.4559 19.68ZM63.7288 24.92C63.5288 24.92 63.2821 24.8933 62.9888 24.84C62.6954 24.8 62.4221 24.7067 62.1688 24.56V23.2C62.6754 23.4 63.1088 23.5 63.4688 23.5C64.0288 23.5 64.5021 23.3067 64.8888 22.92C65.2888 22.5467 65.6221 22.0533 65.8888 21.44L61.1688 10.6H62.8488L66.5688 19.28H66.7088L69.8488 10.6H71.4488L67.5088 21.46C67.3354 21.9667 67.1288 22.4267 66.8888 22.84C66.6621 23.2667 66.3954 23.6333 66.0888 23.94C65.7954 24.2467 65.4554 24.4867 65.0688 24.66C64.6821 24.8333 64.2354 24.92 63.7288 24.92Z" fill="white"/>
<path d="M40 7V6.8H39.8V7H40ZM46.48 7.32L46.4116 7.508L46.4155 7.5093L46.48 7.32ZM47.98 8.2L47.8433 8.34613L47.8483 8.35051L47.98 8.2ZM48.96 9.58L48.7752 9.65664L48.7776 9.66207L48.96 9.58ZM48.02 14.76L48.1567 14.9061L48.1591 14.9037L48.02 14.76ZM46.52 15.66L46.5845 15.8493L46.5883 15.848L46.52 15.66ZM41.6 15.96V15.76H41.4V15.96H41.6ZM41.6 21V21.2H41.8V21H41.6ZM40 21H39.8V21.2H40V21ZM46.82 13.68L46.9578 13.825L46.9578 13.8249L46.82 13.68ZM41.6 8.52V8.32H41.4V8.52H41.6ZM41.6 14.44H41.4V14.64H41.6V14.44ZM40 7.2H44.52V6.8H40V7.2ZM44.52 7.2C45.2202 7.2 45.85 7.30371 46.4117 7.50796L46.5483 7.13204C45.9367 6.90962 45.2598 6.8 44.52 6.8V7.2ZM46.4155 7.5093C46.9779 7.70104 47.4526 7.98053 47.8434 8.34605L48.1166 8.05394C47.6807 7.64614 47.1555 7.33896 46.5445 7.1307L46.4155 7.5093ZM47.8483 8.35051C48.2508 8.70272 48.5598 9.13704 48.7753 9.6566L49.1447 9.5034C48.9068 8.92962 48.5625 8.44395 48.1117 8.04948L47.8483 8.35051ZM48.7776 9.66207C49.0043 10.1657 49.12 10.7437 49.12 11.4H49.52C49.52 10.6963 49.3957 10.0609 49.1424 9.49793L48.7776 9.66207ZM49.12 11.4V11.5H49.52V11.4H49.12ZM49.12 11.5C49.12 12.1576 49.0105 12.7444 48.7953 13.2634L49.1647 13.4166C49.4029 12.8423 49.52 12.2024 49.52 11.5H49.12ZM48.7953 13.2634C48.5787 13.7856 48.274 14.2358 47.8809 14.6163L48.1591 14.9037C48.5926 14.4841 48.9279 13.9878 49.1647 13.4166L48.7953 13.2634ZM47.8834 14.6139C47.4917 14.9804 47.0156 15.267 46.4517 15.472L46.5883 15.848C47.1977 15.6264 47.7217 15.313 48.1566 14.9061L47.8834 14.6139ZM46.4555 15.4707C45.8926 15.6626 45.2615 15.76 44.56 15.76V16.16C45.2985 16.16 45.974 16.0574 46.5845 15.8493L46.4555 15.4707ZM44.56 15.76H41.6V16.16H44.56V15.76ZM41.4 15.96V21H41.8V15.96H41.4ZM41.6 20.8H40V21.2H41.6V20.8ZM40.2 21V7H39.8V21H40.2ZM44.52 14.64C45.5525 14.64 46.3756 14.3781 46.9578 13.825L46.6823 13.535C46.1978 13.9953 45.4875 14.24 44.52 14.24V14.64ZM46.9578 13.8249C47.5527 13.2591 47.84 12.4819 47.84 11.52H47.44C47.44 12.3981 47.1807 13.0609 46.6822 13.5351L46.9578 13.8249ZM47.84 11.52V11.42H47.44V11.52H47.84ZM47.84 11.42C47.84 10.4583 47.5527 9.6864 46.956 9.13331L46.684 9.42669C47.1806 9.88693 47.44 10.5417 47.44 11.42H47.84ZM46.956 9.13331C46.3616 8.58249 45.5404 8.32 44.52 8.32V8.72C45.473 8.72 46.185 8.96417 46.684 9.42669L46.956 9.13331ZM44.52 8.32H41.6V8.72H44.52V8.32ZM41.4 8.52V14.44H41.8V8.52H41.4ZM41.6 14.64H44.52V14.24H41.6V14.64ZM52.9559 20.94L52.8875 21.1281L52.8944 21.1303L52.9559 20.94ZM51.8159 20.3L51.6842 20.4506L51.6879 20.4536L51.8159 20.3ZM51.0559 19.3L50.8734 19.3818L50.8758 19.3869L51.0559 19.3ZM58.1159 14.6V14.8H58.3159V14.6H58.1159ZM57.4159 12.44L57.2944 12.599L57.2997 12.6027L57.4159 12.44ZM53.6959 12.22L53.753 12.4117L53.7556 12.4109L53.6959 12.22ZM52.0559 13.02L51.8849 13.1237L51.9989 13.3115L52.1752 13.1805L52.0559 13.02ZM51.3159 11.8L51.2081 11.6315L51.0437 11.7368L51.1449 11.9037L51.3159 11.8ZM53.3759 10.8L53.4403 10.9894L53.4434 10.9883L53.3759 10.8ZM57.1559 10.64L57.0975 10.8313L57.1024 10.8327L57.1559 10.64ZM58.4159 11.26L58.2931 11.4179L58.2969 11.4207L58.4159 11.26ZM59.2759 12.3L59.097 12.3894L59.0982 12.3917L59.2759 12.3ZM59.6959 20.2L59.4999 20.2408L59.5024 20.2505L59.6959 20.2ZM59.9559 21V21.2H60.2546L60.1409 20.9238L59.9559 21ZM58.4359 21L58.2539 21.0828L58.3072 21.2H58.4359V21ZM58.2559 20.42L58.0584 20.4529L58.0607 20.4634L58.2559 20.42ZM58.1559 19.72L58.3546 19.6966L58.3101 19.3185L58.024 19.5697L58.1559 19.72ZM56.3759 20.8L56.3057 20.6127L56.3044 20.6132L56.3759 20.8ZM56.5359 19.24L56.6207 19.4212L56.6238 19.4196L56.5359 19.24ZM58.1159 18.06L58.2654 18.1929L58.3159 18.136V18.06H58.1159ZM58.1159 15.98H58.3159V15.78H58.1159V15.98ZM53.5359 16.48L53.6092 16.6661L53.6107 16.6655L53.5359 16.48ZM52.8959 19.24L52.7716 19.3968L52.7777 19.4013L52.8959 19.24ZM54.4359 20.96C53.921 20.96 53.4487 20.8892 53.0175 20.7497L52.8944 21.1303C53.3698 21.2841 53.8842 21.36 54.4359 21.36V20.96ZM53.0243 20.752C52.6033 20.599 52.2442 20.3965 51.944 20.1464L51.6879 20.4536C52.0277 20.7368 52.4285 20.961 52.8876 21.128L53.0243 20.752ZM51.9476 20.1495C51.6481 19.8874 51.4111 19.5757 51.236 19.2131L50.8758 19.3869C51.0741 19.7976 51.3438 20.1526 51.6842 20.4505L51.9476 20.1495ZM51.2384 19.2182C51.0778 18.8598 50.9959 18.4613 50.9959 18.02H50.5959C50.5959 18.512 50.6874 18.9669 50.8734 19.3818L51.2384 19.2182ZM50.9959 18.02V17.98H50.5959V18.02H50.9959ZM50.9959 17.98C50.9959 17.4494 51.1207 16.9944 51.364 16.6078C51.6077 16.2204 51.9775 15.8904 52.4846 15.6217C53.5047 15.0813 55.0604 14.8 57.1759 14.8V14.4C55.0381 14.4 53.4039 14.682 52.2973 15.2683C51.7411 15.563 51.3134 15.9371 51.0254 16.3947C50.737 16.8531 50.5959 17.384 50.5959 17.98H50.9959ZM57.1759 14.8H58.1159V14.4H57.1759V14.8ZM58.3159 14.6V13.88H57.9159V14.6H58.3159ZM58.3159 13.88C58.3159 13.1957 58.0569 12.652 57.5322 12.2773L57.2997 12.6027C57.7084 12.8947 57.9159 13.3109 57.9159 13.88H58.3159ZM57.5374 12.2811C57.0381 11.8993 56.3702 11.72 55.5559 11.72V12.12C56.315 12.12 56.8871 12.2873 57.2944 12.5989L57.5374 12.2811ZM55.5559 11.72H55.5159V12.12H55.5559V11.72ZM55.5159 11.72C54.9193 11.72 54.2924 11.8241 53.6363 12.0291L53.7556 12.4109C54.3795 12.2159 54.9659 12.12 55.5159 12.12V11.72ZM53.6388 12.0283C52.9926 12.2208 52.4243 12.4972 51.9367 12.8595L52.1752 13.1805C52.6209 12.8494 53.146 12.5925 53.753 12.4117L53.6388 12.0283ZM52.2269 12.9163L51.4869 11.6963L51.1449 11.9037L51.8849 13.1237L52.2269 12.9163ZM51.4237 11.9685C52.0776 11.55 52.7498 11.2239 53.4403 10.9894L53.3116 10.6106C52.5888 10.8561 51.8876 11.1967 51.2081 11.6315L51.4237 11.9685ZM53.4434 10.9883C54.1278 10.7429 54.8449 10.62 55.5959 10.62V10.22C54.8003 10.22 54.0374 10.3504 53.3084 10.6117L53.4434 10.9883ZM55.5959 10.62H55.6359V10.22H55.5959V10.62ZM55.6359 10.62C56.1507 10.62 56.6376 10.6907 57.0975 10.8313L57.2144 10.4487C56.7143 10.2959 56.1878 10.22 55.6359 10.22V10.62ZM57.1024 10.8327C57.5596 10.9597 57.9556 11.1553 58.2931 11.4179L58.5387 11.1021C58.1563 10.8047 57.7123 10.587 57.2095 10.4473L57.1024 10.8327ZM58.2969 11.4207C58.63 11.6675 58.8969 11.989 59.0971 12.3894L59.4548 12.2106C59.2284 11.7576 58.9219 11.3859 58.535 11.0993L58.2969 11.4207ZM59.0982 12.3917C59.2942 12.7715 59.3959 13.2255 59.3959 13.76H59.7959C59.7959 13.1745 59.6843 12.6552 59.4537 12.2083L59.0982 12.3917ZM59.3959 13.76V19.3H59.7959V13.76H59.3959ZM59.3959 19.3C59.3959 19.5958 59.4311 19.9095 59.5001 20.2408L59.8917 20.1592C59.8274 19.8505 59.7959 19.5642 59.7959 19.3H59.3959ZM59.5024 20.2505C59.5841 20.5635 59.6734 20.8391 59.771 21.0762L60.1409 20.9238C60.0518 20.7075 59.9678 20.4498 59.8895 20.1495L59.5024 20.2505ZM59.9559 20.8H58.4359V21.2H59.9559V20.8ZM58.618 20.9172C58.5592 20.788 58.5029 20.6093 58.4512 20.3766L58.0607 20.4634C58.1156 20.7107 58.1793 20.9187 58.2539 21.0828L58.618 20.9172ZM58.4532 20.3871C58.4137 20.1501 58.3808 19.9199 58.3546 19.6966L57.9573 19.7434C57.9844 19.9734 58.0182 20.2099 58.0587 20.4529L58.4532 20.3871ZM58.024 19.5697C57.4943 20.0348 56.9216 20.3818 56.3057 20.6127L56.4462 20.9873C57.1102 20.7382 57.7242 20.3652 58.2879 19.8703L58.024 19.5697ZM56.3044 20.6132C55.7004 20.8445 55.078 20.96 54.4359 20.96V21.36C55.1272 21.36 55.7981 21.2355 56.4475 20.9868L56.3044 20.6132ZM54.4559 19.88C55.2423 19.88 55.965 19.7281 56.6207 19.4211L56.4511 19.0589C55.8535 19.3386 55.1896 19.48 54.4559 19.48V19.88ZM56.6238 19.4196C57.2719 19.1025 57.82 18.6939 58.2654 18.1929L57.9665 17.9271C57.5585 18.3861 57.0534 18.7641 56.448 19.0604L56.6238 19.4196ZM58.3159 18.06V15.98H57.9159V18.06H58.3159ZM58.1159 15.78H57.4759V16.18H58.1159V15.78ZM57.4759 15.78C55.6711 15.78 54.3253 15.9461 53.4611 16.2945L53.6107 16.6655C54.3999 16.3473 55.6808 16.18 57.4759 16.18V15.78ZM53.4627 16.2939C53.0344 16.4624 52.6964 16.6865 52.465 16.9748C52.2311 17.2661 52.1159 17.6111 52.1159 18H52.5159C52.5159 17.6956 52.6041 17.4405 52.7769 17.2252C52.9522 17.0068 53.2241 16.8176 53.6092 16.6661L53.4627 16.2939ZM52.1159 18V18.04H52.5159V18H52.1159ZM52.1159 18.04C52.1159 18.5944 52.3372 19.0521 52.7717 19.3967L53.0202 19.0833C52.6814 18.8146 52.5159 18.4723 52.5159 18.04H52.1159ZM52.7777 19.4013C53.2208 19.7262 53.7858 19.88 54.4559 19.88V19.48C53.8461 19.48 53.3711 19.3405 53.0142 19.0787L52.7777 19.4013ZM62.9888 24.84L63.0246 24.643L63.0158 24.6418L62.9888 24.84ZM62.1688 24.56H61.9688V24.6753L62.0685 24.7331L62.1688 24.56ZM62.1688 23.2L62.2422 23.014L61.9688 22.906V23.2H62.1688ZM64.8888 22.92L64.7522 22.7737L64.7473 22.7786L64.8888 22.92ZM65.8888 21.44L66.0722 21.5197L66.1069 21.4399L66.0721 21.3602L65.8888 21.44ZM61.1688 10.6V10.4H60.8635L60.9854 10.6798L61.1688 10.6ZM62.8487 10.6L63.0326 10.5212L62.9806 10.4H62.8487V10.6ZM66.5688 19.28L66.3849 19.3588L66.4369 19.48H66.5688V19.28ZM66.7087 19.28V19.48H66.8491L66.8968 19.348L66.7087 19.28ZM69.8488 10.6V10.4H69.7084L69.6607 10.532L69.8488 10.6ZM71.4487 10.6L71.6368 10.6682L71.7341 10.4H71.4487V10.6ZM67.5088 21.46L67.3207 21.3918L67.3195 21.3953L67.5088 21.46ZM66.8888 22.84L66.7157 22.7395L66.7121 22.7462L66.8888 22.84ZM66.0888 23.94L65.9473 23.7985L65.9442 23.8018L66.0888 23.94ZM65.0688 24.66L65.1506 24.8425L65.0688 24.66ZM63.7288 24.72C63.545 24.72 63.3112 24.6953 63.0245 24.6432L62.953 25.0368C63.253 25.0913 63.5125 25.12 63.7288 25.12V24.72ZM63.0158 24.6418C62.7479 24.6053 62.4995 24.5204 62.269 24.3869L62.0685 24.7331C62.3447 24.8929 62.6429 24.9947 62.9617 25.0382L63.0158 24.6418ZM62.3687 24.56V23.2H61.9688V24.56H62.3687ZM62.0953 23.386C62.6146 23.591 63.0742 23.7 63.4688 23.7V23.3C63.1433 23.3 62.7363 23.209 62.2422 23.014L62.0953 23.386ZM63.4688 23.7C64.0804 23.7 64.605 23.4866 65.0302 23.0614L64.7473 22.7786C64.3992 23.1267 63.9771 23.3 63.4688 23.3V23.7ZM65.0252 23.0662C65.4492 22.6705 65.7969 22.1528 66.0722 21.5197L65.7053 21.3603C65.4472 21.9539 65.1283 22.4228 64.7523 22.7738L65.0252 23.0662ZM66.0721 21.3602L61.3521 10.5202L60.9854 10.6798L65.7054 21.5198L66.0721 21.3602ZM61.1688 10.8H62.8487V10.4H61.1688V10.8ZM62.6649 10.6788L66.3849 19.3588L66.7526 19.2012L63.0326 10.5212L62.6649 10.6788ZM66.5688 19.48H66.7087V19.08H66.5688V19.48ZM66.8968 19.348L70.0368 10.668L69.6607 10.532L66.5207 19.212L66.8968 19.348ZM69.8488 10.8H71.4487V10.4H69.8488V10.8ZM71.2607 10.5318L67.3207 21.3918L67.6968 21.5282L71.6368 10.6682L71.2607 10.5318ZM67.3195 21.3953C67.1499 21.891 66.9485 22.3388 66.7158 22.7396L67.0617 22.9404C67.309 22.5145 67.5209 22.0423 67.698 21.5247L67.3195 21.3953ZM66.7121 22.7462C66.4937 23.1573 66.2385 23.5074 65.9473 23.7986L66.2302 24.0814C66.5524 23.7592 66.8304 23.376 67.0654 22.9338L66.7121 22.7462ZM65.9442 23.8018C65.6687 24.0898 65.35 24.3147 64.9869 24.4775L65.1506 24.8425C65.5608 24.6586 65.9221 24.4035 66.2333 24.0782L65.9442 23.8018ZM64.9869 24.4775C64.6305 24.6373 64.2126 24.72 63.7288 24.72V25.12C64.2582 25.12 64.7336 25.0294 65.1506 24.8425L64.9869 24.4775Z" fill="white"/>
</svg>
