<svg width="28" height="29" viewBox="0 0 28 29" fill="none" xmlns="http://www.w3.org/2000/svg">
<g id="mdi-light:credit-card">
<path id="Vector" d="M5.83398 6.04175H21.0007C21.9289 6.04175 22.8191 6.42367 23.4755 7.10349C24.1319 7.78331 24.5007 8.70534 24.5007 9.66675V20.5417C24.5007 21.5032 24.1319 22.4252 23.4755 23.105C22.8191 23.7848 21.9289 24.1667 21.0007 24.1667H5.83398C4.90573 24.1667 4.01549 23.7848 3.35911 23.105C2.70273 22.4252 2.33398 21.5032 2.33398 20.5417V9.66675C2.33398 8.70534 2.70273 7.78331 3.35911 7.10349C4.01549 6.42367 4.90573 6.04175 5.83398 6.04175ZM5.83398 7.25008C5.21515 7.25008 4.62165 7.50469 4.18407 7.95791C3.74648 8.41112 3.50065 9.02581 3.50065 9.66675V10.8751H23.334V9.66675C23.334 9.02581 23.0882 8.41112 22.6506 7.95791C22.213 7.50469 21.6195 7.25008 21.0007 7.25008H5.83398ZM3.50065 20.5417C3.50065 21.1827 3.74648 21.7974 4.18407 22.2506C4.62165 22.7038 5.21515 22.9584 5.83398 22.9584H21.0007C21.6195 22.9584 22.213 22.7038 22.6506 22.2506C23.0882 21.7974 23.334 21.1827 23.334 20.5417V14.5001H3.50065V20.5417ZM5.83398 19.3334H10.5007V20.5417H5.83398V19.3334ZM12.834 19.3334H16.334V20.5417H12.834V19.3334ZM3.50065 12.0834V13.2917H23.334V12.0834H3.50065Z" fill="#FE5A13"/>
</g>
</svg>
