<svg width="361" height="276" viewBox="0 0 361 276" fill="none" xmlns="http://www.w3.org/2000/svg">
<path fill-rule="evenodd" clip-rule="evenodd" d="M242.97 2.30633C256.463 7.56823 267.703 24.9721 266.42 38.6163C265.421 49.2451 260.652 57.1455 252.133 62.2804L244.668 66.7801L244.627 117.44C244.607 145.303 245.072 168.398 245.664 168.761C246.256 169.125 250.465 168.165 255.019 166.626C267.157 162.524 286.842 162.66 300.188 166.934C312.15 170.767 325.08 179.971 331.147 188.973C333.451 192.391 336.354 199.225 337.6 204.161C339.729 212.597 340.122 213.162 344.14 213.564C346.898 213.841 349.873 212.918 352.528 210.963C357.976 206.949 361 208.219 361 214.519C361 224.008 349.123 240.968 338.728 246.324C335.565 247.953 334.849 249.455 333.999 256.232C332.745 266.226 330.22 271.181 325.014 273.864C319.595 276.655 314.847 276.397 304.873 272.77C297.37 270.04 296.25 269.104 293.413 263.187L290.268 256.628H279.382C273.393 256.628 266.575 256.246 264.23 255.779C260.386 255.013 259.879 255.319 259.078 258.886C257.326 266.687 256.831 267.69 252.71 271.797C246.502 277.981 235.998 277.235 231.027 270.257C230.047 268.882 227.132 266.759 224.552 265.538C219.151 262.985 216.227 257.597 214.844 247.654C214.315 243.857 212.217 237.954 210.181 234.537C206.798 228.862 206.478 227.067 206.478 213.826C206.478 200.792 206.864 198.546 210.304 191.566L214.13 183.804L213.769 125.474L213.407 67.1446L204.754 64.4992C178.981 56.6167 176.78 34.4424 200.577 22.4275C204.204 20.5966 207.171 18.1638 207.171 17.0206C207.171 15.8774 209.649 12.2626 212.678 8.98898C221.017 -0.0229397 231.222 -2.27488 242.97 2.30633ZM221.026 6.08395C216.543 8.32485 213.715 11.5889 210.171 18.6139C208.045 22.8293 206.243 24.5082 203.193 25.1157C194.073 26.9327 185.903 38.1124 187.523 46.5568C188.51 51.6986 196.317 58.3881 204.503 61.1081C214.462 64.4177 235.514 65.6245 242.643 63.2966C255.359 59.142 262.605 49.4632 262.605 36.6281C262.605 13.6779 239.622 -3.20549 221.026 6.08395ZM221.029 18.4552C221.029 19.8773 220.121 20.5538 218.604 20.2639C215.683 19.7033 215.867 17.2526 218.877 16.6285C220.133 16.3675 221.029 17.1283 221.029 18.4552ZM236.774 18.723C238.43 20.373 237.668 23.2876 235.581 23.2876C234.437 23.2876 233.502 22.393 233.502 21.298C233.502 18.9909 235.479 17.4348 236.774 18.723ZM204.151 46.8136C208.91 50.6879 216.132 51.6102 222.426 49.147C227.432 47.1878 229.344 47.2941 229.344 49.5295C229.344 51.4211 222.092 53.6633 215.976 53.6633C209.872 53.6633 201.062 50.5802 199.37 47.8519C197.636 45.0587 201.077 44.3104 204.151 46.8136ZM216.872 127.188V186.303L213.221 193.48C203.81 211.983 209.259 236.217 224.445 243.397C228.395 245.264 229.344 246.49 229.344 249.722C229.344 251.927 230.018 256.863 230.842 260.69C234.549 277.915 250.557 276.934 255.75 259.165L257.902 251.796L264.065 252.486C267.454 252.866 275.216 253.176 281.314 253.176C287.411 253.176 294.542 252.866 297.158 252.486C301.855 251.804 301.949 251.894 304.486 259.39C309.025 272.795 317.605 276.595 325.869 268.86C329.019 265.912 329.635 263.978 331.203 252.124C331.978 246.265 332.637 245.262 337.276 242.905C346.505 238.214 358.099 222.674 358.198 214.862C358.235 211.918 355.035 211.696 352.715 214.481C350.419 217.236 342.521 218.558 339.135 216.752C337.334 215.791 336.073 213.238 335.491 209.368C333.545 196.437 323.079 181.309 312.203 175.706C308.644 173.872 308.055 173.94 305.292 176.505C300.738 180.732 293.129 180.247 288.502 175.435C286.454 173.306 284.778 170.51 284.778 169.222C284.778 167.242 283.266 166.882 274.959 166.882C265.479 166.882 264.991 167.049 260.846 171.714C256.561 176.536 250.002 178.306 248.053 175.166C247.582 174.407 245.987 173.785 244.507 173.785C241.89 173.785 241.817 172.329 241.817 120.853V67.9192L229.344 67.9965L216.872 68.0725V127.188ZM287.55 168.076C287.55 168.733 288.843 170.908 290.423 172.909C293.686 177.042 300.005 177.824 302.822 174.443C305.021 171.801 304.937 171.731 296.558 169.182C288.175 166.632 287.55 166.555 287.55 168.076ZM249.052 171.64C247.618 173.067 253.358 174.176 255.434 172.871C259.649 170.223 258.911 168.323 254.194 169.671C251.752 170.368 249.439 171.255 249.052 171.64ZM277.572 174.062C280.22 176.7 279.573 181.777 276.463 182.76C270.26 184.722 265.43 180.224 268.202 175.067C269.801 172.089 275.029 171.528 277.572 174.062ZM270.92 177.156C270.92 179.562 273.193 181.16 275.016 180.036C276.861 178.9 275.201 175.166 272.85 175.166C271.789 175.166 270.92 176.061 270.92 177.156ZM256.507 183.126C260.042 185.477 261.151 189.836 258.996 192.901C254.22 199.695 243.656 193.071 247.134 185.465C248.68 182.086 253.235 180.95 256.507 183.126ZM313.095 187.49C315.936 190.618 315.548 194.279 312.149 196.413C307.128 199.562 301.686 191.561 305.63 186.826C307.889 184.113 310.216 184.32 313.095 187.49ZM250.387 188.616C250.879 192.874 255.178 194.631 256.528 191.129C257.52 188.554 254.813 184.831 251.949 184.831C250.585 184.831 250.088 186.035 250.387 188.616ZM292.992 189.85C296.602 194.422 296.656 198.877 293.139 202.049C284.947 209.434 273.888 198.925 279.283 188.882C281.515 184.73 289.389 185.285 292.992 189.85ZM306.952 191.044C306.952 193.716 309.672 195.1 311.449 193.329C312.502 192.28 312.422 191.24 311.17 189.737C309.218 187.392 306.952 188.094 306.952 191.044ZM281.53 191.972C279.336 195.46 282.499 201.4 286.551 201.4C292.776 201.4 294.999 196.121 290.744 191.438C288.003 188.42 283.604 188.675 281.53 191.972ZM218.257 246.352C218.257 250.592 221.924 259.769 224.077 260.918C226.627 262.277 226.722 261.992 225.833 255.695C225.314 252.032 223.903 248.258 222.695 247.308C220.397 245.501 218.257 245.041 218.257 246.352ZM295.865 259.236C295.865 262.119 300.721 268.81 301.936 267.604C302.359 267.185 301.996 264.545 301.131 261.735C299.493 256.418 295.865 254.697 295.865 259.236Z" fill="#D2FF71"/>
<path fill-rule="evenodd" clip-rule="evenodd" d="M216.872 127.188V186.303L213.221 193.48C203.81 211.983 209.259 236.217 224.445 243.397C228.395 245.264 229.344 246.49 229.344 249.722C229.344 251.927 230.018 256.863 230.842 260.69C234.549 277.915 250.557 276.934 255.75 259.165L257.902 251.796L264.065 252.486C267.454 252.866 275.216 253.176 281.314 253.176C287.411 253.176 294.542 252.866 297.158 252.486C301.855 251.804 301.949 251.894 304.486 259.39C309.025 272.795 317.605 276.595 325.869 268.86C329.019 265.912 329.635 263.978 331.203 252.124C331.978 246.265 332.637 245.262 337.276 242.905C346.505 238.214 358.099 222.674 358.198 214.862C358.235 211.918 355.035 211.696 352.715 214.481C350.419 217.236 342.521 218.558 339.135 216.752C337.334 215.791 336.073 213.238 335.491 209.368C333.545 196.437 323.079 181.309 312.203 175.706C308.644 173.872 308.055 173.94 305.292 176.505C300.738 180.732 293.129 180.247 288.502 175.435C286.454 173.306 284.778 170.51 284.778 169.222C284.778 167.242 283.266 166.882 274.959 166.882C265.479 166.882 264.991 167.049 260.846 171.714C256.561 176.536 250.002 178.306 248.053 175.166C247.582 174.407 245.987 173.785 244.507 173.785C241.89 173.785 241.817 172.329 241.817 120.853V67.9192L229.344 67.9965L216.872 68.0725V127.188ZM276.463 182.76C279.573 181.777 280.22 176.7 277.572 174.062C275.029 171.528 269.801 172.089 268.202 175.067C265.43 180.224 270.26 184.722 276.463 182.76ZM258.996 192.901C261.151 189.836 260.042 185.477 256.507 183.126C253.235 180.95 248.68 182.086 247.134 185.465C243.656 193.071 254.22 199.695 258.996 192.901ZM312.149 196.413C315.548 194.279 315.936 190.618 313.095 187.49C310.216 184.32 307.889 184.113 305.63 186.826C301.686 191.561 307.128 199.562 312.149 196.413ZM293.139 202.049C296.656 198.877 296.602 194.422 292.992 189.85C289.389 185.285 281.515 184.73 279.283 188.882C273.888 198.925 284.947 209.434 293.139 202.049Z" fill="#161616"/>
<path fill-rule="evenodd" clip-rule="evenodd" d="M221.026 6.08395C216.543 8.32485 213.715 11.5889 210.171 18.6139C208.045 22.8293 206.243 24.5082 203.193 25.1157C194.073 26.9327 185.903 38.1124 187.523 46.5568C188.51 51.6986 196.317 58.3881 204.503 61.1081C214.462 64.4177 235.514 65.6245 242.643 63.2966C255.359 59.142 262.605 49.4632 262.605 36.6281C262.605 13.6779 239.622 -3.20549 221.026 6.08395ZM218.604 20.2639C220.121 20.5538 221.029 19.8773 221.029 18.4552C221.029 17.1283 220.133 16.3675 218.877 16.6285C215.867 17.2526 215.683 19.7033 218.604 20.2639ZM235.581 23.2876C237.668 23.2876 238.43 20.373 236.774 18.723C235.479 17.4348 233.502 18.9909 233.502 21.298C233.502 22.393 234.437 23.2876 235.581 23.2876ZM222.426 49.147C216.132 51.6102 208.91 50.6879 204.151 46.8136C201.077 44.3104 197.636 45.0587 199.37 47.8519C201.062 50.5802 209.872 53.6633 215.976 53.6633C222.092 53.6633 229.344 51.4211 229.344 49.5295C229.344 47.2941 227.432 47.1878 222.426 49.147Z" fill="#161616"/>
<path d="M281.53 191.972C279.336 195.46 282.499 201.4 286.551 201.4C292.776 201.4 294.999 196.121 290.744 191.438C288.003 188.42 283.604 188.675 281.53 191.972Z" fill="#FE5A13"/>
<path d="M287.55 168.076C287.55 168.733 288.843 170.908 290.423 172.909C293.686 177.042 300.005 177.824 302.822 174.443C305.021 171.801 304.937 171.731 296.558 169.182C288.175 166.632 287.55 166.555 287.55 168.076Z" fill="#FE5A13"/>
<path d="M306.952 191.044C306.952 193.716 309.672 195.1 311.449 193.329C312.502 192.28 312.422 191.24 311.17 189.737C309.218 187.392 306.952 188.094 306.952 191.044Z" fill="#FE5A13"/>
<path d="M250.387 188.616C250.879 192.874 255.178 194.631 256.528 191.129C257.52 188.554 254.813 184.831 251.949 184.831C250.585 184.831 250.088 186.035 250.387 188.616Z" fill="#FE5A13"/>
<path d="M270.92 177.156C270.92 179.562 273.193 181.16 275.016 180.036C276.861 178.9 275.201 175.166 272.85 175.166C271.789 175.166 270.92 176.061 270.92 177.156Z" fill="#FE5A13"/>
<path d="M249.052 171.64C247.618 173.067 253.358 174.176 255.434 172.871C259.649 170.223 258.911 168.323 254.194 169.671C251.752 170.368 249.439 171.255 249.052 171.64Z" fill="#FE5A13"/>
<path d="M218.257 246.352C218.257 250.592 221.924 259.769 224.077 260.918C226.627 262.277 226.722 261.992 225.833 255.695C225.314 252.032 223.903 248.258 222.695 247.308C220.397 245.501 218.257 245.041 218.257 246.352Z" fill="#161616"/>
<path d="M295.865 259.236C295.865 262.119 300.721 268.81 301.936 267.604C302.359 267.185 301.996 264.545 301.131 261.735C299.493 256.418 295.865 254.697 295.865 259.236Z" fill="#161616"/>
<path fill-rule="evenodd" clip-rule="evenodd" d="M150.97 2.30633C164.463 7.56823 175.703 24.9721 174.42 38.6163C173.421 49.2451 168.652 57.1455 160.133 62.2804L152.668 66.7801L152.627 117.44C152.607 145.303 153.072 168.398 153.664 168.761C154.256 169.125 158.465 168.165 163.019 166.626C175.157 162.524 194.842 162.66 208.188 166.934C220.15 170.767 233.08 179.971 239.147 188.973C241.451 192.391 244.354 199.225 245.6 204.161C247.729 212.597 248.122 213.162 252.14 213.564C254.898 213.841 257.873 212.918 260.528 210.963C265.976 206.949 269 208.219 269 214.519C269 224.008 257.123 240.968 246.728 246.324C243.565 247.953 242.849 249.455 241.999 256.232C240.745 266.226 238.22 271.181 233.014 273.864C227.595 276.655 222.847 276.397 212.873 272.77C205.37 270.04 204.25 269.104 201.413 263.187L198.268 256.628H187.382C181.393 256.628 174.575 256.246 172.23 255.779C168.386 255.013 167.879 255.319 167.078 258.886C165.326 266.687 164.831 267.69 160.71 271.797C154.502 277.981 143.998 277.235 139.027 270.257C138.047 268.882 135.132 266.759 132.552 265.538C127.151 262.985 124.227 257.597 122.844 247.654C122.315 243.857 120.217 237.954 118.181 234.537C114.798 228.862 114.478 227.067 114.478 213.826C114.478 200.792 114.864 198.546 118.304 191.566L122.13 183.804L121.769 125.474L121.407 67.1446L112.754 64.4992C86.9811 56.6167 84.7803 34.4424 108.577 22.4275C112.204 20.5966 115.171 18.1638 115.171 17.0206C115.171 15.8774 117.649 12.2626 120.678 8.98898C129.017 -0.0229397 139.222 -2.27488 150.97 2.30633ZM129.026 6.08395C124.543 8.32485 121.715 11.5889 118.171 18.6139C116.045 22.8293 114.243 24.5082 111.193 25.1157C102.073 26.9327 93.9034 38.1124 95.5234 46.5568C96.5102 51.6986 104.317 58.3881 112.503 61.1081C122.462 64.4177 143.514 65.6245 150.643 63.2966C163.359 59.142 170.605 49.4632 170.605 36.6281C170.605 13.6779 147.622 -3.20549 129.026 6.08395ZM129.029 18.4552C129.029 19.8773 128.121 20.5538 126.604 20.2639C123.683 19.7033 123.867 17.2526 126.877 16.6285C128.133 16.3675 129.029 17.1283 129.029 18.4552ZM144.774 18.723C146.43 20.373 145.668 23.2876 143.581 23.2876C142.437 23.2876 141.502 22.393 141.502 21.298C141.502 18.9909 143.479 17.4348 144.774 18.723ZM112.151 46.8136C116.91 50.6879 124.132 51.6102 130.426 49.147C135.432 47.1878 137.344 47.2941 137.344 49.5295C137.344 51.4211 130.092 53.6633 123.976 53.6633C117.872 53.6633 109.062 50.5802 107.37 47.8519C105.636 45.0587 109.077 44.3104 112.151 46.8136ZM124.872 127.188V186.303L121.221 193.48C111.81 211.983 117.259 236.217 132.445 243.397C136.395 245.264 137.344 246.49 137.344 249.722C137.344 251.927 138.018 256.863 138.842 260.69C142.549 277.915 158.557 276.934 163.75 259.165L165.902 251.796L172.065 252.486C175.454 252.866 183.216 253.176 189.314 253.176C195.411 253.176 202.542 252.866 205.158 252.486C209.855 251.804 209.949 251.894 212.486 259.39C217.025 272.795 225.605 276.595 233.869 268.86C237.019 265.912 237.635 263.978 239.203 252.124C239.978 246.265 240.637 245.262 245.276 242.905C254.505 238.214 266.099 222.674 266.198 214.862C266.235 211.918 263.035 211.696 260.715 214.481C258.419 217.236 250.521 218.558 247.135 216.752C245.334 215.791 244.073 213.238 243.491 209.368C241.545 196.437 231.079 181.309 220.203 175.706C216.644 173.872 216.055 173.94 213.292 176.505C208.738 180.732 201.129 180.247 196.502 175.435C194.454 173.306 192.778 170.51 192.778 169.222C192.778 167.242 191.266 166.882 182.959 166.882C173.479 166.882 172.991 167.049 168.846 171.714C164.561 176.536 158.002 178.306 156.053 175.166C155.582 174.407 153.987 173.785 152.507 173.785C149.89 173.785 149.817 172.329 149.817 120.853V67.9192L137.344 67.9965L124.872 68.0725V127.188ZM195.55 168.076C195.55 168.733 196.843 170.908 198.423 172.909C201.686 177.042 208.005 177.824 210.822 174.443C213.021 171.801 212.937 171.731 204.558 169.182C196.175 166.632 195.55 166.555 195.55 168.076ZM157.052 171.64C155.618 173.067 161.358 174.176 163.434 172.871C167.649 170.223 166.911 168.323 162.194 169.671C159.752 170.368 157.439 171.255 157.052 171.64ZM185.572 174.062C188.22 176.7 187.573 181.777 184.463 182.76C178.26 184.722 173.43 180.224 176.202 175.067C177.801 172.089 183.029 171.528 185.572 174.062ZM178.92 177.156C178.92 179.562 181.193 181.16 183.016 180.036C184.861 178.9 183.201 175.166 180.85 175.166C179.789 175.166 178.92 176.061 178.92 177.156ZM164.507 183.126C168.042 185.477 169.151 189.836 166.996 192.901C162.22 199.695 151.656 193.071 155.134 185.465C156.68 182.086 161.235 180.95 164.507 183.126ZM221.095 187.49C223.936 190.618 223.548 194.279 220.149 196.413C215.128 199.562 209.686 191.561 213.63 186.826C215.889 184.113 218.216 184.32 221.095 187.49ZM158.387 188.616C158.879 192.874 163.178 194.631 164.528 191.129C165.52 188.554 162.813 184.831 159.949 184.831C158.585 184.831 158.088 186.035 158.387 188.616ZM200.992 189.85C204.602 194.422 204.656 198.877 201.139 202.049C192.947 209.434 181.888 198.925 187.283 188.882C189.515 184.73 197.389 185.285 200.992 189.85ZM214.952 191.044C214.952 193.716 217.672 195.1 219.449 193.329C220.502 192.28 220.422 191.24 219.17 189.737C217.218 187.392 214.952 188.094 214.952 191.044ZM189.53 191.972C187.336 195.46 190.499 201.4 194.551 201.4C200.776 201.4 202.999 196.121 198.744 191.438C196.003 188.42 191.604 188.675 189.53 191.972ZM126.257 246.352C126.257 250.592 129.924 259.769 132.077 260.918C134.627 262.277 134.722 261.992 133.833 255.695C133.314 252.032 131.903 248.258 130.695 247.308C128.397 245.501 126.257 245.041 126.257 246.352ZM203.865 259.236C203.865 262.119 208.721 268.81 209.936 267.604C210.359 267.185 209.996 264.545 209.131 261.735C207.493 256.418 203.865 254.697 203.865 259.236Z" fill="#161616"/>
<path fill-rule="evenodd" clip-rule="evenodd" d="M124.872 127.188V186.303L121.221 193.48C111.81 211.983 117.259 236.217 132.445 243.397C136.395 245.264 137.344 246.49 137.344 249.722C137.344 251.927 138.018 256.863 138.842 260.69C142.549 277.915 158.557 276.934 163.75 259.165L165.902 251.796L172.065 252.486C175.454 252.866 183.216 253.176 189.314 253.176C195.411 253.176 202.542 252.866 205.158 252.486C209.855 251.804 209.949 251.894 212.486 259.39C217.025 272.795 225.605 276.595 233.869 268.86C237.019 265.912 237.635 263.978 239.203 252.124C239.978 246.265 240.637 245.262 245.276 242.905C254.505 238.214 266.099 222.674 266.198 214.862C266.235 211.918 263.035 211.696 260.715 214.481C258.419 217.236 250.521 218.558 247.135 216.752C245.334 215.791 244.073 213.238 243.491 209.368C241.545 196.437 231.079 181.309 220.203 175.706C216.644 173.872 216.055 173.94 213.292 176.505C208.738 180.732 201.129 180.247 196.502 175.435C194.454 173.306 192.778 170.51 192.778 169.222C192.778 167.242 191.266 166.882 182.959 166.882C173.479 166.882 172.991 167.049 168.846 171.714C164.561 176.536 158.002 178.306 156.053 175.166C155.582 174.407 153.987 173.785 152.507 173.785C149.89 173.785 149.817 172.329 149.817 120.853V67.9192L137.344 67.9965L124.872 68.0725V127.188ZM184.463 182.76C187.573 181.777 188.22 176.7 185.572 174.062C183.029 171.528 177.801 172.089 176.202 175.067C173.43 180.224 178.26 184.722 184.463 182.76ZM166.996 192.901C169.151 189.836 168.042 185.477 164.507 183.126C161.235 180.95 156.68 182.086 155.134 185.465C151.656 193.071 162.22 199.695 166.996 192.901ZM220.149 196.413C223.548 194.279 223.936 190.618 221.095 187.49C218.216 184.32 215.889 184.113 213.63 186.826C209.686 191.561 215.128 199.562 220.149 196.413ZM201.139 202.049C204.656 198.877 204.602 194.422 200.992 189.85C197.389 185.285 189.515 184.73 187.283 188.882C181.888 198.925 192.947 209.434 201.139 202.049Z" fill="#FE5A13"/>
<path fill-rule="evenodd" clip-rule="evenodd" d="M129.026 6.08395C124.543 8.32485 121.715 11.5889 118.171 18.6139C116.045 22.8293 114.243 24.5082 111.193 25.1157C102.073 26.9327 93.9034 38.1124 95.5234 46.5568C96.5102 51.6986 104.317 58.3881 112.503 61.1081C122.462 64.4177 143.514 65.6245 150.643 63.2966C163.359 59.142 170.605 49.4632 170.605 36.6281C170.605 13.6779 147.622 -3.20549 129.026 6.08395ZM126.604 20.2639C128.121 20.5538 129.029 19.8773 129.029 18.4552C129.029 17.1283 128.133 16.3675 126.877 16.6285C123.867 17.2526 123.683 19.7033 126.604 20.2639ZM143.581 23.2876C145.668 23.2876 146.43 20.373 144.774 18.723C143.479 17.4348 141.502 18.9909 141.502 21.298C141.502 22.393 142.437 23.2876 143.581 23.2876ZM130.426 49.147C124.132 51.6102 116.91 50.6879 112.151 46.8136C109.077 44.3104 105.636 45.0587 107.37 47.8519C109.062 50.5802 117.872 53.6633 123.976 53.6633C130.092 53.6633 137.344 51.4211 137.344 49.5295C137.344 47.2941 135.432 47.1878 130.426 49.147Z" fill="#FE5A13"/>
<path d="M189.53 191.972C187.336 195.46 190.499 201.4 194.551 201.4C200.776 201.4 202.999 196.121 198.744 191.438C196.003 188.42 191.604 188.675 189.53 191.972Z" fill="#D2FF71"/>
<path d="M195.55 168.076C195.55 168.733 196.843 170.908 198.423 172.909C201.686 177.042 208.005 177.824 210.822 174.443C213.021 171.801 212.937 171.731 204.558 169.182C196.175 166.632 195.55 166.555 195.55 168.076Z" fill="#D2FF71"/>
<path d="M214.952 191.044C214.952 193.716 217.672 195.1 219.449 193.329C220.502 192.28 220.422 191.24 219.17 189.737C217.218 187.392 214.952 188.094 214.952 191.044Z" fill="#D2FF71"/>
<path d="M158.387 188.616C158.879 192.874 163.178 194.631 164.528 191.129C165.52 188.554 162.813 184.831 159.949 184.831C158.585 184.831 158.088 186.035 158.387 188.616Z" fill="#D2FF71"/>
<path d="M178.92 177.156C178.92 179.562 181.193 181.16 183.016 180.036C184.861 178.9 183.201 175.166 180.85 175.166C179.789 175.166 178.92 176.061 178.92 177.156Z" fill="#D2FF71"/>
<path d="M157.052 171.64C155.618 173.067 161.358 174.176 163.434 172.871C167.649 170.223 166.911 168.323 162.194 169.671C159.752 170.368 157.439 171.255 157.052 171.64Z" fill="#D2FF71"/>
<path d="M126.257 246.352C126.257 250.592 129.924 259.769 132.077 260.918C134.627 262.277 134.722 261.992 133.833 255.695C133.314 252.032 131.903 248.258 130.695 247.308C128.397 245.501 126.257 245.041 126.257 246.352Z" fill="#FE5A13"/>
<path d="M203.865 259.236C203.865 262.119 208.721 268.81 209.936 267.604C210.359 267.185 209.996 264.545 209.131 261.735C207.493 256.418 203.865 254.697 203.865 259.236Z" fill="#FE5A13"/>
<path fill-rule="evenodd" clip-rule="evenodd" d="M58.9699 2.30633C72.4626 7.56823 83.7032 24.9721 82.4199 38.6163C81.4207 49.2451 76.652 57.1455 68.1332 62.2804L60.6676 66.7801L60.6274 117.44C60.6066 145.303 61.0723 168.398 61.664 168.761C62.2558 169.125 66.4646 168.165 71.0185 166.626C83.1572 162.524 102.842 162.66 116.188 166.934C128.15 170.767 141.08 179.971 147.147 188.973C149.451 192.391 152.354 199.225 153.6 204.161C155.729 212.597 156.122 213.162 160.14 213.564C162.898 213.841 165.873 212.918 168.528 210.963C173.976 206.949 177 208.219 177 214.519C177 224.008 165.123 240.968 154.728 246.324C151.565 247.953 150.849 249.455 149.999 256.232C148.745 266.226 146.22 271.181 141.014 273.864C135.595 276.655 130.847 276.397 120.873 272.77C113.37 270.04 112.25 269.104 109.413 263.187L106.268 256.628H95.3818C89.3935 256.628 82.5751 256.246 80.2303 255.779C76.3859 255.013 75.8787 255.319 75.0777 258.886C73.326 266.687 72.8312 267.69 68.7097 271.797C62.5025 277.981 51.9977 277.235 47.0267 270.257C46.0469 268.882 43.1324 266.759 40.552 265.538C35.1513 262.985 32.2272 257.597 30.8441 247.654C30.3147 243.857 28.2165 237.954 26.1807 234.537C22.7979 228.862 22.4777 227.067 22.4777 213.826C22.4777 200.792 22.8644 198.546 26.3041 191.566L30.1304 183.804L29.7687 125.474L29.407 67.1446L20.7537 64.4992C-5.01892 56.6167 -7.21964 34.4424 16.5768 22.4275C20.2036 20.5966 23.1707 18.1638 23.1707 17.0206C23.1707 15.8774 25.6486 12.2626 28.678 8.98898C37.0167 -0.0229399 47.2221 -2.27488 58.9699 2.30633ZM37.0264 6.08395C32.5432 8.32485 29.7146 11.5889 26.171 18.6139C24.0451 22.8293 22.2435 24.5082 19.1933 25.1157C10.073 26.9327 1.9034 38.1124 3.52345 46.5568C4.51018 51.6986 12.3167 58.3881 20.5029 61.1081C30.4616 64.4177 51.5141 65.6245 58.6429 63.2966C71.3594 59.142 78.6047 49.4632 78.6047 36.6281C78.6047 13.6779 55.6217 -3.20549 37.0264 6.08395ZM37.0292 18.4552C37.0292 19.8773 36.1214 20.5538 34.6039 20.2639C31.6825 19.7033 31.8669 17.2526 34.8769 16.6285C36.1325 16.3675 37.0292 17.1283 37.0292 18.4552ZM52.7738 18.723C54.4299 20.373 53.6677 23.2876 51.5806 23.2876C50.4373 23.2876 49.5018 22.393 49.5018 21.298C49.5018 18.9909 51.4794 17.4348 52.7738 18.723ZM20.1509 46.8136C24.9099 50.6879 32.1316 51.6102 38.4261 49.147C43.4318 47.1878 45.3443 47.2941 45.3443 49.5295C45.3443 51.4211 38.0921 53.6633 31.9763 53.6633C25.8717 53.6633 17.0618 50.5802 15.3697 47.8519C13.636 45.0587 17.0771 44.3104 20.1509 46.8136ZM32.8716 127.188V186.303L29.2213 193.48C19.81 211.983 25.2591 236.217 40.4453 243.397C44.3949 245.264 45.3443 246.49 45.3443 249.722C45.3443 251.927 46.0178 256.863 46.8424 260.69C50.5495 277.915 66.5575 276.934 71.7502 259.165L73.9025 251.796L80.0653 252.486C83.4537 252.866 91.2159 253.176 97.3136 253.176C103.411 253.176 110.542 252.866 113.158 252.486C117.855 251.804 117.949 251.894 120.486 259.39C125.025 272.795 133.605 276.595 141.869 268.86C145.019 265.912 145.635 263.978 147.203 252.124C147.978 246.265 148.637 245.262 153.276 242.905C162.505 238.214 174.099 222.674 174.198 214.862C174.235 211.918 171.035 211.696 168.715 214.481C166.419 217.236 158.521 218.558 155.135 216.752C153.334 215.791 152.073 213.238 151.491 209.368C149.545 196.437 139.079 181.309 128.203 175.706C124.644 173.872 124.055 173.94 121.292 176.505C116.738 180.732 109.129 180.247 104.502 175.435C102.454 173.306 100.778 170.51 100.778 169.222C100.778 167.242 99.2663 166.882 90.9595 166.882C81.4789 166.882 80.9911 167.049 76.846 171.714C72.561 176.536 66.0017 178.306 64.0532 175.166C63.582 174.407 61.9869 173.785 60.5068 173.785C57.8904 173.785 57.8169 172.329 57.8169 120.853V67.9192L45.3443 67.9965L32.8716 68.0725V127.188ZM103.55 168.076C103.55 168.733 104.843 170.908 106.423 172.909C109.686 177.043 116.005 177.824 118.822 174.443C121.021 171.801 120.937 171.731 112.558 169.182C104.175 166.632 103.55 166.555 103.55 168.076ZM65.0524 171.64C63.6181 173.067 69.3583 174.176 71.4343 172.871C75.6486 170.223 74.9114 168.323 70.1939 169.671C67.7521 170.368 65.4391 171.255 65.0524 171.64ZM93.5718 174.062C96.2202 176.7 95.573 181.777 92.4632 182.76C86.2601 184.722 81.4304 180.224 84.2021 175.067C85.8014 172.089 91.0288 171.528 93.5718 174.062ZM86.9198 177.156C86.9198 179.562 89.1925 181.16 91.0163 180.036C92.8609 178.9 91.2006 175.166 88.8502 175.166C87.7887 175.166 86.9198 176.061 86.9198 177.156ZM72.5069 183.126C76.0422 185.477 77.1509 189.836 74.9959 192.901C70.2203 199.695 59.6559 193.071 63.1344 185.465C64.6796 182.086 69.2349 180.95 72.5069 183.126ZM129.095 187.49C131.936 190.618 131.548 194.279 128.149 196.413C123.128 199.562 117.686 191.561 121.63 186.826C123.889 184.113 126.216 184.32 129.095 187.49ZM66.387 188.616C66.879 192.874 71.1779 194.631 72.5277 191.129C73.52 188.554 70.8134 184.831 67.9489 184.831C66.5852 184.831 66.0877 186.035 66.387 188.616ZM108.992 189.85C112.602 194.422 112.656 198.877 109.139 202.049C100.947 209.434 89.8883 198.925 95.2834 188.882C97.5146 184.73 105.389 185.285 108.992 189.85ZM122.952 191.044C122.952 193.716 125.672 195.1 127.449 193.329C128.502 192.28 128.422 191.24 127.17 189.737C125.218 187.392 122.952 188.094 122.952 191.044ZM97.5298 191.972C95.336 195.46 98.4985 201.4 102.551 201.4C108.776 201.4 110.999 196.121 106.744 191.438C104.003 188.42 99.6044 188.675 97.5298 191.972ZM34.2575 246.352C34.2575 250.592 37.9244 259.769 40.0766 260.918C42.6266 262.277 42.7222 261.992 41.8325 255.695C41.3142 252.032 39.9034 248.258 38.6949 247.308C36.3972 245.501 34.2575 245.041 34.2575 246.352ZM111.865 259.236C111.865 262.119 116.721 268.81 117.936 267.604C118.359 267.185 117.996 264.545 117.131 261.735C115.493 256.418 111.865 254.697 111.865 259.236Z" fill="#161616"/>
<path fill-rule="evenodd" clip-rule="evenodd" d="M32.8716 127.188V186.303L29.2213 193.48C19.81 211.983 25.2591 236.217 40.4453 243.397C44.3949 245.264 45.3443 246.49 45.3443 249.722C45.3443 251.927 46.0178 256.863 46.8424 260.69C50.5495 277.915 66.5575 276.934 71.7502 259.165L73.9025 251.796L80.0653 252.486C83.4537 252.866 91.2159 253.176 97.3136 253.176C103.411 253.176 110.542 252.866 113.158 252.486C117.855 251.804 117.949 251.894 120.486 259.39C125.025 272.795 133.605 276.595 141.869 268.86C145.019 265.912 145.635 263.978 147.203 252.124C147.978 246.265 148.637 245.262 153.276 242.905C162.505 238.214 174.099 222.674 174.198 214.862C174.235 211.918 171.035 211.696 168.715 214.481C166.419 217.236 158.521 218.558 155.135 216.752C153.334 215.791 152.073 213.238 151.491 209.368C149.545 196.437 139.079 181.309 128.203 175.706C124.644 173.872 124.055 173.94 121.292 176.505C116.738 180.732 109.129 180.247 104.502 175.435C102.454 173.306 100.778 170.51 100.778 169.222C100.778 167.242 99.2663 166.882 90.9595 166.882C81.4789 166.882 80.9911 167.049 76.846 171.714C72.561 176.536 66.0017 178.306 64.0532 175.166C63.582 174.407 61.9869 173.785 60.5068 173.785C57.8904 173.785 57.8169 172.329 57.8169 120.853V67.9192L45.3443 67.9965L32.8716 68.0725V127.188ZM92.4632 182.76C95.573 181.777 96.2202 176.7 93.5718 174.062C91.0288 171.528 85.8014 172.089 84.2021 175.067C81.4304 180.224 86.2601 184.722 92.4632 182.76ZM74.9959 192.901C77.1509 189.836 76.0422 185.477 72.5069 183.126C69.2349 180.95 64.6796 182.086 63.1344 185.465C59.6559 193.071 70.2203 199.695 74.9959 192.901ZM128.149 196.413C131.548 194.279 131.936 190.618 129.095 187.49C126.216 184.32 123.889 184.113 121.63 186.826C117.686 191.561 123.128 199.562 128.149 196.413ZM109.139 202.049C112.656 198.877 112.602 194.422 108.992 189.85C105.389 185.285 97.5146 184.73 95.2834 188.882C89.8883 198.925 100.947 209.434 109.139 202.049Z" fill="#D2FF71"/>
<path fill-rule="evenodd" clip-rule="evenodd" d="M37.0264 6.08395C32.5432 8.32485 29.7146 11.5889 26.171 18.6139C24.0451 22.8293 22.2435 24.5082 19.1933 25.1157C10.073 26.9327 1.9034 38.1124 3.52345 46.5568C4.51018 51.6986 12.3167 58.3881 20.5029 61.1081C30.4616 64.4177 51.5141 65.6245 58.6429 63.2966C71.3594 59.142 78.6047 49.4632 78.6047 36.6281C78.6047 13.6779 55.6217 -3.20549 37.0264 6.08395ZM34.6039 20.2639C36.1214 20.5538 37.0292 19.8773 37.0292 18.4552C37.0292 17.1283 36.1325 16.3675 34.8769 16.6285C31.8669 17.2526 31.6825 19.7033 34.6039 20.2639ZM51.5806 23.2876C53.6677 23.2876 54.4299 20.373 52.7738 18.723C51.4794 17.4348 49.5018 18.9909 49.5018 21.298C49.5018 22.393 50.4373 23.2876 51.5806 23.2876ZM38.4261 49.147C32.1316 51.6102 24.9099 50.6879 20.1509 46.8136C17.0771 44.3104 13.636 45.0587 15.3697 47.8519C17.0618 50.5802 25.8717 53.6633 31.9763 53.6633C38.0921 53.6633 45.3443 51.4211 45.3443 49.5295C45.3443 47.2941 43.4318 47.1878 38.4261 49.147Z" fill="#D2FF71"/>
<path d="M97.5298 191.972C95.336 195.46 98.4985 201.4 102.551 201.4C108.776 201.4 110.999 196.121 106.744 191.438C104.003 188.42 99.6044 188.675 97.5298 191.972Z" fill="#FE5A13"/>
<path d="M103.55 168.076C103.55 168.733 104.843 170.908 106.423 172.909C109.686 177.043 116.005 177.824 118.822 174.443C121.021 171.801 120.937 171.731 112.558 169.182C104.175 166.632 103.55 166.555 103.55 168.076Z" fill="#FE5A13"/>
<path d="M122.952 191.044C122.952 193.716 125.672 195.1 127.449 193.329C128.502 192.28 128.422 191.24 127.17 189.737C125.218 187.392 122.952 188.094 122.952 191.044Z" fill="#FE5A13"/>
<path d="M66.387 188.616C66.879 192.874 71.1779 194.631 72.5277 191.129C73.52 188.554 70.8134 184.831 67.9489 184.831C66.5852 184.831 66.0877 186.035 66.387 188.616Z" fill="#FE5A13"/>
<path d="M86.9198 177.156C86.9198 179.562 89.1925 181.16 91.0163 180.036C92.8609 178.9 91.2006 175.166 88.8502 175.166C87.7887 175.166 86.9198 176.061 86.9198 177.156Z" fill="#FE5A13"/>
<path d="M65.0524 171.64C63.6181 173.067 69.3583 174.176 71.4343 172.871C75.6486 170.223 74.9114 168.323 70.1939 169.671C67.7521 170.368 65.4391 171.255 65.0524 171.64Z" fill="#FE5A13"/>
<path d="M34.2575 246.352C34.2575 250.592 37.9244 259.769 40.0766 260.918C42.6266 262.277 42.7222 261.992 41.8325 255.695C41.3142 252.032 39.9034 248.258 38.6949 247.308C36.3972 245.501 34.2575 245.041 34.2575 246.352Z" fill="#D2FF71"/>
<path d="M111.865 259.236C111.865 262.119 116.721 268.81 117.936 267.604C118.359 267.185 117.996 264.545 117.131 261.735C115.493 256.418 111.865 254.697 111.865 259.236Z" fill="#D2FF71"/>
</svg>
