<svg width="97" height="134" viewBox="0 0 97 134" fill="none" xmlns="http://www.w3.org/2000/svg">
<path fill-rule="evenodd" clip-rule="evenodd" d="M10.1999 4.94839C19.5495 -1.65429 35.867 -1.49269 44.2426 5.28654C50.7674 10.5672 53.856 17.1453 53.4925 24.9918L53.1737 31.8681L86.3388 53.9255C104.58 66.0562 119.911 75.793 120.408 75.561C120.906 75.3295 122.118 72.1382 123.103 68.4685C125.726 58.6859 134.427 45.7735 143.066 38.8383C150.81 32.6223 162.495 28.1047 171.046 28.0216C174.292 27.9899 180.039 29.049 183.817 30.3746C190.274 32.6406 190.816 32.6269 192.837 30.1542C194.226 28.4576 194.922 26.0952 194.803 23.4953C194.558 18.16 196.713 16.7198 200.839 19.4596C207.054 23.5859 212.968 38.7879 211.928 47.967C211.612 50.7595 212.282 51.8849 216.349 55.3917C222.346 60.5642 224.487 64.383 223.967 68.9806C223.425 73.7653 221.179 76.7817 214.439 81.7767C209.369 85.5337 208.266 85.8645 203.148 85.1603L197.476 84.3812L192.714 91.5544C190.094 95.5004 186.86 99.827 185.529 101.169C183.345 103.369 183.324 103.837 185.309 105.916C189.653 110.462 190.094 111.225 190.98 115.726C192.315 122.506 187.231 129.104 180.486 129.345C179.156 129.393 176.49 130.39 174.562 131.559C170.527 134.008 165.719 133.592 158.6 130.179C155.882 128.876 151.097 127.692 147.968 127.547C142.771 127.309 141.456 126.739 132.783 120.981C124.245 115.313 122.943 114.081 119.876 108.779L116.466 102.882L78.1009 77.7539L39.7361 52.6258L34.2175 57.1774C17.779 70.7324 2.29176 62.5394 4.83266 41.6337C5.22015 38.4476 4.92471 35.4345 4.17589 34.9373C3.42706 34.4401 2.14345 31.2353 1.32454 27.8154C-0.930242 18.4016 2.05954 10.6974 10.1999 4.94839ZM3.07408 21.0509C2.58051 24.9797 3.48101 28.263 6.5322 33.6531C8.3632 36.8871 8.67474 38.8044 7.7382 41.0786C4.93829 47.8786 8.68689 58.1238 14.9269 60.7285C18.7265 62.3144 26.5235 60.0795 31.8866 55.868C38.4113 50.745 48.4121 37.3973 50.0061 31.6874C52.8483 21.5011 49.6783 12.5177 41.2712 6.93595C26.2385 -3.04465 5.12478 4.75772 3.07408 21.0509ZM11.1786 26.4291C12.1101 27.0475 12.1561 27.9399 11.3023 28.8138C9.65702 30.495 8.13238 29.3078 9.04049 27.0529C9.41887 26.1121 10.3095 25.8521 11.1786 26.4291ZM18.2422 16.1706C20.0475 15.7969 21.6232 17.5667 20.7101 18.942C20.2099 19.6954 19.2146 19.9227 18.4974 19.4465C16.9862 18.4432 16.8322 16.4634 18.2422 16.1706ZM22.3695 49.8836C26.9893 48.4325 30.7528 44.0748 31.8933 38.8559C32.7999 34.7053 33.7062 33.4913 35.1704 34.4635C36.4094 35.2861 34.7054 41.04 32.0298 45.07C29.359 49.0927 23.4852 53.5571 20.9579 53.4857C18.3698 53.4134 19.3851 50.8205 22.3695 49.8836ZM80.5807 76.4544L119.302 102.162L122.406 107.689C130.408 121.937 148.666 128.885 160.012 122.001C162.963 120.21 164.182 120.118 166.299 121.523C167.743 122.482 171.271 124.185 174.139 125.306C187.043 130.354 193.404 119.379 184.036 108.229L180.151 103.607L183.3 99.8458C185.031 97.7782 188.63 92.7984 191.298 88.7803C193.966 84.7622 196.882 79.9286 197.778 78.0394C199.386 74.6479 199.486 74.6248 205.506 76.2125C216.272 79.0515 222.514 75.0503 221.063 66.2411C220.511 62.8835 219.513 61.6359 212.435 55.4482C208.936 52.3894 208.568 51.5188 209.053 47.4374C210.018 39.3151 204.912 24.9172 199.838 21.455C197.926 20.1502 196.38 22.1622 197.19 24.902C197.99 27.6136 195.4 33.3926 192.736 34.8382C191.318 35.6075 189.095 35.3283 186.305 34.0288C176.984 29.6877 162.496 30.0052 154.068 34.7354C151.31 36.2832 151.096 36.7007 151.568 39.6372C152.344 44.476 148.698 49.2788 143.521 50.2354C141.231 50.6592 138.666 50.5474 137.823 49.9872C136.526 49.1262 135.628 49.9657 131.994 55.4395C127.846 61.6868 127.742 62.0809 128.985 66.8412C130.268 71.7615 128.558 76.8535 125.649 76.7721C124.945 76.7523 123.841 77.5332 123.193 78.5085C122.048 80.2327 121.062 79.6476 87.3449 57.2618L52.6726 34.2419L47.2666 42.4944L41.8596 50.7463L80.5807 76.4544ZM138.285 47.6624C138.715 47.9482 140.705 48.0419 142.707 47.8709C146.842 47.518 150.118 43.6946 149.136 40.3675C148.368 37.7696 148.285 37.7947 142.95 42.2075C137.612 46.6225 137.288 47.0007 138.285 47.6624ZM123.776 74.5801C124.084 76.1462 127.321 72.8458 127.375 70.9104C127.484 66.9817 125.917 66.6413 124.736 70.3359C124.124 72.2482 123.693 74.1578 123.776 74.5801ZM137.84 56.8404C140.727 56.2427 143.769 58.8771 143.052 61.3538C141.624 66.2945 136.564 67.5208 134.399 63.4517C133.148 61.1027 135.068 57.4143 137.84 56.8404ZM136.956 62.5694C138.533 63.616 140.573 62.8131 140.635 61.1225C140.698 59.4129 137.526 58.8833 136.498 60.4321C136.033 61.1316 136.239 62.0933 136.956 62.5694ZM134.561 74.6631C137.648 73.3561 140.988 74.5211 142.053 77.2741C144.413 83.3752 135.453 87.4563 131.993 81.8563C130.456 79.3687 131.704 75.8729 134.561 74.6631ZM162.177 39.2721C165.468 38.7601 167.697 40.6081 167.607 43.7759C167.473 48.4541 159.852 48.5607 158.476 43.9028C157.687 41.2344 158.841 39.7912 162.177 39.2721ZM135.48 81.0832C138.484 82.6108 141.516 80.5424 139.812 78.1296C138.56 76.3559 134.937 76.5206 133.684 78.4082C133.087 79.3068 133.658 80.1582 135.48 81.0832ZM154.928 53.5453C159.502 53.1544 162.444 55.0565 162.982 58.7534C164.236 67.3632 152.514 70.0805 148.296 62.1578C146.553 58.882 150.361 53.9345 154.928 53.5453ZM161.817 44.8659C163.567 46.0278 165.664 44.8368 165.281 42.8963C165.055 41.7459 164.339 41.3468 162.806 41.5175C160.416 41.7847 159.885 43.5828 161.817 44.8659ZM151.303 62.0213C152.628 64.9836 157.902 65.4828 159.675 62.8126C162.398 58.7104 159.913 54.9502 154.984 55.717C151.808 56.2107 150.051 59.2204 151.303 62.0213ZM159.241 127.363C162.018 129.207 169.634 130.782 171.328 129.863C173.333 128.774 173.189 128.587 168.675 126.435C166.049 125.183 162.96 124.472 161.809 124.855C159.62 125.583 158.382 126.793 159.241 127.363ZM201.633 81.827C203.522 83.0807 210.029 82.7906 209.77 81.4649C209.681 81.0044 207.793 80.0956 205.574 79.4436C201.375 78.2107 198.66 79.8527 201.633 81.827Z" fill="#161616"/>
<path fill-rule="evenodd" clip-rule="evenodd" d="M80.5807 76.4544L119.302 102.162L122.406 107.689C130.408 121.937 148.666 128.885 160.012 122.001C162.963 120.21 164.182 120.118 166.299 121.523C167.743 122.482 171.271 124.185 174.139 125.306C187.043 130.354 193.404 119.379 184.036 108.229L180.151 103.607L183.3 99.8458C185.031 97.7782 188.63 92.7984 191.298 88.7803C193.966 84.7622 196.882 79.9286 197.778 78.0394C199.386 74.6479 199.486 74.6248 205.506 76.2125C216.272 79.0515 222.514 75.0503 221.063 66.2411C220.511 62.8835 219.513 61.6359 212.435 55.4482C208.936 52.3894 208.568 51.5188 209.053 47.4374C210.018 39.3151 204.912 24.9172 199.838 21.455C197.926 20.1502 196.38 22.1622 197.19 24.902C197.99 27.6136 195.4 33.3926 192.736 34.8382C191.318 35.6075 189.095 35.3283 186.305 34.0288C176.984 29.6877 162.496 30.0052 154.068 34.7354C151.31 36.2832 151.096 36.7007 151.568 39.6372C152.344 44.476 148.698 49.2788 143.521 50.2354C141.231 50.6592 138.666 50.5474 137.823 49.9872C136.526 49.1262 135.628 49.9657 131.994 55.4395C127.846 61.6868 127.742 62.0809 128.985 66.8412C130.268 71.7615 128.558 76.8535 125.649 76.7721C124.945 76.7523 123.841 77.5332 123.193 78.5085C122.048 80.2327 121.062 79.6476 87.3449 57.2618L52.6726 34.2419L47.2666 42.4944L41.8596 50.7463L80.5807 76.4544ZM143.052 61.3538C143.769 58.8771 140.727 56.2427 137.84 56.8404C135.068 57.4143 133.148 61.1027 134.399 63.4517C136.564 67.5208 141.624 66.2945 143.052 61.3538ZM142.053 77.2741C140.988 74.5211 137.648 73.3561 134.561 74.6631C131.704 75.8729 130.456 79.3687 131.993 81.8563C135.453 87.4563 144.413 83.3752 142.053 77.2741ZM167.607 43.7759C167.697 40.6081 165.468 38.7601 162.177 39.2721C158.841 39.7912 157.687 41.2344 158.476 43.9028C159.852 48.5607 167.473 48.4541 167.607 43.7759ZM162.982 58.7534C162.444 55.0565 159.502 53.1544 154.928 53.5453C150.361 53.9345 146.553 58.882 148.296 62.1578C152.514 70.0805 164.236 67.3632 162.982 58.7534Z" fill="#D2FF71"/>
<path fill-rule="evenodd" clip-rule="evenodd" d="M3.07408 21.0509C2.58051 24.9797 3.48101 28.263 6.5322 33.6531C8.3632 36.8871 8.67474 38.8044 7.7382 41.0786C4.93829 47.8786 8.68689 58.1238 14.9269 60.7285C18.7265 62.3144 26.5235 60.0795 31.8866 55.868C38.4113 50.745 48.4121 37.3973 50.0061 31.6874C52.8483 21.5011 49.6783 12.5177 41.2712 6.93595C26.2385 -3.04465 5.12478 4.75772 3.07408 21.0509ZM11.3023 28.8138C12.1561 27.9399 12.1101 27.0475 11.1786 26.4291C10.3095 25.8521 9.41887 26.1121 9.04049 27.0529C8.13238 29.3078 9.65702 30.495 11.3023 28.8138ZM20.7101 18.942C21.6232 17.5667 20.0475 15.7969 18.2422 16.1706C16.8322 16.4634 16.9862 18.4432 18.4974 19.4465C19.2146 19.9227 20.2099 19.6954 20.7101 18.942ZM31.8933 38.8559C30.7528 44.0748 26.9893 48.4325 22.3695 49.8836C19.3851 50.8205 18.3698 53.4134 20.9579 53.4857C23.4852 53.5571 29.359 49.0927 32.0298 45.07C34.7054 41.04 36.4094 35.2861 35.1704 34.4635C33.7062 33.4913 32.7999 34.7053 31.8933 38.8559Z" fill="#D2FF71"/>
<path d="M151.303 62.0213C152.628 64.9836 157.902 65.4828 159.675 62.8126C162.398 58.7104 159.913 54.9502 154.984 55.717C151.808 56.2107 150.051 59.2204 151.303 62.0213Z" fill="#FE5A13"/>
<path d="M138.285 47.6624C138.715 47.9482 140.705 48.0419 142.707 47.8709C146.842 47.518 150.118 43.6946 149.136 40.3675C148.368 37.7696 148.285 37.7947 142.95 42.2075C137.612 46.6225 137.288 47.0007 138.285 47.6624Z" fill="#FE5A13"/>
<path d="M161.817 44.8659C163.567 46.0278 165.664 44.8368 165.281 42.8963C165.055 41.7459 164.339 41.3468 162.806 41.5175C160.416 41.7847 159.885 43.5828 161.817 44.8659Z" fill="#FE5A13"/>
<path d="M135.48 81.0832C138.484 82.6108 141.516 80.5424 139.812 78.1296C138.56 76.3559 134.937 76.5206 133.684 78.4082C133.087 79.3068 133.658 80.1582 135.48 81.0832Z" fill="#FE5A13"/>
<path d="M136.956 62.5694C138.533 63.616 140.573 62.8131 140.635 61.1225C140.698 59.4129 137.526 58.8833 136.498 60.4321C136.033 61.1316 136.239 62.0933 136.956 62.5694Z" fill="#FE5A13"/>
<path d="M123.776 74.5801C124.084 76.1462 127.321 72.8458 127.375 70.9104C127.484 66.9817 125.917 66.6413 124.736 70.3359C124.124 72.2482 123.693 74.1578 123.776 74.5801Z" fill="#FE5A13"/>
<path d="M159.241 127.363C162.018 129.207 169.634 130.782 171.328 129.863C173.333 128.774 173.189 128.587 168.675 126.435C166.049 125.183 162.96 124.472 161.809 124.855C159.62 125.583 158.382 126.793 159.241 127.363Z" fill="#D2FF71"/>
<path d="M201.633 81.827C203.522 83.0807 210.029 82.7906 209.77 81.4649C209.681 81.0044 207.793 80.0956 205.574 79.4436C201.375 78.2107 198.66 79.8527 201.633 81.827Z" fill="#D2FF71"/>
</svg>
