<svg width="28" height="28" viewBox="0 0 28 28" fill="none" xmlns="http://www.w3.org/2000/svg">
<g id="fluent:mail-28-regular">
<path id="Vector" d="M6.25 5H21.75C22.5801 4.99995 23.3788 5.31755 23.9822 5.88767C24.5856 6.45779 24.948 7.23719 24.995 8.066L25 8.25V19.75C25.0001 20.5801 24.6824 21.3788 24.1123 21.9822C23.5422 22.5856 22.7628 22.948 21.934 22.995L21.75 23H6.25C5.41986 23.0001 4.62117 22.6824 4.01777 22.1123C3.41437 21.5422 3.052 20.7628 3.005 19.934L3 19.75V8.25C2.99995 7.41986 3.31755 6.62117 3.88767 6.01777C4.45779 5.41437 5.23719 5.052 6.066 5.005L6.25 5ZM23.5 10.905L14.346 15.665C14.2573 15.7111 14.1603 15.739 14.0607 15.747C13.9611 15.7551 13.8609 15.7432 13.766 15.712L13.654 15.665L4.5 10.905V19.75C4.50002 20.1892 4.66517 20.6123 4.96268 20.9354C5.26019 21.2585 5.6683 21.4579 6.106 21.494L6.25 21.5H21.75C22.1893 21.5 22.6126 21.3347 22.9357 21.037C23.2588 20.7392 23.4581 20.3309 23.494 19.893L23.5 19.75V10.905ZM21.75 6.5H6.25C5.81081 6.50002 5.38768 6.66517 5.06461 6.96268C4.74154 7.26019 4.54214 7.6683 4.506 8.106L4.5 8.25V9.214L14 14.154L23.5 9.214V8.25C23.5 7.81065 23.3347 7.38739 23.037 7.06429C22.7392 6.74119 22.3309 6.5419 21.893 6.506L21.75 6.5Z" fill="#646464"/>
</g>
</svg>
