<svg width="28" height="28" viewBox="0 0 28 28" fill="none" xmlns="http://www.w3.org/2000/svg">
<g id="octicon:link-24">
<g id="Group 199">
<path id="Vector" d="M16.78 5.65318C17.1455 5.28765 17.5794 4.9977 18.057 4.79988C18.5346 4.60206 19.0465 4.50024 19.5634 4.50024C20.0803 4.50024 20.5922 4.60206 21.0698 4.79988C21.5474 4.9977 21.9813 5.28765 22.3468 5.65318C22.7124 6.0187 23.0023 6.45265 23.2001 6.93023C23.398 7.40781 23.4998 7.91968 23.4998 8.43662C23.4998 8.95355 23.398 9.46542 23.2001 9.943C23.0023 10.4206 22.7124 10.8545 22.3468 11.2201L18.7199 14.847C18.3263 15.2407 17.8537 15.5464 17.3332 15.744C16.8127 15.9415 16.2563 16.0264 15.7006 15.9931C15.1449 15.9597 14.6026 15.8088 14.1095 15.5504C13.6164 15.292 13.1837 14.9319 12.84 14.494C12.717 14.3375 12.5368 14.2363 12.3391 14.2127C12.1415 14.1891 11.9425 14.2449 11.7861 14.368C11.6296 14.491 11.5284 14.6712 11.5048 14.8689C11.4811 15.0665 11.537 15.2655 11.6601 15.422C12.1348 16.0266 12.7324 16.5236 13.4134 16.8803C14.0944 17.237 14.8433 17.4451 15.6107 17.4911C16.378 17.537 17.1464 17.4196 17.8651 17.1467C18.5838 16.8739 19.2364 16.4516 19.7799 15.908L23.4078 12.28C23.9126 11.7752 24.313 11.176 24.5862 10.5164C24.8594 9.85689 25 9.15 25 8.43612C25 7.72224 24.8594 7.01535 24.5862 6.35581C24.313 5.69627 23.9126 5.09699 23.4078 4.5922C22.903 4.08741 22.3037 3.68699 21.6442 3.4138C20.9847 3.14061 20.2778 3 19.5639 3C18.85 3 18.1431 3.14061 17.4836 3.4138C16.824 3.68699 16.2248 4.08741 15.72 4.5922L12.72 7.59214C12.5834 7.73352 12.5077 7.92293 12.5093 8.11958C12.5109 8.31622 12.5897 8.50437 12.7287 8.64348C12.8677 8.7826 13.0557 8.86157 13.2524 8.86337C13.449 8.86517 13.6385 8.78966 13.78 8.65311L16.78 5.65318Z" fill="#FE5A13"/>
<path id="Vector_2" d="M9.2801 13.1531C9.6737 12.7594 10.1463 12.4536 10.6668 12.2561C11.1873 12.0585 11.7437 11.9736 12.2994 12.007C12.8551 12.0403 13.3974 12.1912 13.8905 12.4496C14.3836 12.708 14.8163 13.0681 15.16 13.5061C15.2209 13.5835 15.2965 13.6483 15.3824 13.6965C15.4684 13.7448 15.563 13.7756 15.6609 13.7873C15.7587 13.799 15.858 13.7914 15.9529 13.7647C16.0478 13.7381 16.1365 13.693 16.214 13.6321C16.2914 13.5711 16.3562 13.4955 16.4044 13.4096C16.4527 13.3236 16.4835 13.229 16.4952 13.1312C16.5069 13.0333 16.4992 12.9341 16.4726 12.8392C16.446 12.7443 16.4009 12.6556 16.34 12.5781C15.8652 11.9735 15.2676 11.4764 14.5866 11.1197C13.9056 10.7631 13.1567 10.5549 12.3893 10.509C11.622 10.463 10.8536 10.5804 10.1349 10.8533C9.41623 11.1262 8.76361 11.5484 8.22013 12.0921L4.5922 15.72C4.08741 16.2248 3.68699 16.8241 3.4138 17.4836C3.14061 18.1432 3 18.85 3 19.5639C3 20.2778 3.14061 20.9847 3.4138 21.6442C3.68699 22.3038 4.08741 22.9031 4.5922 23.4078C5.09699 23.9126 5.69627 24.3131 6.35581 24.5862C7.01535 24.8594 7.72224 25 8.43612 25C9.15 25 9.85689 24.8594 10.5164 24.5862C11.176 24.3131 11.7752 23.9126 12.28 23.4078L15.28 20.4079C15.3537 20.3392 15.4128 20.2564 15.4538 20.1645C15.4947 20.0725 15.5168 19.9731 15.5186 19.8724C15.5203 19.7717 15.5018 19.6717 15.4641 19.5783C15.4264 19.4849 15.3702 19.4001 15.299 19.3289C15.2278 19.2577 15.143 19.2015 15.0496 19.1638C14.9562 19.1261 14.8562 19.1076 14.7555 19.1093C14.6548 19.1111 14.5555 19.1332 14.4635 19.1742C14.3715 19.2151 14.2887 19.2742 14.22 19.3479L11.2201 22.3479C10.8545 22.7134 10.4205 23.0033 9.94282 23.2011C9.46517 23.3989 8.95325 23.5007 8.43627 23.5007C7.39218 23.5006 6.39089 23.0857 5.65268 22.3474C5.28715 21.9818 4.99722 21.5478 4.79942 21.0701C4.60162 20.5925 4.49984 20.0806 4.49989 19.5636C4.49998 18.5195 4.91483 17.5182 5.65318 16.78L9.2801 13.1531Z" fill="#FE5A13"/>
</g>
</g>
</svg>
