<svg width="174" height="134" viewBox="0 0 174 134" fill="none" xmlns="http://www.w3.org/2000/svg">
<path fill-rule="evenodd" clip-rule="evenodd" d="M10.3105 5.77896C19.6601 -0.823725 35.9776 -0.662123 44.3532 6.11711C50.878 11.3978 53.9666 17.9758 53.6031 25.8224L53.2843 32.6987L86.4494 54.7561C104.691 66.8868 120.022 76.6236 120.519 76.3915C121.016 76.1601 122.228 72.9688 123.213 69.2991C125.837 59.5164 134.537 46.6041 143.176 39.6689C150.92 33.4529 162.606 28.9353 171.157 28.8521C174.403 28.8205 180.15 29.8795 183.928 31.2052C190.385 33.4712 190.927 33.4574 192.948 30.9848C194.336 29.2882 195.033 26.9258 194.914 24.3259C194.668 18.9906 196.823 17.5504 200.95 20.2902C207.165 24.4165 213.078 39.6185 212.039 48.7976C211.722 51.5901 212.393 52.7155 216.46 56.2223C222.457 61.3947 224.598 65.2136 224.077 69.8112C223.535 74.5959 221.289 77.6123 214.55 82.6073C209.479 86.3643 208.376 86.695 203.259 85.9909L197.587 85.2117L192.824 92.385C190.204 96.3309 186.971 100.658 185.639 102C183.456 104.2 183.434 104.667 185.42 106.746C189.763 111.293 190.204 112.055 191.091 116.557C192.426 123.337 187.342 129.935 180.596 130.176C179.267 130.223 176.601 131.22 174.672 132.39C170.637 134.838 165.829 134.422 158.711 131.009C155.992 129.707 151.208 128.523 148.079 128.378C142.882 128.139 141.566 127.57 132.893 121.811C124.356 116.143 123.053 114.911 119.987 109.61L116.576 103.713L78.2115 78.5844L39.8467 53.4564L34.3281 58.008C17.8895 71.563 2.40236 63.37 4.94325 42.4642C5.33074 39.2782 5.03531 36.265 4.28648 35.7679C3.53765 35.2707 2.25404 32.0659 1.43513 28.646C-0.819647 19.2321 2.17013 11.5279 10.3105 5.77896ZM3.18468 21.8815C2.6911 25.8102 3.59161 29.0936 6.64279 34.4837C8.4738 37.7177 8.78534 39.635 7.8488 41.9092C5.04888 48.7092 8.79749 58.9543 15.0375 61.5591C18.8371 63.145 26.6341 60.91 31.9972 56.6986C38.5219 51.5756 48.5227 38.2278 50.1167 32.5179C52.9589 22.3316 49.7889 13.3483 41.3818 7.76651C26.3491 -2.21409 5.23538 5.58829 3.18468 21.8815ZM11.2892 27.2597C12.2207 27.8781 12.2667 28.7705 11.4129 29.6443C9.76761 31.3256 8.24298 30.1384 9.15109 27.8835C9.52947 26.9426 10.4201 26.6826 11.2892 27.2597ZM18.3528 17.0012C20.1581 16.6275 21.7338 18.3973 20.8207 19.7725C20.3205 20.5259 19.3252 20.7533 18.608 20.2771C17.0968 19.2738 16.9428 17.2939 18.3528 17.0012ZM22.4801 50.7141C27.0999 49.263 30.8634 44.9054 32.0039 39.6864C32.9105 35.5359 33.8168 34.3219 35.281 35.294C36.52 36.1166 34.816 41.8706 32.1403 45.9006C29.4696 49.9232 23.5958 54.3877 21.0685 54.3162C18.4804 54.244 19.4957 51.651 22.4801 50.7141ZM80.6913 77.2849L119.412 102.993L122.516 108.52C130.519 122.768 148.776 129.716 160.123 122.831C163.074 121.04 164.292 120.948 166.409 122.354C167.854 123.313 171.381 125.015 174.249 126.137C187.153 131.184 193.514 120.21 184.147 109.06L180.262 104.437L183.41 100.676C185.141 98.6087 188.741 93.6289 191.408 89.6108C194.076 85.5927 196.992 80.7592 197.888 78.8699C199.496 75.4784 199.596 75.4554 205.616 77.0431C216.382 79.8821 222.625 75.8809 221.174 67.0717C220.621 63.714 219.624 62.4664 212.546 56.2788C209.046 53.22 208.678 52.3494 209.164 48.2679C210.129 40.1457 205.022 25.7478 199.948 22.2856C198.037 20.9808 196.491 22.9927 197.3 25.7325C198.101 28.4442 195.511 34.2232 192.847 35.6688C191.429 36.438 189.205 36.1588 186.416 34.8593C177.095 30.5183 162.607 30.8358 154.178 35.566C151.42 37.1137 151.207 37.5313 151.678 40.4678C152.454 45.3066 148.808 50.1093 143.632 51.066C141.341 51.4898 138.777 51.378 137.933 50.8178C136.636 49.9567 135.739 50.7963 132.105 56.2701C127.957 62.5173 127.853 62.9114 129.095 67.6717C130.379 72.5921 128.669 77.6841 125.76 77.6026C125.056 77.5829 123.951 78.3638 123.304 79.3391C122.159 81.0632 121.173 80.4782 87.4555 58.0924L52.7832 35.0725L47.3772 43.325L41.9702 51.5769L80.6913 77.2849ZM138.395 48.493C138.826 48.7788 140.816 48.8725 142.817 48.7014C146.953 48.3486 150.229 44.5251 149.247 41.1981C148.479 38.6002 148.396 38.6252 143.061 43.0381C137.723 47.453 137.399 47.8313 138.395 48.493ZM123.887 75.4107C124.195 76.9767 127.432 73.6764 127.486 71.741C127.595 67.8123 126.028 67.4719 124.847 71.1665C124.235 73.0787 123.804 74.9884 123.887 75.4107ZM137.95 57.671C140.837 57.0733 143.879 59.7076 143.163 62.1844C141.734 67.1251 136.675 68.3514 134.509 64.2823C133.258 61.9333 135.178 58.2449 137.95 57.671ZM137.067 63.4C138.643 64.4466 140.684 63.6436 140.746 61.9531C140.808 60.2434 137.636 59.7138 136.608 61.2626C136.144 61.9622 136.35 62.9238 137.067 63.4ZM134.672 75.4937C137.759 74.1866 141.099 75.3517 142.164 78.1047C144.524 84.2058 135.564 88.2868 132.103 82.6868C130.566 80.1993 131.815 76.7034 134.672 75.4937ZM162.288 40.1027C165.579 39.5906 167.808 41.4387 167.718 44.6065C167.584 49.2847 159.962 49.3912 158.587 44.7333C157.798 42.0649 158.951 40.6217 162.288 40.1027ZM135.59 81.9137C138.594 83.4413 141.627 81.3729 139.923 78.9601C138.67 77.1865 135.048 77.3511 133.795 79.2387C133.198 80.1373 133.769 80.9888 135.59 81.9137ZM155.038 54.3758C159.612 53.985 162.554 55.887 163.093 59.584C164.346 68.1937 152.625 70.9111 148.407 62.9883C146.663 59.7126 150.472 54.7651 155.038 54.3758ZM161.928 45.6965C163.678 46.8583 165.774 45.6674 165.392 43.7269C165.166 42.5765 164.449 42.1773 162.917 42.3481C160.527 42.6152 159.995 44.4133 161.928 45.6965ZM151.414 62.8519C152.738 65.8142 158.012 66.3134 159.785 63.6431C162.509 59.541 160.024 55.7807 155.095 56.5476C151.919 57.0413 150.162 60.0509 151.414 62.8519ZM159.351 128.194C162.129 130.038 169.744 131.613 171.438 130.694C173.444 129.604 173.299 129.418 168.785 127.265C166.159 126.014 163.07 125.303 161.919 125.686C159.73 126.414 158.493 127.624 159.351 128.194ZM201.744 82.6575C203.632 83.9113 210.139 83.6212 209.881 82.2955C209.792 81.835 207.904 80.9262 205.685 80.2742C201.485 79.0412 198.77 80.6833 201.744 82.6575Z" fill="#161616"/>
<path fill-rule="evenodd" clip-rule="evenodd" d="M80.6913 77.2849L119.412 102.993L122.516 108.52C130.519 122.768 148.776 129.716 160.123 122.831C163.074 121.04 164.292 120.948 166.409 122.354C167.854 123.313 171.381 125.015 174.249 126.137C187.153 131.184 193.514 120.21 184.147 109.06L180.262 104.437L183.41 100.676C185.141 98.6087 188.741 93.6289 191.408 89.6108C194.076 85.5927 196.992 80.7592 197.888 78.8699C199.496 75.4784 199.596 75.4554 205.616 77.0431C216.382 79.8821 222.625 75.8809 221.174 67.0717C220.621 63.714 219.624 62.4664 212.546 56.2788C209.046 53.22 208.678 52.3494 209.164 48.2679C210.129 40.1457 205.022 25.7478 199.948 22.2856C198.037 20.9808 196.491 22.9927 197.3 25.7325C198.101 28.4442 195.511 34.2232 192.847 35.6688C191.429 36.438 189.205 36.1588 186.416 34.8593C177.095 30.5183 162.607 30.8358 154.178 35.566C151.42 37.1137 151.207 37.5313 151.678 40.4678C152.454 45.3066 148.808 50.1093 143.632 51.066C141.341 51.4898 138.777 51.378 137.933 50.8178C136.636 49.9567 135.739 50.7963 132.105 56.2701C127.957 62.5173 127.853 62.9114 129.095 67.6717C130.379 72.5921 128.669 77.6841 125.76 77.6026C125.056 77.5829 123.951 78.3638 123.304 79.3391C122.159 81.0632 121.173 80.4782 87.4555 58.0924L52.7832 35.0725L47.3772 43.325L41.9702 51.5769L80.6913 77.2849ZM143.163 62.1844C143.879 59.7076 140.837 57.0733 137.95 57.671C135.178 58.2449 133.258 61.9333 134.509 64.2823C136.675 68.3514 141.734 67.1251 143.163 62.1844ZM142.164 78.1047C141.099 75.3517 137.759 74.1866 134.672 75.4937C131.815 76.7034 130.566 80.1993 132.103 82.6868C135.564 88.2868 144.524 84.2058 142.164 78.1047ZM167.718 44.6065C167.808 41.4387 165.579 39.5906 162.288 40.1027C158.951 40.6217 157.798 42.0649 158.587 44.7333C159.962 49.3912 167.584 49.2847 167.718 44.6065ZM163.093 59.584C162.554 55.887 159.612 53.985 155.038 54.3758C150.472 54.7651 146.663 59.7126 148.407 62.9883C152.625 70.9111 164.346 68.1937 163.093 59.584Z" fill="#D2FF71"/>
<path fill-rule="evenodd" clip-rule="evenodd" d="M3.18468 21.8815C2.6911 25.8102 3.59161 29.0936 6.64279 34.4837C8.4738 37.7177 8.78534 39.635 7.8488 41.9092C5.04888 48.7092 8.79749 58.9543 15.0375 61.5591C18.8371 63.145 26.6341 60.91 31.9972 56.6986C38.5219 51.5756 48.5227 38.2278 50.1167 32.5179C52.9589 22.3316 49.7889 13.3483 41.3818 7.76651C26.3491 -2.21409 5.23538 5.58829 3.18468 21.8815ZM11.4129 29.6443C12.2667 28.7705 12.2207 27.8781 11.2892 27.2597C10.4201 26.6826 9.52947 26.9426 9.15109 27.8835C8.24298 30.1384 9.76761 31.3256 11.4129 29.6443ZM20.8207 19.7725C21.7338 18.3973 20.1581 16.6275 18.3528 17.0012C16.9428 17.2939 17.0968 19.2738 18.608 20.2771C19.3252 20.7533 20.3205 20.5259 20.8207 19.7725ZM32.0039 39.6864C30.8634 44.9054 27.0999 49.263 22.4801 50.7141C19.4957 51.651 18.4804 54.244 21.0685 54.3162C23.5958 54.3877 29.4696 49.9232 32.1403 45.9006C34.816 41.8706 36.52 36.1166 35.281 35.294C33.8168 34.3219 32.9105 35.5359 32.0039 39.6864Z" fill="#D2FF71"/>
<path d="M151.414 62.8519C152.738 65.8142 158.012 66.3134 159.785 63.6431C162.509 59.541 160.024 55.7807 155.095 56.5476C151.919 57.0413 150.162 60.0509 151.414 62.8519Z" fill="#FE5A13"/>
<path d="M138.395 48.493C138.826 48.7788 140.816 48.8725 142.817 48.7014C146.953 48.3486 150.229 44.5251 149.247 41.1981C148.479 38.6002 148.396 38.6252 143.061 43.0381C137.723 47.453 137.399 47.8313 138.395 48.493Z" fill="#FE5A13"/>
<path d="M161.928 45.6965C163.678 46.8583 165.774 45.6674 165.392 43.7269C165.166 42.5765 164.449 42.1773 162.917 42.3481C160.527 42.6152 159.995 44.4133 161.928 45.6965Z" fill="#FE5A13"/>
<path d="M135.59 81.9137C138.594 83.4413 141.627 81.3729 139.923 78.9601C138.67 77.1865 135.048 77.3511 133.795 79.2387C133.198 80.1373 133.769 80.9888 135.59 81.9137Z" fill="#FE5A13"/>
<path d="M137.067 63.4C138.643 64.4466 140.684 63.6436 140.746 61.9531C140.808 60.2434 137.636 59.7138 136.608 61.2626C136.144 61.9622 136.35 62.9238 137.067 63.4Z" fill="#FE5A13"/>
<path d="M123.887 75.4107C124.195 76.9767 127.432 73.6764 127.486 71.741C127.595 67.8123 126.028 67.4719 124.847 71.1665C124.235 73.0787 123.804 74.9884 123.887 75.4107Z" fill="#FE5A13"/>
<path d="M159.351 128.194C162.129 130.038 169.744 131.613 171.438 130.694C173.444 129.604 173.299 129.418 168.785 127.265C166.159 126.014 163.07 125.303 161.919 125.686C159.73 126.414 158.493 127.624 159.351 128.194Z" fill="#D2FF71"/>
<path d="M201.744 82.6575C203.632 83.9113 210.139 83.6212 209.881 82.2955C209.792 81.835 207.904 80.9262 205.685 80.2742C201.485 79.0412 198.77 80.6833 201.744 82.6575Z" fill="#D2FF71"/>
</svg>
