<svg width="25" height="26" viewBox="0 0 25 26" fill="none" xmlns="http://www.w3.org/2000/svg">
<g id="Password">
<path id="Vector" d="M19.5312 1.28125L9.85234 10.9594C8.80179 10.6409 7.69125 10.5728 6.60966 10.7606C5.52807 10.9484 4.50548 11.3869 3.62377 12.0408C2.74206 12.6948 2.02572 13.5462 1.53212 14.5267C1.03852 15.5072 0.781364 16.5897 0.78125 17.6875C0.78125 19.5523 1.52204 21.3407 2.84066 22.6593C4.15927 23.978 5.9477 24.7188 7.8125 24.7188C8.91029 24.7186 9.99279 24.4613 10.9733 23.9676C11.9538 23.4739 12.8051 22.7575 13.459 21.8757C14.1129 20.9939 14.5513 19.9712 14.739 18.8896C14.9266 17.808 14.8584 16.6974 14.5398 15.6469L16.4062 13.7812V12.2188H17.9688L24.2188 5.96875V1.28125H19.5312ZM22.6562 5.32109L17.3219 10.6562H14.8438V13.1336L13.4352 14.5414L12.7727 15.2039L13.0445 16.1C13.2016 16.6172 13.2812 17.1508 13.2812 17.6875C13.2812 20.7031 10.8273 23.1562 7.8125 23.1562C4.79766 23.1562 2.34375 20.7031 2.34375 17.6875C2.34375 14.6719 4.79766 12.2188 7.8125 12.2188C8.34844 12.2188 8.88281 12.2984 9.39922 12.4547L10.2945 12.7266L10.957 12.0641L20.1781 2.84375H22.6562V5.32109Z" fill="#FE5A13"/>
<path id="Vector_2" d="M6.25 20.8125C7.11295 20.8125 7.8125 20.1129 7.8125 19.25C7.8125 18.3871 7.11295 17.6875 6.25 17.6875C5.38706 17.6875 4.6875 18.3871 4.6875 19.25C4.6875 20.1129 5.38706 20.8125 6.25 20.8125Z" fill="#FE5A13"/>
<path id="Vector_3" d="M16.1297 8.81787L20.8172 4.13037L21.3695 4.68272L16.682 9.37021L16.1297 8.81787Z" fill="#FE5A13"/>
</g>
</svg>
