<svg width="26" height="26" viewBox="0 0 26 26" fill="none" xmlns="http://www.w3.org/2000/svg">
<g id="Question" clip-path="url(#clip0_932_5901)">
<path id="Vector" d="M13 22.75C18.3848 22.75 22.75 18.3848 22.75 13C22.75 7.61522 18.3848 3.25 13 3.25C7.61522 3.25 3.25 7.61522 3.25 13C3.25 18.3848 7.61522 22.75 13 22.75Z" stroke="#646464" stroke-width="1.5" stroke-linecap="round" stroke-linejoin="round"/>
<path id="Vector_2" d="M13 19.0938C13.4487 19.0938 13.8125 18.73 13.8125 18.2812C13.8125 17.8325 13.4487 17.4688 13 17.4688C12.5513 17.4688 12.1875 17.8325 12.1875 18.2812C12.1875 18.73 12.5513 19.0938 13 19.0938Z" fill="#646464"/>
<path id="Vector_3" d="M13 14.6255V13.813C13.5624 13.813 14.1123 13.6462 14.5799 13.3337C15.0476 13.0213 15.412 12.5771 15.6273 12.0575C15.8425 11.5379 15.8988 10.9661 15.7891 10.4145C15.6794 9.86282 15.4085 9.35611 15.0108 8.95841C14.6131 8.5607 14.1064 8.28986 13.5548 8.18013C13.0032 8.0704 12.4314 8.12672 11.9117 8.34196C11.3921 8.55719 10.948 8.92168 10.6355 9.38934C10.323 9.85699 10.1562 10.4068 10.1562 10.9692" stroke="#646464" stroke-width="1.5" stroke-linecap="round" stroke-linejoin="round"/>
</g>
<defs>
<clipPath id="clip0_932_5901">
<rect width="26" height="26" fill="white"/>
</clipPath>
</defs>
</svg>
