<svg width="28" height="28" viewBox="0 0 28 28" fill="none" xmlns="http://www.w3.org/2000/svg">
<g id="Question" clip-path="url(#clip0_1085_769)">
<path id="Vector" d="M14 24.5C19.799 24.5 24.5 19.799 24.5 14C24.5 8.20101 19.799 3.5 14 3.5C8.20101 3.5 3.5 8.20101 3.5 14C3.5 19.799 8.20101 24.5 14 24.5Z" stroke="#FE5A13" stroke-width="1.5" stroke-linecap="round" stroke-linejoin="round"/>
<path id="Vector_2" d="M14 20.5625C14.4832 20.5625 14.875 20.1707 14.875 19.6875C14.875 19.2043 14.4832 18.8125 14 18.8125C13.5168 18.8125 13.125 19.2043 13.125 19.6875C13.125 20.1707 13.5168 20.5625 14 20.5625Z" fill="#FE5A13"/>
<path id="Vector_3" d="M14 15.7505V14.8755C14.6057 14.8755 15.1978 14.6959 15.7014 14.3594C16.2051 14.0229 16.5976 13.5446 16.8294 12.985C17.0612 12.4254 17.1218 11.8096 17.0037 11.2155C16.8855 10.6215 16.5938 10.0758 16.1655 9.64748C15.7372 9.21918 15.1915 8.9275 14.5975 8.80933C14.0034 8.69117 13.3876 8.75182 12.828 8.98361C12.2684 9.2154 11.7901 9.60793 11.4536 10.1116C11.1171 10.6152 10.9375 11.2073 10.9375 11.813" stroke="#FE5A13" stroke-width="1.5" stroke-linecap="round" stroke-linejoin="round"/>
</g>
<defs>
<clipPath id="clip0_1085_769">
<rect width="28" height="28" fill="white"/>
</clipPath>
</defs>
</svg>
