<svg width="23" height="23" viewBox="0 0 23 23" fill="none" xmlns="http://www.w3.org/2000/svg">
<g id="Heart">
<path id="Vector" d="M18 0H4C2.346 0 1 1.34598 1 2.99996V21.9997C1.00006 22.1869 1.05265 22.3703 1.15179 22.5291C1.25094 22.6879 1.39265 22.8156 1.56082 22.8978C1.72898 22.98 1.91685 23.0134 2.10303 22.9941C2.28922 22.9748 2.46626 22.9037 2.614 22.7887L11 16.2668L19.386 22.7887C19.5335 22.904 19.7106 22.9754 19.8968 22.9947C20.0831 23.014 20.271 22.9804 20.439 22.8977C20.6072 22.8156 20.7489 22.6878 20.8481 22.5291C20.9473 22.3703 20.9999 22.1869 21 21.9997V2.99996C21 1.34598 19.654 0 18 0ZM19 19.9558L11.614 14.2108C11.4386 14.074 11.2226 13.9996 11.0002 13.9994C10.7777 13.9992 10.5616 14.0733 10.386 14.2098L3 19.9558V2.99996C3 2.44897 3.449 1.99998 4 1.99998H18C18.551 1.99998 19 2.44897 19 2.99996V19.9558Z" fill="#85C316"/>
</g>
</svg>
