<svg width="15" height="15" viewBox="0 0 15 15" fill="none" xmlns="http://www.w3.org/2000/svg">
<g id="Frame 307">
<path id="Vector" d="M7.5 0C3.35526 0 0 3.35526 0 7.5C0 11.6447 3.35526 15 7.5 15C11.6447 15 15 11.6447 15 7.5C15 3.35526 11.6447 0 7.5 0ZM7.5 14.2105C3.78947 14.2105 0.789474 11.2105 0.789474 7.5C0.789474 3.78947 3.78947 0.789474 7.5 0.789474C11.2105 0.789474 14.2105 3.78947 14.2105 7.5C14.2105 11.2105 11.2105 14.2105 7.5 14.2105ZM11.3487 7.5C11.3487 7.71711 11.1711 7.89474 10.9539 7.89474H6.53289C6.31579 7.89474 6.13816 7.71711 6.13816 7.5C6.13816 7.2829 6.31579 7.10526 6.53289 7.10526H10.9539C11.1711 7.10526 11.3487 7.2829 11.3487 7.5ZM11.3487 9.86842C11.3487 10.0855 11.1711 10.2632 10.9539 10.2632H6.53289C6.31579 10.2632 6.13816 10.0855 6.13816 9.86842C6.13816 9.65132 6.31579 9.47368 6.53289 9.47368H10.9539C11.1711 9.47368 11.3487 9.65132 11.3487 9.86842ZM5.19079 7.5C5.19079 7.71711 5.01316 7.89474 4.79605 7.89474H4.04605C3.82895 7.89474 3.65132 7.71711 3.65132 7.5C3.65132 7.2829 3.82895 7.10526 4.04605 7.10526H4.79605C5.01316 7.10526 5.19079 7.2829 5.19079 7.5ZM5.19079 9.86842C5.19079 10.0855 5.01316 10.2632 4.79605 10.2632H4.04605C3.82895 10.2632 3.65132 10.0855 3.65132 9.86842C3.65132 9.65132 3.82895 9.47368 4.04605 9.47368H4.79605C5.01316 9.47368 5.19079 9.65132 5.19079 9.86842ZM11.3487 5.13158C11.3487 5.34868 11.1711 5.52632 10.9539 5.52632H6.53289C6.31579 5.52632 6.13816 5.34868 6.13816 5.13158C6.13816 4.91447 6.31579 4.73684 6.53289 4.73684H10.9539C11.1711 4.73684 11.3487 4.91447 11.3487 5.13158ZM5.19079 5.13158C5.19079 5.34868 5.01316 5.52632 4.79605 5.52632H4.04605C3.82895 5.52632 3.65132 5.34868 3.65132 5.13158C3.65132 4.91447 3.82895 4.73684 4.04605 4.73684H4.79605C5.01316 4.73684 5.19079 4.91447 5.19079 5.13158Z" fill="#646464"/>
</g>
</svg>
