<svg width="23" height="23" viewBox="0 0 23 23" fill="none" xmlns="http://www.w3.org/2000/svg">
<g id="Heart">
<path id="Arrow" d="M0.838521 20C0.750259 20.0004 0.66253 19.9865 0.57889 19.9588C0.403976 19.903 0.252617 19.7922 0.148174 19.6434C0.0437318 19.4946 -0.00798679 19.3162 0.00100134 19.1356C0.00100134 19.0122 0.863646 7.05941 13.0579 6.12097V1.82391C13.0578 1.66025 13.1073 1.50026 13.2001 1.36438C13.2929 1.2285 13.4248 1.12289 13.579 1.06104C13.7331 0.999195 13.9025 0.983918 14.0656 1.01716C14.2286 1.05041 14.3779 1.13066 14.4943 1.24768L22.7606 9.54545C22.914 9.69933 23 9.90621 23 10.1217C23 10.3372 22.914 10.544 22.7606 10.6979L14.4943 18.9957C14.3779 19.1127 14.2286 19.193 14.0656 19.2262C13.9025 19.2595 13.7331 19.2442 13.579 19.1823C13.4248 19.1205 13.2929 19.0149 13.2001 18.879C13.1073 18.7431 13.0578 18.5831 13.0579 18.4195V14.2047C4.91724 14.5093 1.57972 19.5555 1.54622 19.6172C1.47067 19.7345 1.36616 19.8311 1.24243 19.898C1.11869 19.9649 0.979751 20 0.838521 20ZM14.733 3.84073V6.89066C14.7331 7.10408 14.6489 7.30921 14.4981 7.46279C14.3473 7.61637 14.1418 7.70638 13.9248 7.71385C6.03533 7.99785 3.21289 13.1634 2.19949 16.485C4.29329 14.7069 8.02444 12.5336 13.8452 12.5336H13.8829C14.105 12.5336 14.318 12.6204 14.4751 12.7747C14.6322 12.9291 14.7204 13.1385 14.7204 13.3568V16.4068L21.0018 10.1258L14.733 3.84073Z" fill="white"/>
</g>
</svg>
