<svg width="23" height="23" viewBox="0 0 23 23" fill="none" xmlns="http://www.w3.org/2000/svg">
<g id="Frame 357">
<path id="View" d="M11.5 7.34C9.25111 7.34 7.41111 9.212 7.41111 11.5C7.41111 13.788 9.25111 15.66 11.5 15.66C13.7489 15.66 15.5889 13.788 15.5889 11.5C15.5889 9.212 13.7489 7.34 11.5 7.34ZM11.5 14.62C9.81333 14.62 8.43333 13.216 8.43333 11.5C8.43333 9.784 9.81333 8.38 11.5 8.38C13.1867 8.38 14.5667 9.784 14.5667 11.5C14.5667 13.216 13.1867 14.62 11.5 14.62ZM22.8467 11.136L20.6489 8.874C18.2211 6.378 14.9756 5 11.5 5C8.02444 5 4.77889 6.378 2.35111 8.874L0.153333 11.136C-0.0511111 11.344 -0.0511111 11.656 0.153333 11.864L2.35111 14.126C4.77889 16.622 8.02444 18 11.5 18C14.9756 18 18.2211 16.622 20.6489 14.126L22.8467 11.864C23.0511 11.656 23.0511 11.344 22.8467 11.136ZM19.9333 13.398C17.6844 15.686 14.6944 16.96 11.5 16.96C8.30556 16.96 5.31556 15.686 3.06667 13.398L1.22667 11.5L3.06667 9.602C5.31556 7.314 8.30556 6.04 11.5 6.04C14.6944 6.04 17.6844 7.314 19.9333 9.602L21.7733 11.5L19.9333 13.398Z" fill="#85C316"/>
</g>
</svg>
