<svg width="15" height="15" viewBox="0 0 15 15" fill="none" xmlns="http://www.w3.org/2000/svg">
<g id="wallet">
<path id="Vector" d="M10.1339 1.5625C12.1278 1.5625 13.75 3.22174 13.75 5.26182V9.73818C13.75 11.7783 12.1278 13.4375 10.1339 13.4375C9.90389 13.4375 9.71722 13.2465 9.71722 13.0112C9.71722 12.7759 9.90389 12.5849 10.1339 12.5849C11.6683 12.5849 12.9167 11.3082 12.9167 9.73818V6.16562H10.8644C10.1906 6.16619 9.64111 6.72779 9.64056 7.41786C9.64111 8.10793 10.1906 8.66954 10.8644 8.67011H11.7172C11.9472 8.67011 12.1339 8.8611 12.1339 9.09643C12.1339 9.33175 11.9472 9.52275 11.7172 9.52275H10.8644C9.73056 9.52218 8.80778 8.57802 8.80722 7.41786C8.80778 6.2577 9.73056 5.31355 10.8644 5.31298H12.9167V5.26182C12.9167 3.69183 11.6683 2.41514 10.1339 2.41514H4.86556C3.62889 2.41514 2.59111 3.24959 2.22944 4.3927H7.72167C7.95167 4.3927 8.13833 4.58369 8.13833 4.81902C8.13833 5.05491 7.95167 5.24534 7.72167 5.24534H2.085L2.08333 5.26182V9.73818C2.08333 11.3082 3.33111 12.5849 4.86556 12.5849H7.51611C7.74611 12.5849 7.93278 12.7759 7.93278 13.0112C7.93278 13.2465 7.74611 13.4375 7.51611 13.4375H4.86556C2.87167 13.4375 1.25 11.7783 1.25 9.73818V5.26182C1.25 3.22174 2.87167 1.5625 4.86556 1.5625H10.1339ZM11.1442 6.95312C11.3742 6.95312 11.5609 7.14411 11.5609 7.37944C11.5609 7.61477 11.3742 7.80576 11.1442 7.80576H10.9548C10.7248 7.80576 10.5381 7.61477 10.5381 7.37944C10.5381 7.14411 10.7248 6.95312 10.9548 6.95312H11.1442Z" fill="#646464"/>
</g>
</svg>
